<svg xmlns="http://www.w3.org/2000/svg" width="66.576" height="62.824" viewBox="0 0 66.576 62.824">
  <g id="Group_31014" data-name="Group 31014" transform="translate(690.962 -57.089)">
    <g id="Group_31013" data-name="Group 31013" transform="translate(-690.962 57.089)">
      <g id="Group_31002" data-name="Group 31002" transform="translate(10.239 10.731)">
        <g id="Group_31001" data-name="Group 31001">
          <path id="Path_7927" data-name="Path 7927" d="M-609.515,118.145a22.522,22.522,0,0,0-11.325,2.984,22.45,22.45,0,0,0-8.432,8.145,22.034,22.034,0,0,0-3.437,11.31,22.746,22.746,0,0,0,2.908,11.624,23.4,23.4,0,0,0,8.8,8.115,23.453,23.453,0,0,0,11.485,3.39c4.2,0,7.955-1.692,11.356-3.618a23.029,23.029,0,0,0,8.8-7.961,22.391,22.391,0,0,0,2.78-11.549c0-4.187-.476-8.348-2.48-11.727a23.971,23.971,0,0,0-8.779-8.358C-601.236,118.574-605.318,118.145-609.515,118.145Zm0,42.167a20.414,20.414,0,0,1-14.334-5.518,19.9,19.9,0,0,1-6-14.21,20.2,20.2,0,0,1,5.812-14.405c3.654-3.557,8.986-5.215,14.524-5.215a19.89,19.89,0,0,1,14.056,5.7,19.153,19.153,0,0,1,5.891,13.925,18.936,18.936,0,0,1-6.044,13.768A19.76,19.76,0,0,1-609.515,160.312Z" transform="translate(632.709 -118.145)" fill="#00558c"/>
        </g>
      </g>
      <g id="Group_31004" data-name="Group 31004" transform="translate(3.393 4.325)">
        <g id="Group_31003" data-name="Group 31003">
          <path id="Path_7928" data-name="Path 7928" d="M-617.651,127.707a28.564,28.564,0,0,0,5.756-17.165,28.489,28.489,0,0,0-2.447-11.149,28.845,28.845,0,0,0-6.277-9.533,29.937,29.937,0,0,0-9.544-6.617c-3.564-1.449-7.481-1.535-11.453-1.535s-8.014-.222-11.578,1.227-6.331,4.421-9.152,7.2a28.507,28.507,0,0,0-6.5,9.279c-1.487,3.523-2.805,7.2-2.805,11.131a29.181,29.181,0,0,0,5.346,17.334c-.775,1-2.245,2.369-3.125,3.514a4.7,4.7,0,0,0,.409,5.932,4.329,4.329,0,0,0,2.862,1.2,5.034,5.034,0,0,0,2.806-1.164c.968-.724,3.06-2.47,4.132-3.271a30.066,30.066,0,0,0,17.609,6.111A30.312,30.312,0,0,0-623.86,134.7c1.1.819,2.627,2.238,3.567,2.941.837.626,2.058.35,3.02.35,1.021,0,2.367.253,3.08-.45,1.443-1.418,1.4-4.268.039-6.037C-615,130.41-616.853,128.74-617.651,127.707Zm-43.89,4.636c-1.13.842-2.811,2-3.618,2.6-.3.227-.71.58-1.013.58-.229,0-.492-.294-.646-.446-.522-.513.236-1.258.35-1.405.736-.956,1.527-3.025,2.341-4.079.39.434.677,1.669,1.083,2.068C-662.726,131.974-661.886,132.033-661.542,132.343Zm19.925,4.72a27.261,27.261,0,0,1-13.357-3.583,27.184,27.184,0,0,1-10.058-9.533,26.277,26.277,0,0,1-3.5-13.4,25.728,25.728,0,0,1,3.9-13.163c2.37-3.983,5.374-7.839,9.448-10.138,3.924-2.214,8.722-2.53,13.562-2.53s9.627.336,13.551,2.55a27.611,27.611,0,0,1,9.9,9.854c2.317,3.894,3.129,8.6,3.129,13.426a25.078,25.078,0,0,1-3.864,12.989,25.739,25.739,0,0,1-9.683,9.377C-632.506,135.122-636.776,137.062-641.616,137.062Zm25.05-1.932a1.083,1.083,0,0,1-.7.189,2.036,2.036,0,0,1-1.134-.213c-.78-.584-2.2-1.891-3.324-2.726.373-.332.95-.611,1.3-.957.371-.366.872-1.313,1.225-1.7.807,1.044,1.256,3.228,1.964,4.149C-617.117,134.022-616.044,134.617-616.566,135.13Z" transform="translate(671.655 -81.696)" fill="#00558c"/>
        </g>
      </g>
      <g id="Group_31006" data-name="Group 31006" transform="translate(0)">
        <g id="Group_31005" data-name="Group 31005">
          <path id="Path_7929" data-name="Path 7929" d="M-672.329,60.162a10.928,10.928,0,0,0-7.74-3.073,11,11,0,0,0-7.805,3.024,10.687,10.687,0,0,0-3.087,7.711,10.692,10.692,0,0,0,3.1,7.709,1.553,1.553,0,0,0,1.129.254c.4,0,.9.077,1.183-.2,6.669-6.565,6.431-6.807,13.1-13.373.286-.283.593-.559.593-.961A1.567,1.567,0,0,0-672.329,60.162Zm-14.352,11.962a7.486,7.486,0,0,1-1.433-4.3,7.754,7.754,0,0,1,2.43-5.484,8.062,8.062,0,0,1,5.614-2.412,7.972,7.972,0,0,1,4.352,1.4C-679.423,68.092-680.672,67.3-686.681,72.124Z" transform="translate(690.962 -57.089)" fill="#00558c"/>
        </g>
      </g>
      <g id="Group_31008" data-name="Group 31008" transform="translate(47.682 0.043)">
        <g id="Group_31007" data-name="Group 31007">
          <path id="Path_7930" data-name="Path 7930" d="M-403.916,60.446a10.781,10.781,0,0,0-7.676-3.114,11.019,11.019,0,0,0-7.827,2.941,1.643,1.643,0,0,0-.259,1.178,1.434,1.434,0,0,0,.363,1.072c6.67,6.565,6.676,6.559,13.345,13.125a1.641,1.641,0,0,0,1.047.575,1.716,1.716,0,0,0,1.122-.5,10.608,10.608,0,0,0,3.017-7.7A10.433,10.433,0,0,0-403.916,60.446Zm-8.7-.717c-.214.028-.584.123-.8.165C-413.2,59.85-412.83,59.756-412.614,59.729Zm-1.127.284c-.169.046-.515.1-.682.151C-414.256,60.109-413.909,60.058-413.741,60.014Zm2.148.152a8.124,8.124,0,0,1,5.686,2.3,7.607,7.607,0,0,1,2.1,5.557,7.7,7.7,0,0,1-1.267,4.421c-6.01-4.825-6.006-4.954-10.931-10.882A8.176,8.176,0,0,1-411.592,60.165Z" transform="translate(419.679 -57.332)" fill="#00558c"/>
        </g>
      </g>
      <g id="Group_31012" data-name="Group 31012" transform="translate(20.414 19.792)">
        <g id="Group_31009" data-name="Group 31009" transform="translate(1.824 1.084)">
          <path id="Path_7931" data-name="Path 7931" d="M-564.443,175.867a1.072,1.072,0,0,1,.171.093A.9.9,0,0,0-564.443,175.867Zm.171.093a1.019,1.019,0,0,1,.156.12A.919.919,0,0,0-564.272,175.96Z" transform="translate(564.443 -175.867)" fill="#00558c"/>
        </g>
        <g id="Group_31010" data-name="Group 31010" transform="translate(1.828 1.088)">
          <path id="Path_7932" data-name="Path 7932" d="M-564.421,175.889a1.015,1.015,0,0,1,.167.089A.846.846,0,0,0-564.421,175.889Zm.167.084a1.052,1.052,0,0,1,.156.125A.949.949,0,0,0-564.254,175.973Z" transform="translate(564.421 -175.889)" fill="#00558c"/>
        </g>
        <g id="Group_31011" data-name="Group 31011">
          <path id="Path_7933" data-name="Path 7933" d="M-549.028,170.3a1.9,1.9,0,0,0-1.172-.6,1.847,1.847,0,0,0-1.085.653c-4.582,4.506-4.462,4.63-9.188,8.986a3.863,3.863,0,0,0-1.328-.376,5.181,5.181,0,0,0-1.641.616c-4.65-4.244-4.449-4.463-8.938-8.877-.285-.278-.58-.717-.979-.717s-.74.412-1.025.7a1.4,1.4,0,0,0,.011,2.039c4.474,4.4,4.771,4.117,9.077,8.682a5.213,5.213,0,0,0-.581,1.668,3.977,3.977,0,0,0,4.076,3.845,4.08,4.08,0,0,0,4.19-3.845,5.2,5.2,0,0,0-.744-1.792c4.338-4.636,4.507-4.484,9.034-8.935A1.44,1.44,0,0,0-549.028,170.3Zm-23.853.659c-.053-.035-.084-.179-.142-.2a1.268,1.268,0,0,1,.185.139c.055.035.228.054.275.1C-572.611,170.949-572.826,170.993-572.881,170.958Zm11.08,13.728a1.555,1.555,0,0,1-1.41-1.611,1.521,1.521,0,0,1,1.41-1.575,1.422,1.422,0,0,1,1.281,1.575A1.456,1.456,0,0,1-561.8,184.686Z" transform="translate(574.819 -169.697)" fill="#00558c"/>
        </g>
      </g>
    </g>
  </g>
</svg>
