<svg xmlns="http://www.w3.org/2000/svg" width="113.6" height="34.249" viewBox="0 0 113.6 34.249">
  <g id="Group_30991" data-name="Group 30991" transform="matrix(0.978, -0.208, 0.208, 0.978, -74.38, -405.843)">
    <path id="Path_7902" data-name="Path 7902" d="M26.127,431.748S6.3,433.74-9.207,422.434,12.635,457.107,26.127,431.748Z" transform="translate(0.69)" fill="#fff"/>
    <path id="Path_7903" data-name="Path 7903" d="M24.427,430.981s18.063,8.107,36.559,2.291S28.587,459.19,24.427,430.981Z" transform="translate(28.202 7.641)" fill="#fff"/>
    <path id="Path_7904" data-name="Path 7904" d="M17.9,437.452a47.744,47.744,0,0,1-25.26-7.414,38.983,38.983,0,0,1-6.173-4.632,1.069,1.069,0,0,1-.017-1.511,1.07,1.07,0,0,1,1.513-.019,37.52,37.52,0,0,0,5.81,4.347A45,45,0,0,0,26.6,434.462a1.07,1.07,0,1,1,.412,2.1A47.661,47.661,0,0,1,17.9,437.452Z" transform="translate(0 2.183)" fill="#00558c"/>
    <path id="Path_7904_-_Outline" data-name="Path 7904 - Outline" d="M17.9,437.952a46.646,46.646,0,0,1-14.652-2.373,50.562,50.562,0,0,1-10.872-5.117,39.294,39.294,0,0,1-6.258-4.7,1.572,1.572,0,0,1-.025-2.217,1.557,1.557,0,0,1,1.123-.474,1.565,1.565,0,0,1,1.1.445l.005,0A36.939,36.939,0,0,0-5.959,427.8a47.4,47.4,0,0,0,10.181,4.793,43.563,43.563,0,0,0,13.692,2.22,45.032,45.032,0,0,0,8.594-.841,1.61,1.61,0,0,1,.3-.029,1.57,1.57,0,0,1,.3,3.11A48.367,48.367,0,0,1,17.9,437.952Zm-30.685-13.88a.565.565,0,0,0-.407.172.571.571,0,0,0,.009.8,38.206,38.206,0,0,0,6.087,4.565A49.559,49.559,0,0,0,3.565,434.63,45.647,45.647,0,0,0,17.9,436.952a47.362,47.362,0,0,0,9.016-.882.574.574,0,0,0,.448-.671.561.561,0,0,0-.556-.458.6.6,0,0,0-.114.011,46.031,46.031,0,0,1-8.784.86,44.561,44.561,0,0,1-14.006-2.271,48.4,48.4,0,0,1-10.4-4.894,38.256,38.256,0,0,1-5.893-4.413h0A.57.57,0,0,0-12.781,424.072Z" transform="translate(0 2.183)" fill="#00558c"/>
    <path id="Path_7905" data-name="Path 7905" d="M-11.334,437.4a1.092,1.092,0,0,1-.382-.071,1.071,1.071,0,0,1-.617-1.381l3.479-9.106a1.067,1.067,0,0,1,1.381-.618,1.071,1.071,0,0,1,.617,1.381l-3.479,9.106A1.072,1.072,0,0,1-11.334,437.4Z" transform="translate(1.066 4.086)" fill="#00558c"/>
    <path id="Path_7905_-_Outline" data-name="Path 7905 - Outline" d="M-11.334,437.9a1.583,1.583,0,0,1-.558-.1,1.558,1.558,0,0,1-.874-.827,1.56,1.56,0,0,1-.034-1.2l3.479-9.106a1.575,1.575,0,0,1,1.465-1.011,1.563,1.563,0,0,1,.562.1,1.571,1.571,0,0,1,.9,2.026l-3.479,9.106A1.581,1.581,0,0,1-11.334,437.9Zm3.478-11.247a.571.571,0,0,0-.53.367l-3.479,9.107a.567.567,0,0,0,.013.436.563.563,0,0,0,.315.3.591.591,0,0,0,.2.038.574.574,0,0,0,.532-.369l3.479-9.105a.57.57,0,0,0-.328-.735A.568.568,0,0,0-7.857,426.656Z" transform="translate(1.066 4.086)" fill="#00558c"/>
    <path id="Path_7906" data-name="Path 7906" d="M-6.907,439.89a1.092,1.092,0,0,1-.354-.061,1.068,1.068,0,0,1-.655-1.363l3.229-9.2a1.072,1.072,0,0,1,1.363-.655,1.071,1.071,0,0,1,.655,1.363l-3.229,9.2A1.071,1.071,0,0,1-6.907,439.89Z" transform="translate(4.327 5.853)" fill="#00558c"/>
    <path id="Path_7906_-_Outline" data-name="Path 7906 - Outline" d="M-6.907,440.39a1.588,1.588,0,0,1-.517-.088,1.558,1.558,0,0,1-.9-.8,1.558,1.558,0,0,1-.066-1.2l3.229-9.2a1.571,1.571,0,0,1,1.482-1.049,1.579,1.579,0,0,1,.516.087,1.572,1.572,0,0,1,.964,2l-3.229,9.2A1.572,1.572,0,0,1-6.907,440.39Zm3.23-11.336a.57.57,0,0,0-.539.379l-3.229,9.2a.566.566,0,0,0,.024.436.563.563,0,0,0,.324.29.587.587,0,0,0,.19.033.571.571,0,0,0,.537-.381l3.229-9.2a.57.57,0,0,0-.348-.726A.578.578,0,0,0-3.677,429.054Z" transform="translate(4.327 5.853)" fill="#00558c"/>
    <path id="Path_7907" data-name="Path 7907" d="M-1.664,441.727a1.071,1.071,0,0,1-.255-.031,1.071,1.071,0,0,1-.787-1.292L-.4,430.942a1.071,1.071,0,0,1,2.081.505l-2.308,9.462A1.075,1.075,0,0,1-1.664,441.727Z" transform="translate(8.188 7.012)" fill="#00558c"/>
    <path id="Path_7907_-_Outline" data-name="Path 7907 - Outline" d="M-1.664,442.227a1.576,1.576,0,0,1-.374-.046,1.573,1.573,0,0,1-1.154-1.9l2.308-9.463a1.571,1.571,0,0,1,3.052.742L-.14,441.028A1.571,1.571,0,0,1-1.664,442.227Zm2.312-11.6a.574.574,0,0,0-.56.435l-2.308,9.461a.572.572,0,0,0,.42.688.569.569,0,0,0,.69-.422l2.308-9.46a.572.572,0,0,0-.421-.688A.567.567,0,0,0,.648,430.626Z" transform="translate(8.188 7.012)" fill="#00558c"/>
    <path id="Path_7908" data-name="Path 7908" d="M4.041,444.882a1.189,1.189,0,0,1-1.167-1.346L4.545,431.92a1.178,1.178,0,0,1,2.331.337L5.205,443.871A1.177,1.177,0,0,1,4.041,444.882Z" transform="translate(12.313 7.59)" fill="#00558c"/>
    <path id="Path_7908_-_Outline" data-name="Path 7908 - Outline" d="M4.041,445.382a1.708,1.708,0,0,1-1.345-.671,1.665,1.665,0,0,1-.317-1.247L4.05,431.849A1.66,1.66,0,0,1,5.7,430.411a1.726,1.726,0,0,1,.248.018,1.675,1.675,0,0,1,1.42,1.9L5.7,443.942A1.683,1.683,0,0,1,4.041,445.382ZM5.7,431.411a.667.667,0,0,0-.663.58L3.369,443.607a.673.673,0,0,0,.571.766.694.694,0,0,0,.1.009.679.679,0,0,0,.669-.581l1.671-11.615a.675.675,0,0,0-.573-.768A.73.73,0,0,0,5.7,431.411Z" transform="translate(12.313 7.59)" fill="#00558c"/>
    <g id="Group_30990" data-name="Group 30990" transform="translate(52.418 443.172)">
      <path id="Path_7909" data-name="Path 7909" d="M47.738,441.637A45.914,45.914,0,0,1,24.847,435.6a1.07,1.07,0,0,1,1.056-1.862,45.15,45.15,0,0,0,33.15,4.41,39.17,39.17,0,0,0,6.971-2.289,1.07,1.07,0,0,1,.92,1.931,40.41,40.41,0,0,1-7.4,2.437A51.156,51.156,0,0,1,47.738,441.637Z" transform="translate(-24.305 -433.601)" fill="#00558c"/>
      <path id="Path_7909_-_Outline" data-name="Path 7909 - Outline" d="M47.738,442.137a46.387,46.387,0,0,1-23.137-6.1,1.57,1.57,0,0,1,1.546-2.733A43.292,43.292,0,0,0,47.749,439a48.411,48.411,0,0,0,11.188-1.335,39.041,39.041,0,0,0,6.874-2.255,1.541,1.541,0,0,1,.671-.152,1.57,1.57,0,0,1,.679,2.987l-.006,0a41.324,41.324,0,0,1-7.491,2.469A51.56,51.56,0,0,1,47.738,442.137ZM25.375,434.1a.569.569,0,0,0-.281,1.065,45.4,45.4,0,0,0,22.644,5.972,50.559,50.559,0,0,0,11.694-1.4,40.25,40.25,0,0,0,7.3-2.4.569.569,0,0,0,.269-.759.574.574,0,0,0-.516-.326.552.552,0,0,0-.241.055l-.006,0a40.139,40.139,0,0,1-7.066,2.322A49.413,49.413,0,0,1,47.749,440a44.278,44.278,0,0,1-22.093-5.823A.581.581,0,0,0,25.375,434.1Z" transform="translate(-24.305 -433.601)" fill="#00558c"/>
      <path id="Path_7910" data-name="Path 7910" d="M45.109,448.043a1.07,1.07,0,0,1-1.068-1.049l-.2-9.7a1.068,1.068,0,0,1,1.046-1.091l.023,0a1.07,1.07,0,0,1,1.068,1.049l.2,9.7a1.07,1.07,0,0,1-1.047,1.091Z" transform="translate(-9.913 -431.685)" fill="#00558c"/>
      <path id="Path_7910_-_Outline" data-name="Path 7910 - Outline" d="M45.128,448.543h-.02A1.578,1.578,0,0,1,43.541,447l-.2-9.7a1.568,1.568,0,0,1,1.52-1.6l.048,0a1.578,1.578,0,0,1,1.568,1.539l.2,9.7a1.571,1.571,0,0,1-1.521,1.6ZM44.923,436.7H44.9a.568.568,0,0,0-.556.579l.2,9.7a.573.573,0,0,0,.552.559h.029a.57.57,0,0,0,.558-.581l-.2-9.7A.573.573,0,0,0,44.923,436.7Z" transform="translate(-9.913 -431.685)" fill="#00558c"/>
      <path id="Path_7911" data-name="Path 7911" d="M40.011,448.969H40a1.073,1.073,0,0,1-1.065-1.077l.066-9.709a1.071,1.071,0,0,1,1.07-1.063h.007a1.071,1.071,0,0,1,1.063,1.077l-.064,9.709A1.071,1.071,0,0,1,40.011,448.969Z" transform="translate(-13.523 -431.007)" fill="#00558c"/>
      <path id="Path_7911_-_Outline" data-name="Path 7911 - Outline" d="M40.011,449.469H40a1.576,1.576,0,0,1-1.565-1.58l.066-9.709a1.573,1.573,0,0,1,1.57-1.56h.007a1.575,1.575,0,0,1,1.563,1.58l-.064,9.709A1.576,1.576,0,0,1,40.011,449.469Zm.067-11.848h0a.571.571,0,0,0-.57.566l-.066,9.709a.573.573,0,0,0,.569.573h0a.573.573,0,0,0,.57-.567l.064-9.708A.572.572,0,0,0,40.077,437.621Z" transform="translate(-13.523 -431.007)" fill="#00558c"/>
      <path id="Path_7912" data-name="Path 7912" d="M34.473,448.939c-.038,0-.076,0-.116-.007a1.07,1.07,0,0,1-.95-1.178l1.026-9.67a1.07,1.07,0,0,1,2.128.228l-1.026,9.67A1.071,1.071,0,0,1,34.473,448.939Z" transform="translate(-17.604 -431.001)" fill="#00558c"/>
      <path id="Path_7912_-_Outline" data-name="Path 7912 - Outline" d="M34.473,449.439c-.059,0-.111,0-.157-.009H34.3a1.572,1.572,0,0,1-1.394-1.728l1.026-9.67a1.564,1.564,0,0,1,1.562-1.4c.053,0,.108,0,.161.008a1.573,1.573,0,0,1,1.4,1.728l-1.026,9.67A1.564,1.564,0,0,1,34.473,449.439Zm-.067-1,.067,0a.573.573,0,0,0,.564-.509l1.027-9.671a.571.571,0,0,0-.506-.628l-.06,0a.56.56,0,0,0-.567.507L33.9,447.808A.571.571,0,0,0,34.406,448.435Z" transform="translate(-17.604 -431.001)" fill="#00558c"/>
      <path id="Path_7913" data-name="Path 7913" d="M28.461,450.067a1.12,1.12,0,0,1-.238-.026,1.177,1.177,0,0,1-.917-1.389l2.355-11.5a1.177,1.177,0,0,1,2.306.472l-2.355,11.5A1.178,1.178,0,0,1,28.461,450.067Z" transform="translate(-22.112 -431.681)" fill="#00558c"/>
      <path id="Path_7913_-_Outline" data-name="Path 7913 - Outline" d="M28.461,450.567a1.621,1.621,0,0,1-.341-.037,1.677,1.677,0,0,1-1.3-1.979l2.355-11.5a1.674,1.674,0,0,1,1.981-1.306,1.675,1.675,0,0,1,1.3,1.98l-2.355,11.5A1.681,1.681,0,0,1,28.461,450.567Zm2.352-13.862a.681.681,0,0,0-.662.543l-2.355,11.5a.677.677,0,0,0,.527.8h.006a.621.621,0,0,0,.132.015.678.678,0,0,0,.661-.542l2.355-11.506a.68.68,0,0,0-.665-.814Z" transform="translate(-22.112 -431.681)" fill="#00558c"/>
    </g>
  </g>
</svg>
