<svg xmlns="http://www.w3.org/2000/svg" width="81.095" height="67.242" viewBox="0 0 81.095 67.242">
  <g id="Group_30989" data-name="Group 30989" transform="translate(35.232 -384.521)">
    <g id="Group_30988" data-name="Group 30988" transform="translate(-10.678 384.52)">
      <path id="Path_7899" data-name="Path 7899" d="M-21.44,422.036a1.5,1.5,0,0,1-1.17-.563,1.5,1.5,0,0,1-.2-1.536l11.059-25.069-10.754,2.254a1.5,1.5,0,0,1-1.144-.225,1.5,1.5,0,0,1-.635-.979l-1.415-8.051a1.508,1.508,0,0,1,.3-1.182,1.5,1.5,0,0,1,1.077-.568L.2,384.522a1.526,1.526,0,0,1,1.309.612,1.507,1.507,0,0,1,.181,1.433l-9.5,23.8,8.985-1.841A1.494,1.494,0,0,1,2.944,409.7l1.144,5.828a1.5,1.5,0,0,1-1.18,1.756l-24.062,4.728A1.541,1.541,0,0,1-21.44,422.036ZM-9.207,391.31a1.5,1.5,0,0,1,1.162.555,1.5,1.5,0,0,1,.207,1.544l-11.077,25.11L.866,414.633.3,411.754l-10.225,2.1a1.513,1.513,0,0,1-1.449-.506,1.492,1.492,0,0,1-.243-1.513l9.654-24.173-20.5,1.335.857,4.885,12.094-2.536A1.4,1.4,0,0,1-9.207,391.31Z" transform="translate(25.722 -384.52)" fill="#00558c"/>
    </g>
    <path id="Path_7900" data-name="Path 7900" d="M-20.852,436.7a1.488,1.488,0,0,1-.767-.212,1.485,1.485,0,0,1-.728-1.33l.86-26.969-7.986,5.389a1.528,1.528,0,0,1-1.232.2,1.5,1.5,0,0,1-.955-.8l-3.426-7.194a1.5,1.5,0,0,1,.7-1.991l19.975-9.608a1.49,1.49,0,0,1,1.443.08,1.493,1.493,0,0,1,.7,1.263l.1,25.265,8.557-5.575a1.491,1.491,0,0,1,1.8.127l5.639,4.908a1.5,1.5,0,0,1-.227,2.419L-20.1,436.5A1.5,1.5,0,0,1-20.852,436.7Zm.953-32.88a1.5,1.5,0,0,1,.723.186,1.5,1.5,0,0,1,.772,1.358l-.868,27.189L.284,421.144l-3.215-2.8-9.91,6.46a1.5,1.5,0,0,1-1.526.062,1.49,1.49,0,0,1-.785-1.309l-.1-25.647-16.5,7.935,2.04,4.281,8.973-6.05A1.49,1.49,0,0,1-19.9,403.821Z" transform="translate(0 15.062)" fill="#00558c"/>
    <path id="Path_7901" data-name="Path 7901" d="M-3.913,425.754a1.491,1.491,0,0,1-1.022-.4l-9.791-9.146a1.494,1.494,0,0,1-.07-2.112,1.491,1.491,0,0,1,2.112-.07l8.707,8.131,3.3-3.486-6.6-5.18a1.488,1.488,0,0,1-.571-1.237,1.5,1.5,0,0,1,.674-1.188L9.849,399.908l-12.957-7.661-1.547,2.489,7.093,3.808a1.5,1.5,0,0,1,.031,2.618l-10.387,5.9a1.494,1.494,0,0,1-2.04-.563,1.5,1.5,0,0,1,.563-2.037l8.033-4.562-6.112-3.284a1.5,1.5,0,0,1-.736-.932,1.509,1.509,0,0,1,.173-1.177l3.163-5.081a1.494,1.494,0,0,1,2.032-.5l16.28,9.626a1.5,1.5,0,0,1,.057,2.538l-17.287,11.33,6.249,4.908a1.474,1.474,0,0,1,.565,1.064,1.491,1.491,0,0,1-.4,1.139l-5.445,5.755A1.5,1.5,0,0,1-3.913,425.754Z" transform="translate(31.691 6.643)" fill="#00558c"/>
  </g>
</svg>
