<svg xmlns="http://www.w3.org/2000/svg" width="51.963" height="51.675" viewBox="0 0 51.963 51.675">
  <g id="Group_31123" data-name="Group 31123" transform="translate(-164.186 -713)">
    <g id="Group_31063" data-name="Group 31063" transform="translate(-1396.932 -353.185)">
      <g id="Group_31053" data-name="Group 31053" transform="translate(1601.093 1070.326)">
        <path id="Path_7977" data-name="Path 7977" d="M10.251,1.188a1.091,1.091,0,0,0,.11-2.167L.557-2.515A1.094,1.094,0,0,0-.69-1.6,1.091,1.091,0,0,0,.219-.358l9.806,1.535a1.069,1.069,0,0,0,.226.012" transform="translate(0.703 2.528)" fill="#2e3540"/>
      </g>
      <g id="Group_31054" data-name="Group 31054" transform="translate(1605.275 1066.185)">
        <path id="Path_7978" data-name="Path 7978" d="M-.516,3.837A1.092,1.092,0,0,0,.5,2.906L1.936-6.911a1.091,1.091,0,0,0-.92-1.238,1.094,1.094,0,0,0-1.238.92L-1.665,2.59a1.092,1.092,0,0,0,.92,1.238,1.192,1.192,0,0,0,.228.009" transform="translate(1.676 8.161)" fill="#2e3540"/>
      </g>
    </g>
    <g id="Group_31062" data-name="Group 31062" transform="translate(164.686 733.684)">
      <path id="Path_7979" data-name="Path 7979" d="M-10.04,12.62c2.234.527,4.777-.107,7.039-.24.748-.044,2.45-.333,3.062.309.5.519.147,2.417.161,3.119.022,1.2.074,2.406.1,3.611.019.858-.295,3.193.516,3.679.89.533,1.655-1.12,2.059-1.734.686-1.046,1.4-2.079,2.027-3.163a25.329,25.329,0,0,1,1.841-2.953c.787-1.005.994-.978,2.095-.6,2.212.746,4.49,1.549,6.738,2.152.9.24,2.292.538,3.13-.063.994-.71-.194-2.158-.615-2.9a61.081,61.081,0,0,0-3.646-6.32c-.2-.268-.751-.822-.765-1.2-.019-.426.5-1.024.71-1.344.713-1.1,1.439-2.163,2.234-3.2.5-.653,1.011-1.3,1.5-1.958.287-.382.839-.88.918-1.382.254-1.622-2.057-.89-2.786-.759a18.674,18.674,0,0,0-2.256.645c-.852.322-1.685.7-2.551.981-.62.2-1.723.628-2.349.281a9.046,9.046,0,0,1-1.71-1.855C6.118-3.725,4.887-5.243,3.5-6.6c-.718-.7-1.418-1.136-1.915.046a12.9,12.9,0,0,0-.576,2.969A52.719,52.719,0,0,1-.4,2.588,4.434,4.434,0,0,1-.729,3.716,6.106,6.106,0,0,1-2,4.628c-.765.563-1.516,1.139-2.267,1.721C-5.61,7.387-7.006,8.269-8.391,9.23c-.519.358-3.584,2.934-1.65,3.39h0M-6.5,9.973c1.259-.787,2.417-1.7,3.6-2.608q.951-.733,1.915-1.445C-.478,5.551.6,5.065.891,4.491c.142-.281.049-.453.071-.729a6.008,6.008,0,0,1,.246-1.109c.221-.792.432-1.59.625-2.39.415-1.743.65-3.5.967-5.258C3.89-3.883,4.895-2.684,5.927-1.512c.789.9,1.8,2.483,2.972,2.794A6.758,6.758,0,0,0,12.745.624c.675-.257,1.336-.549,2.013-.795.339-.123.677-.24,1.024-.333.115-.033,1.093-.227.492-.126.533-.1-.188.508-.35.718-.235.3-.47.606-.7.912-.505.661-1,1.33-1.464,2.027-.768,1.161-1.991,2.54-1.456,4.059a9.171,9.171,0,0,0,1.235,1.882c.41.617.754,1.295,1.109,1.953.808,1.491,1.669,2.947,2.486,4.433-1.6-.052-3.215-.92-4.728-1.409-.8-.257-1.6-.462-2.406-.694a7.154,7.154,0,0,0-2.349-.623c-1.429.1-2.477,2.032-3.168,3.174-.855,1.407-1.7,2.8-2.584,4.182-.044-1.592-.115-3.193-.112-4.785,0-1.415.259-3.291-1.1-4.07-1.251-.718-2.955-.5-4.318-.407-1.5.109-3,.309-4.5.366A18.218,18.218,0,0,1-6.5,9.973c.317-.2-.56.35,0,0" transform="translate(10.674 7.289)" fill="#2e3540"/>
      <path id="Path_7979_-_Outline" data-name="Path 7979 - Outline" d="M1.19,23.7a1.178,1.178,0,0,1-.611-.175c-.9-.539-.832-2.149-.777-3.443.011-.265.021-.494.017-.654-.012-.573-.03-1.155-.047-1.719-.019-.621-.039-1.262-.051-1.894,0-.211.019-.491.045-.815a12.086,12.086,0,0,0,.059-1.292c-.018-.553-.125-.674-.126-.675-.092-.1-.362-.257-1.144-.257-.374,0-.77.036-1.088.066-.161.015-.312.029-.44.036-.648.038-1.313.118-2.017.2a26.142,26.142,0,0,1-3.078.245A9.649,9.649,0,0,1-9.71,13.2a.452.452,0,0,1-.12-.015h0l-.113-.027-.1-.023-.072-.017-.022-.005h0l-.117-.027v0a1.135,1.135,0,0,1-.9-.872c-.105-.56.236-1.251,1.044-2.111A10.828,10.828,0,0,1-8.674,8.819c.434-.3.875-.6,1.3-.887.928-.626,1.888-1.274,2.8-1.978C-3.863,5.4-3.1,4.814-2.3,4.225c.135-.1.293-.194.461-.295a2.852,2.852,0,0,0,.7-.509,2.634,2.634,0,0,0,.163-.593c.028-.136.054-.265.086-.377A52.157,52.157,0,0,0,.52-3.662c.039-.248.071-.5.1-.769a8.649,8.649,0,0,1,.505-2.314c.291-.693.708-1.044,1.239-1.044a2.348,2.348,0,0,1,1.486.833c.984.965,1.9,2.021,2.788,3.042.373.43.76.874,1.144,1.3.157.176.317.382.487.6A4.768,4.768,0,0,0,9.365-.86a.742.742,0,0,0,.353.068,5.008,5.008,0,0,0,1.4-.321l.2-.067c.534-.172,1.073-.39,1.594-.6.3-.124.619-.251.934-.37a19.077,19.077,0,0,1,2.347-.67c.077-.014.185-.038.31-.066a7.3,7.3,0,0,1,1.522-.22,1.6,1.6,0,0,1,1.274.469,1.363,1.363,0,0,1,.259,1.145,2.865,2.865,0,0,1-.771,1.314c-.091.106-.177.206-.241.291-.32.431-.654.861-.977,1.278q-.265.342-.528.685c-.7.9-1.378,1.88-2.212,3.164-.051.079-.114.166-.181.258a2.536,2.536,0,0,0-.449.791,2.792,2.792,0,0,0,.466.675c.079.094.147.176.2.251a35.507,35.507,0,0,1,2.655,4.475c.333.629.678,1.28,1.024,1.9.06.107.144.24.233.38a6.15,6.15,0,0,1,.741,1.446,1.453,1.453,0,0,1-.5,1.73,2.721,2.721,0,0,1-1.614.446,7.78,7.78,0,0,1-1.936-.307c-1.912-.513-3.851-1.172-5.726-1.808L8.7,15.118a3.2,3.2,0,0,0-.807-.213c-.128,0-.263.048-.735.651A18.673,18.673,0,0,0,5.7,17.844q-.174.3-.348.607c-.494.849-1.041,1.674-1.57,2.472q-.236.356-.471.713c-.056.085-.122.2-.2.323C2.679,22.7,2.081,23.7,1.19,23.7ZM-1.445,11.777a2.459,2.459,0,0,1,1.867.566c.481.5.442,1.495.341,2.74-.023.285-.045.553-.042.715.011.626.031,1.264.051,1.882.018.566.036,1.151.048,1.729,0,.191-.006.435-.018.718A12.253,12.253,0,0,0,.808,21.8c.073.708.25.848.285.869a.181.181,0,0,0,.1.033c.322,0,.863-.91,1.066-1.252.079-.133.153-.258.221-.361q.235-.358.473-.717c.521-.786,1.059-1.6,1.539-2.423q.173-.3.344-.6A19.418,19.418,0,0,1,6.37,14.939c.458-.585.861-1.034,1.522-1.034a3.642,3.642,0,0,1,1.128.265l1.043.353c1.86.632,3.784,1.285,5.664,1.79a6.851,6.851,0,0,0,1.677.273,1.763,1.763,0,0,0,1.032-.259c.381-.272.118-.852-.5-1.828-.1-.151-.186-.294-.259-.424-.353-.627-.7-1.284-1.037-1.919a34.772,34.772,0,0,0-2.576-4.35c-.037-.05-.1-.124-.164-.2a2.415,2.415,0,0,1-.7-1.276,2.5,2.5,0,0,1,.638-1.418c.059-.082.115-.159.152-.216.837-1.29,1.555-2.316,2.257-3.228.176-.229.353-.459.531-.688.32-.413.65-.839.966-1.264.085-.114.182-.226.285-.345a2.27,2.27,0,0,0,.54-.816.475.475,0,0,0-.031-.34c-.024-.028-.132-.12-.514-.12a6.534,6.534,0,0,0-1.306.2c-.136.03-.253.056-.352.074a18.425,18.425,0,0,0-2.168.62c-.3.115-.612.24-.911.361-.538.218-1.094.444-1.664.627l-.2.064A5.738,5.738,0,0,1,9.718.209,1.71,1.71,0,0,1,8.88.015,5.333,5.333,0,0,1,7.483-1.4c-.158-.2-.308-.4-.442-.546-.389-.435-.778-.882-1.153-1.315C5.013-4.264,4.11-5.3,3.154-6.241c-.488-.477-.7-.548-.787-.548-.068,0-.192.133-.317.431a7.916,7.916,0,0,0-.435,2.049c-.033.265-.067.538-.109.8A53.129,53.129,0,0,1,.076,2.725c-.021.074-.043.185-.067.3a2.627,2.627,0,0,1-.333.981,3.327,3.327,0,0,1-1,.78c-.147.088-.285.171-.382.242C-2.494,5.613-3.255,6.2-3.96,6.744-4.9,7.468-5.871,8.125-6.813,8.76c-.424.286-.863.583-1.293.881a10,10,0,0,0-1.33,1.2c-.7.759-.758,1.13-.736,1.188h0s.044.058.245.106l.015,0a8.072,8.072,0,0,0,1.844.189,25.4,25.4,0,0,0,2.959-.238c.688-.082,1.4-.167,2.077-.207.112-.007.248-.019.407-.034C-2.286,11.815-1.865,11.777-1.445,11.777ZM1.9,20.484A.5.5,0,0,1,1.4,20q-.018-.642-.039-1.285c-.037-1.152-.075-2.343-.073-3.515,0-.193.005-.387.01-.593.03-1.236.062-2.514-.862-3.041a4.257,4.257,0,0,0-2.159-.447c-.5,0-1,.038-1.478.075l-.4.03c-.572.042-1.16.1-1.728.153-.912.088-1.856.178-2.789.214a.5.5,0,0,1-.488-.326.5.5,0,0,1,.159-.565,16.84,16.84,0,0,1,1.5-1.029h0l.056-.035.07-.044.1-.059.03-.019h0c1.082-.681,2.076-1.446,3.128-2.255l.372-.286C-2.468,6.4-1.856,5.94-1.279,5.517c.164-.12.369-.243.585-.372A3.582,3.582,0,0,0,.444,4.266c.031-.061.031-.084.022-.22a2.09,2.09,0,0,1,0-.324A6.177,6.177,0,0,1,.715,2.555l.011-.039C.96,1.681,1.163.9,1.347.145c.283-1.189.487-2.416.684-3.6.088-.532.179-1.082.277-1.626a.5.5,0,0,1,.345-.389.5.5,0,0,1,.5.128c.837.854,1.634,1.769,2.4,2.653.243.279.494.567.742.849.178.2.36.431.554.673C7.485-.383,8.268.6,9.028.8A2.66,2.66,0,0,0,9.71.882,8.69,8.69,0,0,0,12.567.156c.288-.11.582-.229.866-.345.375-.153.763-.31,1.154-.452.332-.12.69-.246,1.063-.345.053-.015.155-.037.366-.082l.029-.006a.5.5,0,0,1,.14-.047l.029,0a1.5,1.5,0,0,1,.251-.032.5.5,0,0,1,.5.444.49.49,0,0,1,0,.085c.031.317-.227.584-.5.864-.053.055-.127.131-.147.158-.232.3-.47.606-.7.91-.445.582-.964,1.274-1.446,2-.111.168-.228.335-.351.512-.7,1-1.424,2.041-1.05,3.1a4.429,4.429,0,0,0,.73,1.162c.151.195.307.4.449.608.351.528.653,1.095.945,1.642l.188.351c.436.8.9,1.614,1.341,2.4.377.664.767,1.35,1.143,2.033a.5.5,0,0,1-.454.741,10.925,10.925,0,0,1-3.528-.941c-.465-.181-.9-.352-1.337-.492-.515-.166-1.048-.314-1.563-.456-.271-.075-.551-.153-.828-.233-.251-.072-.5-.168-.742-.26a3.971,3.971,0,0,0-1.33-.348c-.035,0-.069,0-.1,0-1.067.078-2,1.642-2.622,2.677l-.154.257-.135.222c-.793,1.306-1.614,2.656-2.456,3.97A.5.5,0,0,1,1.9,20.484ZM-1.727,10.115a5.188,5.188,0,0,1,2.656.58c1.441.823,1.4,2.548,1.364,3.934,0,.2-.01.389-.01.57,0,1.038.029,2.1.061,3.133.534-.859,1.059-1.723,1.573-2.569l.135-.222L4.2,15.29c.726-1.213,1.822-3.046,3.408-3.161.057,0,.116-.006.174-.006a4.752,4.752,0,0,1,1.686.414c.233.089.452.172.663.233.272.079.549.155.818.23.525.146,1.068.3,1.6.468.462.149.935.334,1.393.512a15.378,15.378,0,0,0,2.263.751c-.219-.39-.439-.777-.656-1.158-.448-.787-.91-1.6-1.351-2.415l-.19-.355c-.281-.527-.572-1.072-.9-1.559-.121-.181-.26-.36-.406-.549a5.243,5.243,0,0,1-.882-1.441C11.285,5.705,12.238,4.34,13,3.243c.12-.172.233-.334.338-.492.5-.752,1.03-1.46,1.484-2.055.126-.166.253-.332.381-.5l-.277.1c-.373.135-.752.289-1.118.439-.289.118-.588.24-.888.354a9.436,9.436,0,0,1-3.213.791,3.658,3.658,0,0,1-.939-.116,6.043,6.043,0,0,1-2.7-2.31C5.889-.778,5.713-1,5.551-1.183c-.249-.283-.5-.572-.745-.852C4.259-2.663,3.7-3.307,3.123-3.929c-.036.214-.071.426-.106.635-.2,1.2-.406,2.448-.7,3.673-.187.773-.393,1.56-.63,2.409l-.012.042A5.377,5.377,0,0,0,1.46,3.8a1.2,1.2,0,0,0,0,.174,1.293,1.293,0,0,1-.127.739A3.878,3.878,0,0,1-.179,6c-.2.118-.382.229-.509.322-.57.418-1.175.874-1.9,1.437l-.372.286c-1.044.8-2.123,1.634-3.272,2.351h0l-.1.065c.307-.028.613-.057.915-.086.574-.055,1.167-.112,1.752-.155l.394-.029C-2.779,10.155-2.261,10.115-1.727,10.115Z" transform="translate(10.674 7.289)" fill="#2e3540"/>
    </g>
  </g>
</svg>
