<svg xmlns="http://www.w3.org/2000/svg" width="592.947" height="1018.008" viewBox="0 0 592.947 1018.008">
  <g id="Group_31097" data-name="Group 31097" transform="translate(-659.21 -512.83)">
    <g id="Group_31028" data-name="Group 31028" transform="translate(944.778 901.497)">
      <path id="Path_7952" data-name="Path 7952" d="M29.621,12.192c-2.2.645-4.777.142-7.044.128-.748-.005-2.464-.2-3.04.47-.467.544-.019,2.423.005,3.122.038,1.2.052,2.406.087,3.611.027.858.464,3.171-.322,3.7-.86.579-1.71-1.03-2.147-1.625-.74-1.005-1.5-2-2.188-3.051A25.832,25.832,0,0,0,12.979,15.7c-.839-.961-1.043-.923-2.125-.494-2.169.86-4.4,1.784-6.615,2.5-.882.287-2.259.658-3.13.1-1.03-.658.082-2.166.462-2.931a61.267,61.267,0,0,1,3.31-6.5c.183-.279.707-.863.7-1.24,0-.429-.554-1-.778-1.3-.77-1.063-1.551-2.087-2.4-3.076C1.87,2.13,1.327,1.512.8.879.5.51-.083.043-.187-.454c-.341-1.606,2-1,2.74-.9a18.515,18.515,0,0,1,2.289.524c.869.279,1.721.615,2.6.847C8.07.18,9.2.548,9.8.169a9.038,9.038,0,0,0,1.609-1.939c1.218-1.516,2.368-3.095,3.679-4.52.677-.74,1.355-1.21,1.915-.052a12.973,12.973,0,0,1,.729,2.931,52.886,52.886,0,0,0,1.737,6.088,4.485,4.485,0,0,0,.385,1.112,6.15,6.15,0,0,0,1.317.844c.792.522,1.573,1.06,2.354,1.6C24.923,7.2,26.362,8,27.8,8.893c.538.333,3.734,2.742,1.825,3.3-.918.268.473-.137,0,0M25.947,9.734c-1.3-.718-2.5-1.571-3.734-2.417-.658-.453-1.319-.9-1.988-1.341-.522-.341-1.625-.77-1.945-1.33-.158-.273-.074-.451-.109-.721a6.288,6.288,0,0,0-.3-1.1c-.265-.778-.516-1.562-.748-2.354-.508-1.715-.833-3.455-1.243-5.2C14.847-3.56,13.9-2.309,12.938-1.085c-.743.94-1.672,2.573-2.824,2.944A6.73,6.73,0,0,1,6.24,1.4C5.552,1.185,4.877.928,4.186.715,3.845.611,3.5.513,3.148.436c-.117-.025-1.1-.169-.5-.1-.535-.066.216.5.388.7.251.29.5.582.748.874.538.634,1.071,1.276,1.568,1.947C6.18,4.976,7.475,6.29,7.019,7.836A9.078,9.078,0,0,1,5.885,9.778c-.377.639-.683,1.336-1.005,2.008-.729,1.532-1.513,3.032-2.251,4.559,1.6-.137,3.163-1.087,4.649-1.655.781-.3,1.576-.544,2.365-.817a7.168,7.168,0,0,1,2.313-.746c1.431.027,2.578,1.9,3.332,3,.926,1.36,1.841,2.7,2.8,4.04-.041-1.592-.052-3.2-.139-4.785-.076-1.412-.429-3.272.89-4.122,1.213-.781,2.925-.658,4.291-.631,1.5.027,3.015.15,4.515.128a18.546,18.546,0,0,0-1.7-1.027c-.328-.18.576.32,0,0" transform="translate(0.22 7.042)" fill="#2e3540"/>
      <path id="Path_7952_-_Outline" data-name="Path 7952 - Outline" d="M18.926,23.848c-.861,0-1.494-.949-1.955-1.641-.082-.124-.154-.23-.213-.312l-.434-.587c-.594-.8-1.209-1.63-1.769-2.486-.136-.207-.274-.421-.406-.627A18.493,18.493,0,0,0,12.6,16.026c-.446-.512-.612-.612-.747-.612a2.934,2.934,0,0,0-.817.253l-1.027.409c-1.838.734-3.738,1.493-5.618,2.1a7.138,7.138,0,0,1-2.134.414,2.6,2.6,0,0,1-1.42-.367,1.454,1.454,0,0,1-.593-1.7,6.142,6.142,0,0,1,.663-1.481c.081-.145.158-.282.213-.392.316-.636.627-1.307.928-1.955A35.462,35.462,0,0,1,4.463,8.1c.05-.076.114-.161.188-.26a2.818,2.818,0,0,0,.432-.7,2.532,2.532,0,0,0-.491-.769c-.07-.086-.136-.168-.19-.242C3.52,4.912,2.766,3.945,2.026,3.08q-.267-.312-.536-.622C1.136,2.049.769,1.625.415,1.2.344,1.113.251,1.015.152.911A2.837,2.837,0,0,1-.676-.352,1.348,1.348,0,0,1-.461-1.531,1.718,1.718,0,0,1,.962-2.048,8.315,8.315,0,0,1,2.3-1.9c.126.021.235.039.315.049a18.954,18.954,0,0,1,2.378.544c.319.1.637.213.944.319.534.185,1.086.377,1.629.521l.2.056A5.545,5.545,0,0,0,9.1-.166a.858.858,0,0,0,.437-.09,4.779,4.779,0,0,0,1.032-1.207c.157-.225.305-.438.453-.621.357-.444.715-.9,1.061-1.346.836-1.071,1.7-2.179,2.64-3.2a2.248,2.248,0,0,1,1.5-.912c.506,0,.922.33,1.237.981a8.629,8.629,0,0,1,.622,2.273c.048.268.092.522.146.771a52.287,52.287,0,0,0,1.721,6.03c.04.114.074.247.11.387a2.583,2.583,0,0,0,.19.572,2.838,2.838,0,0,0,.725.47c.174.092.339.179.48.272.81.533,1.611,1.086,2.363,1.606.946.655,1.938,1.251,2.9,1.827.442.266.9.54,1.351.819.029.018,2.844,1.856,2.653,3.256a1.119,1.119,0,0,1-.8.9l-.063.023v0l-.075.022-.129.038-.161.046-.046.013h0a.463.463,0,0,1-.124.022,10.727,10.727,0,0,1-2.4.234c-.774,0-1.557-.052-2.315-.1-.711-.048-1.382-.092-2.035-.1-.126,0-.275-.007-.432-.013-.214-.008-.456-.018-.7-.018-1.028,0-1.4.177-1.523.326,0,0-.1.129-.09.685a12.173,12.173,0,0,0,.128,1.289c.043.319.08.6.088.8.02.641.034,1.291.047,1.92.012.556.024,1.13.04,1.694.005.158.027.384.052.646.124,1.29.278,2.9-.595,3.484A1.168,1.168,0,0,1,18.926,23.848Zm-7.071-9.434c.619,0,1.029.414,1.5.954a19.238,19.238,0,0,1,1.633,2.286c.131.2.267.415.4.619.544.833,1.15,1.649,1.736,2.439l.437.59c.074.1.154.221.24.349.239.358.8,1.2,1.123,1.2a.173.173,0,0,0,.1-.039c.034-.023.205-.173.24-.886a12.222,12.222,0,0,0-.083-1.673c-.027-.279-.05-.52-.056-.711-.017-.569-.029-1.146-.041-1.7-.013-.626-.027-1.273-.047-1.907-.006-.158-.041-.424-.079-.7-.167-1.24-.259-2.231.194-2.759a3.011,3.011,0,0,1,2.282-.675c.266,0,.519.01.742.019.156.006.29.011.4.012.682,0,1.4.052,2.095.1.741.05,1.508.1,2.248.1a9.016,9.016,0,0,0,2.549-.305l.008,0h0c.2-.058.24-.119.241-.12.019-.058-.059-.425-.8-1.146a10.163,10.163,0,0,0-1.391-1.129c-.445-.276-.9-.549-1.339-.812-.973-.584-1.979-1.188-2.952-1.862C22.5,6.126,21.7,5.577,20.9,5.049c-.1-.067-.244-.143-.4-.223A3.319,3.319,0,0,1,19.468,4.1a2.53,2.53,0,0,1-.382-.952c-.031-.12-.06-.233-.087-.309a53.279,53.279,0,0,1-1.754-6.148c-.057-.267-.106-.541-.153-.806a7.9,7.9,0,0,0-.538-2.013c-.138-.286-.271-.416-.336-.416s-.273.057-.759.588c-.912.991-1.764,2.083-2.588,3.139-.348.446-.709.908-1.07,1.357-.126.157-.265.356-.411.567A5.34,5.34,0,0,1,10.067.593,1.8,1.8,0,0,1,9.1.834,6.3,6.3,0,0,1,7.507.55L7.312.5c-.58-.154-1.15-.351-1.7-.543-.3-.1-.614-.213-.921-.311a18.3,18.3,0,0,0-2.2-.5c-.1-.013-.221-.033-.358-.056A7.526,7.526,0,0,0,.962-1.048c-.388,0-.588.076-.645.147A.465.465,0,0,0,.3-.558,2.239,2.239,0,0,0,.876.221c.112.118.218.229.31.341C1.532.978,1.9,1.4,2.247,1.8q.27.312.539.625c.758.886,1.528,1.873,2.423,3.107.038.052.1.124.159.2A2.5,2.5,0,0,1,6.082,7.13,2.432,2.432,0,0,1,5.45,8.439c-.061.082-.119.158-.152.21a34.724,34.724,0,0,0-2.341,4.47c-.3.655-.618,1.332-.94,1.979-.066.133-.149.281-.237.437-.565,1.006-.8,1.6-.4,1.85a1.627,1.627,0,0,0,.881.21,6.347,6.347,0,0,0,1.825-.365c1.849-.6,3.733-1.353,5.556-2.081l1.029-.41A3.305,3.305,0,0,1,11.855,14.414Zm6.773,7.373-.948-1.325c-.964-1.347-1.9-2.721-2.8-4.049l-.18-.266c-.671-1-1.686-2.5-2.748-2.52h-.023a3.708,3.708,0,0,0-1.4.423c-.234.1-.475.21-.719.295-.273.094-.548.186-.814.275-.508.169-1.033.344-1.538.537-.424.162-.853.355-1.307.56a10.967,10.967,0,0,1-3.478,1.126l-.875.075.382-.791c.34-.7.694-1.41,1.037-2.095.4-.8.82-1.636,1.213-2.461.072-.149.142-.3.212-.448.25-.532.509-1.081.814-1.6.131-.22.275-.428.416-.629a4.407,4.407,0,0,0,.67-1.2c.319-1.082-.46-2.081-1.213-3.047-.132-.169-.256-.329-.376-.49-.5-.679-1.04-1.325-1.547-1.921-.219-.26-.455-.536-.745-.87-.025-.03-.1-.1-.159-.154C2.214.946,1.942.693,1.958.374a.5.5,0,0,1,0-.1L2-.181h.463A2.085,2.085,0,0,1,2.7-.16h.012l0,.016.212.034c.2.031.286.046.331.055.406.089.79.2,1.081.29.38.117.755.247,1.117.373.309.107.629.218.943.317a9.4,9.4,0,0,0,2.7.581,2.806,2.806,0,0,0,.863-.124c.747-.241,1.477-1.256,2.063-2.072.183-.254.355-.494.523-.707q.333-.421.664-.846c.733-.937,1.49-1.907,2.293-2.816l.64-.725.221.942c.127.541.248,1.089.364,1.618.258,1.171.525,2.383.871,3.552.219.749.462,1.512.742,2.335l.035.106a6,6,0,0,1,.29,1.086,2.054,2.054,0,0,1,.013.323c0,.134,0,.157.033.215a3.554,3.554,0,0,0,1.183.821c.223.118.433.23.6.341.708.462,1.407.941,2,1.348l.35.241c1.126.778,2.19,1.512,3.342,2.15l.024.013.025.014.105.058.013.007.025.014a17.531,17.531,0,0,1,1.55.949l1.26.886-1.54.022c-.917.013-1.849-.027-2.749-.066-.586-.025-1.192-.052-1.783-.062l-.375-.009c-.279-.007-.567-.015-.856-.015a5.208,5.208,0,0,0-2.78.575c-.9.576-.8,1.852-.7,3.086.016.2.03.4.041.589.063,1.148.087,2.318.11,3.449.009.443.018.9.03,1.35Zm-6.7-9.16h.041c1.583.03,2.772,1.794,3.559,2.96l.177.262c.6.886,1.22,1.792,1.848,2.695-.021-1.034-.046-2.095-.1-3.131-.01-.181-.024-.368-.039-.567-.106-1.383-.238-3.1,1.158-4a6.076,6.076,0,0,1,3.322-.734c.3,0,.6.008.882.015l.368.009c.6.011,1.215.037,1.807.063.286.012.576.025.868.036l-.065-.036-.082-.045-.019-.011-.009,0h0c-1.171-.654-2.283-1.422-3.36-2.165l-.349-.241c-.586-.4-1.279-.878-1.978-1.334-.132-.086-.323-.188-.525-.3a3.869,3.869,0,0,1-1.581-1.206,1.277,1.277,0,0,1-.166-.732,1.164,1.164,0,0,0,0-.171,5.2,5.2,0,0,0-.247-.9l-.035-.1c-.284-.834-.531-1.611-.754-2.372-.356-1.2-.627-2.431-.888-3.619-.046-.211-.093-.424-.141-.639C15.057-2.982,14.52-2.3,14-1.625q-.333.426-.667.85c-.154.195-.32.426-.5.67a6.026,6.026,0,0,1-2.567,2.44A3.8,3.8,0,0,1,9.1,2.508a10.146,10.146,0,0,1-3.009-.628c-.325-.1-.65-.216-.966-.325-.355-.123-.721-.25-1.083-.361L3.76,1.11c.146.171.28.328.408.48.517.608,1.068,1.27,1.587,1.972.112.151.233.306.36.47C6.939,5.087,7.963,6.4,7.5,7.977a5.224,5.224,0,0,1-.808,1.489c-.136.2-.264.38-.376.567-.281.476-.529,1-.769,1.515q-.107.228-.215.453c-.4.833-.816,1.67-1.221,2.478-.2.392-.4.793-.6,1.195a15.439,15.439,0,0,0,2.225-.87c.447-.2.909-.41,1.361-.583.526-.2,1.061-.379,1.578-.551.263-.088.536-.179.8-.271.2-.071.417-.165.643-.265A4.548,4.548,0,0,1,11.925,12.626Z" transform="translate(0.22 7.042)" fill="#2e3540"/>
    </g>
    <g id="Group_31096" data-name="Group 31096">
      <g id="Group_31079" data-name="Group 31079" transform="translate(-375.958 -768.224) rotate(17)">
        <g id="Group_31041" data-name="Group 31041" transform="translate(1510.717 907.076)">
          <path id="Path_7965" data-name="Path 7965" d="M-40.1.2S33.66,6.431,55.479,79.05L69.42,58.783S51.545-5.1-40.1.2" transform="translate(40.095 0.114)" fill="#d9efe5"/>
        </g>
        <g id="Group_31042" data-name="Group 31042" transform="translate(1531.222 919.514)">
          <path id="Path_7966" data-name="Path 7966" d="M34.986,16.48C31.009,26.086,19.119,28.8,10.059,25.168.688,20.2-2.95,10.342,1.038.717,5.015-8.889,16.9-11.607,25.964-7.969c9.836,3.95,12.685,15.6,9.022,24.449M3.482,1.853c-4.291,7.814.341,17.014,7.724,20.928C30.4,30.489,43.068,4.1,24.817-5.581c-8.008-4.247-17.38.232-21.335,7.435" transform="translate(0.562 9.518)" fill="#2e3540"/>
        </g>
        <g id="Group_31043" data-name="Group 31043" transform="translate(1507.816 901.316)">
          <path id="Path_7967" data-name="Path 7967" d="M135.873,43.609a1.324,1.324,0,0,1-.754,2.316c-3.067.41-6.118.746-9.2.994-3.171.257,6.736,10.289,5.657,9.287a1.324,1.324,0,0,1-.754,2.319c-5.023.21-9.948.7-14.984.778-6.632.1-.576,11.565.049,13.834a1.335,1.335,0,0,1-1.147,1.759c-3.4.328-6.711-.931-9.97-1.762-9.019-2.3-4.316,9.4-2.934,13.182a1.341,1.341,0,0,1-1.841,1.636,33.995,33.995,0,0,1-8.7-5.886c-.669,4.714-.371,9.511-1.333,14.22a1.346,1.346,0,0,1-1.56,1.071c-8.23-2.251-11.663-15.9-9.868-23.137C75.87,73.3,73.3,71.079,69.6,68.845c-15.457-9.328-32.072-19.5-43.746-33.312C15.321,23.078,8.05,7.257,2.838-7.945c-1.311-3.818-6.045-13.895-.016-15.8,11.658-3.685,28.16.432,39.173,4.113C70.83-10,98.628,12.39,114.557,38.122c8.145-.716,14.973-.156,21.316,5.487M83.594,89.133c2.322,5.46,4.392,5.149,4.534-1.42a40.684,40.684,0,0,1,.945-8.577,1.365,1.365,0,0,1,2.207-.77,33.356,33.356,0,0,0,6.768,5.512c-1.456-3.98-2.791-8.527-1.2-12.223,1.792-4.179,11.223-.371,13.783.27,2.163.541,2.595,1.412,1.691-1.022-.724-1.953-1.524-3.862-2.193-5.837-.6-1.773-1.062-4.138-.21-5.911a4.445,4.445,0,0,1,3.573-2.262c4.627-.494,9.448-.7,14.162-.885a32.341,32.341,0,0,1-6.178-9.836,1.324,1.324,0,0,1,1.147-1.759c3.01-.126,5.979-.407,8.951-.746-5.13-3.324-10.647-3.469-16.962-2.9C108.127,53.71,98.827,64.988,86.358,72.821A10.278,10.278,0,0,1,81.2,74.643c-1.213,4.826.5,10.035,2.393,14.49M74.979,68.978q1.684.987,3.381,1.956a1.13,1.13,0,0,1,.328-.8c7.418-7.82,14.045-16.276,20.8-24.642,1.076-1.333,3.13.4,2.054,1.729-6.752,8.366-13.378,16.823-20.8,24.642a1.333,1.333,0,0,1-.358.251c1.581.937.59.754,3.485-.907,12.657-7.26,22.023-18.989,28.376-31.739C99.461,18.912,78.694,1.055,57.406-10.382A98.4,98.4,0,0,0,10.524-22c-2.7.036-8.082-.552-7.793,2.884.393,4.671,2.3,9.41,3.876,13.8A142.2,142.2,0,0,0,26.675,32.293c8.44,11.16,20.988,19.671,33.11,27.333a.987.987,0,0,1,.1-.167,30.232,30.232,0,0,0,1.947-2.5c1.03-1.368,3.078.366,2.054,1.729-.6.795-1.169,1.625-1.838,2.368q2.159,1.356,4.283,2.685m2.283,1.4c1.333.825,2.666,1.644,4.012,2.447" transform="translate(0.168 25.188)" fill="#2e3540"/>
        </g>
        <g id="Group_31044" data-name="Group 31044" transform="translate(1613.573 986.06)">
          <path id="Path_7968" data-name="Path 7968" d="M-.458.646C-.008-.984,2.658-.534,2.2,1.108c-.625,2.264-.929,4.52.131,6.714.748,1.546-1.8,2.417-2.54.885-1.243-2.57-.989-5.4-.254-8.06" transform="translate(1.073 0.373)" fill="#2e3540"/>
        </g>
        <g id="Group_31045" data-name="Group 31045" transform="translate(1615.146 981.365)">
          <path id="Path_7969" data-name="Path 7969" d="M-.913,1.1A1.346,1.346,0,0,1,1.628.216l.107.295A1.345,1.345,0,0,1-.8,1.393C-.842,1.3-.877,1.2-.913,1.1" transform="translate(1.002 0.636)" fill="#2e3540"/>
        </g>
        <g id="Group_31046" data-name="Group 31046" transform="translate(1608.723 1001.496)">
          <path id="Path_7970" data-name="Path 7970" d="M-1.71.673c.087-1.7,2.748-1.218,2.663.462C.852,3.1,1,5.535,2.595,6.958a1.33,1.33,0,0,1-1.754,2C-1.53,6.835-1.86,3.634-1.71.673" transform="translate(1.741 0.389)" fill="#2e3540"/>
        </g>
        <g id="Group_31047" data-name="Group 31047" transform="translate(1549.639 924.173)">
          <path id="Path_7971" data-name="Path 7971" d="M12.816,9.442c.044,1.7-2.644,1.928-2.69.224C9.975,3.944,6.069-.776.776-2.953-.836-3.614.317-6,1.92-5.34c6.11,2.513,10.721,8.189,10.9,14.782" transform="translate(0 5.454)" fill="#2e3540"/>
        </g>
        <g id="Group_31048" data-name="Group 31048" transform="translate(1555.931 942.504)">
          <path id="Path_7972" data-name="Path 7972" d="M4.3.94a7.072,7.072,0,0,1-2.2,3.75A1.371,1.371,0,0,1,.218,4.344,1.332,1.332,0,0,1,.563,2.505,4.041,4.041,0,0,0,1.633.479C2.078-1.155,4.744-.7,4.3.94" transform="translate(0.018 0.543)" fill="#2e3540"/>
        </g>
        <g id="Group_31049" data-name="Group 31049" transform="translate(1551.66 947.791)">
          <path id="Path_7973" data-name="Path 7973" d="M2.628,1.184c-.033.066-.063.134-.1.2A1.35,1.35,0,0,1,.088.247c.03-.066.063-.134.1-.2A1.35,1.35,0,0,1,2.628,1.184" transform="translate(0.05 0.684)" fill="#2e3540"/>
        </g>
        <g id="Group_31050" data-name="Group 31050" transform="translate(1517.021 907.052)">
          <path id="Path_7974" data-name="Path 7974" d="M-7.1,0A97.729,97.729,0,0,1,14.46,2.565c1.685.407,1.237,3.013-.456,2.6A94.728,94.728,0,0,0-6.85,2.633C-8.579,2.609-8.836-.027-7.1,0" transform="translate(8.281 0)" fill="#2e3540"/>
        </g>
        <g id="Group_31051" data-name="Group 31051" transform="translate(1543.155 910.714)">
          <path id="Path_7975" data-name="Path 7975" d="M-2.715.459A1.389,1.389,0,0,1-.921-.167,48.081,48.081,0,0,1,4.258,1.507c1.592.7.442,3.089-1.144,2.387A48.7,48.7,0,0,0-2.065,2.22,1.316,1.316,0,0,1-2.715.459" transform="translate(2.833 0.265)" fill="#2e3540"/>
        </g>
        <g id="Group_31052" data-name="Group 31052" transform="translate(1555.013 914.319)">
          <path id="Path_7976" data-name="Path 7976" d="M-.843.59c.033-.066.063-.134.1-.2A1.35,1.35,0,0,1,1.7,1.527c-.03.066-.063.134-.1.2A1.35,1.35,0,0,1-.843.59" transform="translate(0.98 0.341)" fill="#2e3540"/>
        </g>
        <path id="Path_7980" data-name="Path 7980" d="M1985.224,1792.678l-2.286-1.943c.08-.1.843-1.147,2.774-7.849l2.883.831C1986.417,1791.274,1985.55,1792.294,1985.224,1792.678Zm5.953-18.675-2.911-.726c.743-2.981,1.522-6.245,2.315-9.7l2.924.671C1992.707,1767.721,1991.924,1771,1991.176,1774Zm4.5-19.543-2.933-.631c.68-3.163,1.367-6.45,2.042-9.77l2.94.6C1997.048,1747.987,1996.358,1751.286,1995.676,1754.459Zm3.993-19.629-2.946-.568c.623-3.235,1.243-6.537,1.842-9.815l2.951.539C2000.916,1728.274,2000.294,1731.586,1999.669,1734.83Zm3.6-19.706-2.956-.511c.567-3.277,1.124-6.591,1.655-9.85l2.961.483C2004.4,1708.515,2003.838,1711.838,2003.27,1715.124Zm3.223-19.769-2.965-.454c.506-3.307,1-6.63,1.46-9.879l2.97.423C2007.493,1688.7,2007,1692.039,2006.493,1695.356Zm2.823-19.834-2.974-.39c.437-3.333.854-6.666,1.24-9.906l2.979.354C2010.173,1668.832,2009.754,1672.177,2009.316,1675.522Zm2.363-19.9-2.983-.315c.355-3.36.683-6.7.976-9.932l2.988.271C2012.365,1648.893,2012.035,1652.249,2011.679,1655.624Zm1.8-19.968-2.992-.22c.25-3.387.464-6.734.637-9.948l3,.162C2013.949,1628.882,2013.733,1632.249,2013.482,1635.656Zm1.069-20.036-3-.092c.1-3.423.161-6.773.168-9.957l3,.006C2014.714,1608.789,2014.657,1612.168,2014.551,1615.62Zm-2.983-19.993c-.118-3.463-.309-6.8-.565-9.9l2.99-.247c.26,3.157.453,6.538.573,10.049Zm-1.7-19.745a92.469,92.469,0,0,0-1.954-9.639l2.9-.766a95.438,95.438,0,0,1,2.019,9.954Zm-5.229-18.758a22.321,22.321,0,0,0-5.366-7.333l-.171-.145,1.952-2.278.158.134a25.262,25.262,0,0,1,6.123,8.306Zm-12.664-14.818c-1.934-2.276-4.034-4.949-6.241-7.945l2.415-1.78c2.166,2.94,4.223,5.558,6.113,7.782Zm-12.032-16.155c-1.729-2.544-3.591-5.361-5.536-8.372l2.52-1.628c1.932,2.992,3.782,5.789,5.5,8.314Zm-10.906-16.835c-1.644-2.631-3.366-5.419-5.265-8.521l2.559-1.566c1.893,3.094,3.611,5.874,5.25,8.5Zm-10.464-17.079c-1.479-2.448-3.118-5.171-5.158-8.567l2.572-1.545c2.038,3.394,3.676,6.114,5.154,8.56Zm-10.306-17.146c-1.508-2.512-3.3-5.494-5.149-8.567l2.57-1.548c1.852,3.074,3.644,6.058,5.152,8.571Zm-10.321-17.12c-1.839-3.029-3.543-5.819-5.208-8.53l2.556-1.57c1.668,2.715,3.375,5.51,5.216,8.543Zm-10.465-17.024c-1.814-2.908-3.6-5.751-5.322-8.452l2.531-1.61c1.722,2.708,3.517,5.559,5.336,8.474Zm-10.722-16.85c-1.858-2.855-3.706-5.659-5.495-8.334l2.494-1.667c1.8,2.685,3.651,5.5,5.515,8.366Zm-11.1-16.59c-1.93-2.8-3.859-5.543-5.732-8.16l2.44-1.746c1.883,2.631,3.822,5.391,5.762,8.2Zm-11.617-16.211c-2.036-2.724-4.073-5.386-6.057-7.91l2.359-1.853c2,2.543,4.051,5.224,6.1,7.968Zm-12.317-15.654c-2.181-2.617-4.367-5.151-6.5-7.532l2.236-2c2.152,2.406,4.36,4.967,6.563,7.611Zm-13.272-14.8c-2.385-2.448-4.774-4.779-7.1-6.927l2.035-2.2c2.365,2.184,4.792,4.551,7.214,7.038Zm-14.584-13.4c-2.669-2.15-5.338-4.123-7.935-5.865l1.671-2.492c2.669,1.79,5.41,3.815,8.146,6.02Zm-16.38-10.878a64,64,0,0,0-8.508-3.653l-.494-.171.993-2.831.472.164a66.984,66.984,0,0,1,8.909,3.824Zm-18.357-7.988a52.418,52.418,0,0,1-8.472-5.819l1.938-2.29a49.417,49.417,0,0,0,7.986,5.484Zm-22.4-10.293c-2.077,0-4.162-.077-6.234-.232l.223-2.992a80.672,80.672,0,0,0,9.81.133l.143,3Q1798.718,1318.278,1796.736,1318.277Zm14.063-1.218-.521-2.954a72.35,72.35,0,0,0,9.505-2.341l.917,2.857A75.373,75.373,0,0,1,1810.8,1317.06Zm-30.379-.38a85.422,85.422,0,0,1-9.846-2.562l.927-2.853a82.358,82.358,0,0,0,9.5,2.471Zm23.131-1.381a48.617,48.617,0,0,1-5.361-8.794l2.712-1.283a45.612,45.612,0,0,0,5.029,8.251Zm26.619-4.513-1.338-2.685a54.692,54.692,0,0,0,8.293-5.071l1.794,2.4A57.716,57.716,0,0,1,1830.171,1310.786Zm-69.066-.383c-1.994-.923-3.98-1.936-5.9-3.013-1.043-.584-2.071-1.167-3.055-1.734l1.5-2.6c.973.561,1.991,1.138,3.023,1.716,1.856,1.039,3.773,2.017,5.7,2.908Zm-17.571-9.96c-3.049-1.951-5.772-3.823-8.324-5.722l1.791-2.407c2.494,1.856,5.16,3.689,8.15,5.6Zm102.952-2.008-2.274-1.957a35.363,35.363,0,0,0,5.238-8l2.715,1.276A38.363,38.363,0,0,1,1846.485,1298.434Zm-51.74-1.613a58.114,58.114,0,0,1-1.582-10.13l2.993-.2a55.109,55.109,0,0,0,1.5,9.605Zm-67.376-8.542a75.921,75.921,0,0,1-7.06-7.349l2.3-1.925a72.951,72.951,0,0,0,6.785,7.061Zm127.724-8.535-2.976-.379a31.3,31.3,0,0,0-.275-9.5l2.953-.531A34.3,34.3,0,0,1,1855.093,1279.744Zm-58.8-3-2.987-.283a65.109,65.109,0,0,1,1.764-10.073l2.905.749A62.11,62.11,0,0,0,1796.3,1276.743Zm-81.937-4.116a71.577,71.577,0,0,1-4.656-9.076l2.757-1.182a68.579,68.579,0,0,0,4.462,8.7Zm134.567-11.909a52.175,52.175,0,0,0-4.875-8.391l2.45-1.731a55.192,55.192,0,0,1,5.154,8.877Zm-47.748-2.778-2.738-1.226a50.207,50.207,0,0,1,5.108-8.933l2.429,1.76A47.215,47.215,0,0,0,1801.177,1257.94Zm-94.919-3.951c-.912-3.038-1.747-6.34-2.483-9.814l2.935-.621c.719,3.394,1.533,6.614,2.421,9.573Zm131.509-9.028a25.38,25.38,0,0,0-7.838-5.161l1.1-2.789a28.343,28.343,0,0,1,8.779,5.756Zm-25.2-2.3-1.809-2.393a22.629,22.629,0,0,1,9.651-4.4l.528,2.953A19.67,19.67,0,0,0,1812.563,1242.665Zm-110.572-8.413c-.471-3.1-.908-6.456-1.3-9.979l2.982-.331c.387,3.483.818,6.8,1.283,9.859Zm-2.26-19.968c-.259-3.113-.5-6.479-.729-10l2.994-.191c.224,3.506.468,6.853.725,9.947Zm-1.3-20.006c-.159-3.145-.309-6.416-.458-10l3-.125c.149,3.575.3,6.838.457,9.973Zm-.842-20.01c-.11-3.087-.219-6.355-.335-9.991l3-.1c.115,3.632.225,6.9.335,9.98Zm-.641-19.994c-.085-2.858-.174-5.943-.29-10.005l3-.086c.116,4.061.206,7.145.29,10Zm-.576-20c-.1-3.359-.247-6.705-.439-9.945l2.995-.177c.194,3.269.343,6.645.443,10.033Zm-1.187-19.869c-.309-3.349-.676-6.673-1.09-9.881l2.975-.385c.42,3.244.791,6.605,1.1,9.99Zm-2.565-19.714c-.569-3.317-1.21-6.594-1.9-9.74l2.93-.646c.7,3.192,1.353,6.516,1.93,9.879Zm-4.292-19.369c-.9-3.244-1.887-6.426-2.934-9.458l2.836-.979c1.067,3.09,2.073,6.331,2.99,9.635Zm-6.489-18.692c-1.323-3.092-2.752-6.09-4.248-8.911l2.65-1.406c1.535,2.894,3,5.968,4.356,9.137Zm-9.269-17.383a86.857,86.857,0,0,0-5.871-7.878l2.3-1.93a89.841,89.841,0,0,1,6.075,8.151Zm-12.64-14.955a64.374,64.374,0,0,0-7.679-6.03l1.663-2.5a67.379,67.379,0,0,1,8.039,6.312Zm-16.2-10.7a34.86,34.86,0,0,0-9.1-2.755l.3-2.985a36.936,36.936,0,0,1,9.992,2.987Z" transform="translate(-5 -3)" fill="#2e3540"/>
      </g>
      <g id="Group_31081" data-name="Group 31081" transform="translate(-772.507 -428.742)">
        <g id="Group_31031" data-name="Group 31031" transform="translate(1653.315 947.848)">
          <path id="Path_7955" data-name="Path 7955" d="M20.3,2.419a2.027,2.027,0,0,0-1.516-3.737L1.073,3.8A2.027,2.027,0,1,0,2.2,7.691L19.912,2.578a1.951,1.951,0,0,0,.391-.158" transform="translate(0.393 1.397)" fill="#2e3540"/>
        </g>
        <g id="Group_31032" data-name="Group 31032" transform="translate(1659.532 941.573)">
          <path id="Path_7956" data-name="Path 7956" d="M7.892,13.611a2.027,2.027,0,0,0,.972-2.36L3.581-6.413A2.028,2.028,0,0,0,1.058-7.776,2.033,2.033,0,0,0-.3-5.252L4.98,12.411A2.027,2.027,0,0,0,7.5,13.774a2.067,2.067,0,0,0,.391-.164" transform="translate(0.387 7.861)" fill="#2e3540"/>
        </g>
      </g>
      <g id="Group_31059" data-name="Group 31059" transform="translate(-742.557 -260.798)">
        <g id="Group_31053" data-name="Group 31053" transform="translate(1601.093 1073.878)">
          <path id="Path_7977" data-name="Path 7977" d="M19.648,4.376a2.026,2.026,0,0,0,.2-4.026L1.638-2.5A2.032,2.032,0,0,0-.678-.813,2.028,2.028,0,0,0,1.01,1.5L19.228,4.355a1.986,1.986,0,0,0,.421.022" transform="translate(0.703 2.528)" fill="#2e3540"/>
        </g>
        <g id="Group_31054" data-name="Group 31054" transform="translate(1608.862 1066.185)">
          <path id="Path_7978" data-name="Path 7978" d="M.479,14.13A2.029,2.029,0,0,0,2.358,12.4L5.035-5.84a2.026,2.026,0,0,0-1.71-2.3,2.033,2.033,0,0,0-2.3,1.71L-1.655,11.813a2.03,2.03,0,0,0,1.71,2.3,2.214,2.214,0,0,0,.423.016" transform="translate(1.676 8.161)" fill="#2e3540"/>
        </g>
      </g>
      <g id="Group_31055" data-name="Group 31055" transform="translate(766.273 642.606)">
        <path id="Path_7979" data-name="Path 7979" d="M-10.04,12.62c2.234.527,4.777-.107,7.039-.24.748-.044,2.45-.333,3.062.309.5.519.147,2.417.161,3.119.022,1.2.074,2.406.1,3.611.019.858-.295,3.193.516,3.679.89.533,1.655-1.12,2.059-1.734.686-1.046,1.4-2.079,2.027-3.163a25.329,25.329,0,0,1,1.841-2.953c.787-1.005.994-.978,2.095-.6,2.212.746,4.49,1.549,6.738,2.152.9.24,2.292.538,3.13-.063.994-.71-.194-2.158-.615-2.9a61.081,61.081,0,0,0-3.646-6.32c-.2-.268-.751-.822-.765-1.2-.019-.426.5-1.024.71-1.344.713-1.1,1.439-2.163,2.234-3.2.5-.653,1.011-1.3,1.5-1.958.287-.382.839-.88.918-1.382.254-1.622-2.057-.89-2.786-.759a18.674,18.674,0,0,0-2.256.645c-.852.322-1.685.7-2.551.981-.62.2-1.723.628-2.349.281a9.046,9.046,0,0,1-1.71-1.855C6.118-3.725,4.887-5.243,3.5-6.6c-.718-.7-1.418-1.136-1.915.046a12.9,12.9,0,0,0-.576,2.969A52.719,52.719,0,0,1-.4,2.588,4.434,4.434,0,0,1-.729,3.716,6.106,6.106,0,0,1-2,4.628c-.765.563-1.516,1.139-2.267,1.721C-5.61,7.387-7.006,8.269-8.391,9.23c-.519.358-3.584,2.934-1.65,3.39h0M-6.5,9.973c1.259-.787,2.417-1.7,3.6-2.608q.951-.733,1.915-1.445C-.478,5.551.6,5.065.891,4.491c.142-.281.049-.453.071-.729a6.008,6.008,0,0,1,.246-1.109c.221-.792.432-1.59.625-2.39.415-1.743.65-3.5.967-5.258C3.89-3.883,4.895-2.684,5.927-1.512c.789.9,1.8,2.483,2.972,2.794A6.758,6.758,0,0,0,12.745.624c.675-.257,1.336-.549,2.013-.795.339-.123.677-.24,1.024-.333.115-.033,1.093-.227.492-.126.533-.1-.188.508-.35.718-.235.3-.47.606-.7.912-.505.661-1,1.33-1.464,2.027-.768,1.161-1.991,2.54-1.456,4.059a9.171,9.171,0,0,0,1.235,1.882c.41.617.754,1.295,1.109,1.953.808,1.491,1.669,2.947,2.486,4.433-1.6-.052-3.215-.92-4.728-1.409-.8-.257-1.6-.462-2.406-.694a7.154,7.154,0,0,0-2.349-.623c-1.429.1-2.477,2.032-3.168,3.174-.855,1.407-1.7,2.8-2.584,4.182-.044-1.592-.115-3.193-.112-4.785,0-1.415.259-3.291-1.1-4.07-1.251-.718-2.955-.5-4.318-.407-1.5.109-3,.309-4.5.366A18.218,18.218,0,0,1-6.5,9.973c.317-.2-.56.35,0,0" transform="translate(10.674 7.289)" fill="#2e3540"/>
        <path id="Path_7979_-_Outline" data-name="Path 7979 - Outline" d="M1.19,23.7a1.178,1.178,0,0,1-.611-.175c-.9-.539-.832-2.149-.777-3.443.011-.265.021-.494.017-.654-.012-.573-.03-1.155-.047-1.719-.019-.621-.039-1.262-.051-1.894,0-.211.019-.491.045-.815a12.086,12.086,0,0,0,.059-1.292c-.018-.553-.125-.674-.126-.675-.092-.1-.362-.257-1.144-.257-.374,0-.77.036-1.088.066-.161.015-.312.029-.44.036-.648.038-1.313.118-2.017.2a26.142,26.142,0,0,1-3.078.245A9.649,9.649,0,0,1-9.71,13.2a.452.452,0,0,1-.12-.015h0l-.113-.027-.1-.023-.072-.017-.022-.005h0l-.117-.027v0a1.135,1.135,0,0,1-.9-.872c-.105-.56.236-1.251,1.044-2.111A10.828,10.828,0,0,1-8.674,8.819c.434-.3.875-.6,1.3-.887.928-.626,1.888-1.274,2.8-1.978C-3.863,5.4-3.1,4.814-2.3,4.225c.135-.1.293-.194.461-.295a2.852,2.852,0,0,0,.7-.509,2.634,2.634,0,0,0,.163-.593c.028-.136.054-.265.086-.377A52.157,52.157,0,0,0,.52-3.662c.039-.248.071-.5.1-.769a8.649,8.649,0,0,1,.505-2.314c.291-.693.708-1.044,1.239-1.044a2.348,2.348,0,0,1,1.486.833c.984.965,1.9,2.021,2.788,3.042.373.43.76.874,1.144,1.3.157.176.317.382.487.6A4.768,4.768,0,0,0,9.365-.86a.742.742,0,0,0,.353.068,5.008,5.008,0,0,0,1.4-.321l.2-.067c.534-.172,1.073-.39,1.594-.6.3-.124.619-.251.934-.37a19.077,19.077,0,0,1,2.347-.67c.077-.014.185-.038.31-.066a7.3,7.3,0,0,1,1.522-.22,1.6,1.6,0,0,1,1.274.469,1.363,1.363,0,0,1,.259,1.145,2.865,2.865,0,0,1-.771,1.314c-.091.106-.177.206-.241.291-.32.431-.654.861-.977,1.278q-.265.342-.528.685c-.7.9-1.378,1.88-2.212,3.164-.051.079-.114.166-.181.258a2.536,2.536,0,0,0-.449.791,2.792,2.792,0,0,0,.466.675c.079.094.147.176.2.251a35.507,35.507,0,0,1,2.655,4.475c.333.629.678,1.28,1.024,1.9.06.107.144.24.233.38a6.15,6.15,0,0,1,.741,1.446,1.453,1.453,0,0,1-.5,1.73,2.721,2.721,0,0,1-1.614.446,7.78,7.78,0,0,1-1.936-.307c-1.912-.513-3.851-1.172-5.726-1.808L8.7,15.118a3.2,3.2,0,0,0-.807-.213c-.128,0-.263.048-.735.651A18.673,18.673,0,0,0,5.7,17.844q-.174.3-.348.607c-.494.849-1.041,1.674-1.57,2.472q-.236.356-.471.713c-.056.085-.122.2-.2.323C2.679,22.7,2.081,23.7,1.19,23.7ZM-1.445,11.777a2.459,2.459,0,0,1,1.867.566c.481.5.442,1.495.341,2.74-.023.285-.045.553-.042.715.011.626.031,1.264.051,1.882.018.566.036,1.151.048,1.729,0,.191-.006.435-.018.718A12.253,12.253,0,0,0,.808,21.8c.073.708.25.848.285.869a.181.181,0,0,0,.1.033c.322,0,.863-.91,1.066-1.252.079-.133.153-.258.221-.361q.235-.358.473-.717c.521-.786,1.059-1.6,1.539-2.423q.173-.3.344-.6A19.418,19.418,0,0,1,6.37,14.939c.458-.585.861-1.034,1.522-1.034a3.642,3.642,0,0,1,1.128.265l1.043.353c1.86.632,3.784,1.285,5.664,1.79a6.851,6.851,0,0,0,1.677.273,1.763,1.763,0,0,0,1.032-.259c.381-.272.118-.852-.5-1.828-.1-.151-.186-.294-.259-.424-.353-.627-.7-1.284-1.037-1.919a34.772,34.772,0,0,0-2.576-4.35c-.037-.05-.1-.124-.164-.2a2.415,2.415,0,0,1-.7-1.276,2.5,2.5,0,0,1,.638-1.418c.059-.082.115-.159.152-.216.837-1.29,1.555-2.316,2.257-3.228.176-.229.353-.459.531-.688.32-.413.65-.839.966-1.264.085-.114.182-.226.285-.345a2.27,2.27,0,0,0,.54-.816.475.475,0,0,0-.031-.34c-.024-.028-.132-.12-.514-.12a6.534,6.534,0,0,0-1.306.2c-.136.03-.253.056-.352.074a18.425,18.425,0,0,0-2.168.62c-.3.115-.612.24-.911.361-.538.218-1.094.444-1.664.627l-.2.064A5.738,5.738,0,0,1,9.718.209,1.71,1.71,0,0,1,8.88.015,5.333,5.333,0,0,1,7.483-1.4c-.158-.2-.308-.4-.442-.546-.389-.435-.778-.882-1.153-1.315C5.013-4.264,4.11-5.3,3.154-6.241c-.488-.477-.7-.548-.787-.548-.068,0-.192.133-.317.431a7.916,7.916,0,0,0-.435,2.049c-.033.265-.067.538-.109.8A53.129,53.129,0,0,1,.076,2.725c-.021.074-.043.185-.067.3a2.627,2.627,0,0,1-.333.981,3.327,3.327,0,0,1-1,.78c-.147.088-.285.171-.382.242C-2.494,5.613-3.255,6.2-3.96,6.744-4.9,7.468-5.871,8.125-6.813,8.76c-.424.286-.863.583-1.293.881a10,10,0,0,0-1.33,1.2c-.7.759-.758,1.13-.736,1.188h0s.044.058.245.106l.015,0a8.072,8.072,0,0,0,1.844.189,25.4,25.4,0,0,0,2.959-.238c.688-.082,1.4-.167,2.077-.207.112-.007.248-.019.407-.034C-2.286,11.815-1.865,11.777-1.445,11.777ZM1.9,20.484A.5.5,0,0,1,1.4,20q-.018-.642-.039-1.285c-.037-1.152-.075-2.343-.073-3.515,0-.193.005-.387.01-.593.03-1.236.062-2.514-.862-3.041a4.257,4.257,0,0,0-2.159-.447c-.5,0-1,.038-1.478.075l-.4.03c-.572.042-1.16.1-1.728.153-.912.088-1.856.178-2.789.214a.5.5,0,0,1-.488-.326.5.5,0,0,1,.159-.565,16.84,16.84,0,0,1,1.5-1.029h0l.056-.035.07-.044.1-.059.03-.019h0c1.082-.681,2.076-1.446,3.128-2.255l.372-.286C-2.468,6.4-1.856,5.94-1.279,5.517c.164-.12.369-.243.585-.372A3.582,3.582,0,0,0,.444,4.266c.031-.061.031-.084.022-.22a2.09,2.09,0,0,1,0-.324A6.177,6.177,0,0,1,.715,2.555l.011-.039C.96,1.681,1.163.9,1.347.145c.283-1.189.487-2.416.684-3.6.088-.532.179-1.082.277-1.626a.5.5,0,0,1,.345-.389.5.5,0,0,1,.5.128c.837.854,1.634,1.769,2.4,2.653.243.279.494.567.742.849.178.2.36.431.554.673C7.485-.383,8.268.6,9.028.8A2.66,2.66,0,0,0,9.71.882,8.69,8.69,0,0,0,12.567.156c.288-.11.582-.229.866-.345.375-.153.763-.31,1.154-.452.332-.12.69-.246,1.063-.345.053-.015.155-.037.366-.082l.029-.006a.5.5,0,0,1,.14-.047l.029,0a1.5,1.5,0,0,1,.251-.032.5.5,0,0,1,.5.444.49.49,0,0,1,0,.085c.031.317-.227.584-.5.864-.053.055-.127.131-.147.158-.232.3-.47.606-.7.91-.445.582-.964,1.274-1.446,2-.111.168-.228.335-.351.512-.7,1-1.424,2.041-1.05,3.1a4.429,4.429,0,0,0,.73,1.162c.151.195.307.4.449.608.351.528.653,1.095.945,1.642l.188.351c.436.8.9,1.614,1.341,2.4.377.664.767,1.35,1.143,2.033a.5.5,0,0,1-.454.741,10.925,10.925,0,0,1-3.528-.941c-.465-.181-.9-.352-1.337-.492-.515-.166-1.048-.314-1.563-.456-.271-.075-.551-.153-.828-.233-.251-.072-.5-.168-.742-.26a3.971,3.971,0,0,0-1.33-.348c-.035,0-.069,0-.1,0-1.067.078-2,1.642-2.622,2.677l-.154.257-.135.222c-.793,1.306-1.614,2.656-2.456,3.97A.5.5,0,0,1,1.9,20.484ZM-1.727,10.115a5.188,5.188,0,0,1,2.656.58c1.441.823,1.4,2.548,1.364,3.934,0,.2-.01.389-.01.57,0,1.038.029,2.1.061,3.133.534-.859,1.059-1.723,1.573-2.569l.135-.222L4.2,15.29c.726-1.213,1.822-3.046,3.408-3.161.057,0,.116-.006.174-.006a4.752,4.752,0,0,1,1.686.414c.233.089.452.172.663.233.272.079.549.155.818.23.525.146,1.068.3,1.6.468.462.149.935.334,1.393.512a15.378,15.378,0,0,0,2.263.751c-.219-.39-.439-.777-.656-1.158-.448-.787-.91-1.6-1.351-2.415l-.19-.355c-.281-.527-.572-1.072-.9-1.559-.121-.181-.26-.36-.406-.549a5.243,5.243,0,0,1-.882-1.441C11.285,5.705,12.238,4.34,13,3.243c.12-.172.233-.334.338-.492.5-.752,1.03-1.46,1.484-2.055.126-.166.253-.332.381-.5l-.277.1c-.373.135-.752.289-1.118.439-.289.118-.588.24-.888.354a9.436,9.436,0,0,1-3.213.791,3.658,3.658,0,0,1-.939-.116,6.043,6.043,0,0,1-2.7-2.31C5.889-.778,5.713-1,5.551-1.183c-.249-.283-.5-.572-.745-.852C4.259-2.663,3.7-3.307,3.123-3.929c-.036.214-.071.426-.106.635-.2,1.2-.406,2.448-.7,3.673-.187.773-.393,1.56-.63,2.409l-.012.042A5.377,5.377,0,0,0,1.46,3.8a1.2,1.2,0,0,0,0,.174,1.293,1.293,0,0,1-.127.739A3.878,3.878,0,0,1-.179,6c-.2.118-.382.229-.509.322-.57.418-1.175.874-1.9,1.437l-.372.286c-1.044.8-2.123,1.634-3.272,2.351h0l-.1.065c.307-.028.613-.057.915-.086.574-.055,1.167-.112,1.752-.155l.394-.029C-2.779,10.155-2.261,10.115-1.727,10.115Z" transform="translate(10.674 7.289)" fill="#2e3540"/>
      </g>
    </g>
  </g>
</svg>
