<svg xmlns="http://www.w3.org/2000/svg" width="438.377" height="763.784" viewBox="0 0 438.377 763.784">
  <g id="Group_31125" data-name="Group 31125" transform="translate(107.73 -314.717)">
    <path id="Path_7981" data-name="Path 7981" d="M182.626,2259.934l-2.763-1.168c1.229-2.907,2.393-6.021,3.46-9.254l2.849.94C185.079,2253.762,183.886,2256.952,182.626,2259.934ZM189,2240.765l-2.905-.749c.8-3.107,1.539-6.36,2.2-9.668l2.943.583C190.571,2234.295,189.82,2237.6,189,2240.765ZM192.947,2221l-2.968-.437c.471-3.2.885-6.51,1.23-9.853l2.984.308C193.844,2214.406,193.424,2217.765,192.947,2221Zm2.082-20.012-2.994-.192c.208-3.238.362-6.58.46-9.934l3,.087C195.4,2194.341,195.239,2197.718,195.029,2200.99Zm-2.406-20.078c-.009-3.254-.067-6.6-.173-9.952l3-.1c.107,3.379.166,6.756.175,10.039Zm-.623-19.9c-.19-3.259-.428-6.606-.705-9.946l2.99-.248c.28,3.365.519,6.736.71,10.02Zm-1.644-19.86c-.344-3.249-.734-6.58-1.157-9.9l2.976-.379c.426,3.34.817,6.692,1.164,9.963Zm-2.516-19.779q-.084-.569-.169-1.14c-.415-2.772-.846-5.636-1.318-8.756l2.966-.449c.472,3.122.9,5.988,1.319,8.761q.086.574.17,1.146Zm-2.989-19.779q-.52-3.412-1.031-6.762l-.476-3.123,2.966-.452.476,3.123q.511,3.35,1.031,6.762Zm-3.013-19.777c-.559-3.684-1.047-6.92-1.491-9.893l2.967-.444c.444,2.97.932,6.2,1.49,9.887Zm-2.955-19.785c-.517-3.542-.983-6.784-1.423-9.911l2.971-.418c.439,3.122.9,6.359,1.421,9.9Zm-2.783-19.825c-.462-3.467-.89-6.811-1.274-9.939l2.978-.365c.383,3.118.81,6.452,1.271,9.909Zm-2.43-19.893c-.191-1.761-.371-3.49-.539-5.178a59.006,59.006,0,0,1-9.789-.956l.537-2.951a56.079,56.079,0,0,0,8.961.9q-.085-.909-.164-1.8l2.988-.267c.28,3.125.612,6.464.988,9.922Zm10.091-6.056-.512-2.956a70.559,70.559,0,0,0,9.5-2.339l.917,2.856A73.562,73.562,0,0,1,183.763,2016.262Zm-30.3-2.733a66.672,66.672,0,0,1-9.33-4.176l1.431-2.637a63.653,63.653,0,0,0,8.909,3.988Zm49.678-3.476-1.3-2.706a73.531,73.531,0,0,0,8.531-4.809l1.645,2.509A76.564,76.564,0,0,1,203.14,2010.053Zm-67.6-6.222a72.214,72.214,0,0,1-7.7-6.7l2.123-2.12a69.216,69.216,0,0,0,7.379,6.417Zm36.365-1.5c-.223-3.519-.38-6.9-.465-10.04l3-.082c.084,3.107.239,6.448.46,9.931Zm48.245-3.433-1.969-2.264a67.767,67.767,0,0,0,6.9-6.923l2.275,1.956A70.791,70.791,0,0,1,220.151,1998.9Zm-99-9.458a77.213,77.213,0,0,1-5.589-8.521l2.611-1.477a74.232,74.232,0,0,0,5.371,8.189Zm112.232-6.051-2.568-1.551a45.786,45.786,0,0,0,4.138-8.732l2.837.975A48.77,48.77,0,0,1,233.383,1983.387Zm-58.971-1.1-3-.075c.09-3.6.3-6.995.62-10.1l2.984.31C174.7,1975.446,174.5,1978.764,174.412,1982.284Zm-63.286-10.532a85.128,85.128,0,0,1-3.27-9.634l2.893-.794a82.119,82.119,0,0,0,3.154,9.293Zm128.63-7.9-3-.091a21.592,21.592,0,0,0-1.608-9.14l2.762-1.17A24.566,24.566,0,0,1,239.756,1963.854Zm-63.167-1.107-2.921-.682a48.192,48.192,0,0,1,3.316-9.756l2.707,1.292A45.2,45.2,0,0,0,176.589,1962.747Zm-70.862-10.568a98.433,98.433,0,0,1-1.044-10.1l3-.156a95.422,95.422,0,0,0,1.012,9.787Zm123.914-4.94a28.168,28.168,0,0,0-8.2-4.695l1.07-2.8a31.145,31.145,0,0,1,9.066,5.208Zm-44.547-1.336-2.079-2.163a24.693,24.693,0,0,1,9.011-5.5l.993,2.831A21.715,21.715,0,0,0,185.095,1945.9Zm26.987-5.762c-.681-.106-1.384-.2-2.09-.289a51.214,51.214,0,0,0-7.608-.387l-.088-3a54.377,54.377,0,0,1,8.056.408c.74.089,1.477.191,2.192.3Zm-104.441-8.067-3-.128c.141-3.306.435-6.7.874-10.093l2.975.385C108.064,1925.544,107.778,1928.854,107.64,1932.074Zm2.505-19.572-2.936-.615c.675-3.226,1.49-6.526,2.42-9.808l2.886.819C111.6,1906.113,110.806,1909.344,110.145,1912.5Zm5.376-19.04-2.829-1c1.1-3.1,2.317-6.268,3.631-9.408l2.768,1.158C117.8,1887.3,116.6,1890.412,115.522,1893.462Zm7.64-18.3-2.7-1.3c1.422-2.961,2.96-5.977,4.569-8.964l2.641,1.423C126.08,1869.264,124.564,1872.238,123.162,1875.158Zm9.41-17.489-2.578-1.534c1.679-2.823,3.464-5.694,5.305-8.535l2.517,1.632C136,1852.04,134.231,1854.879,132.572,1857.668Zm10.81-16.693-2.458-1.72c1.872-2.675,3.856-5.412,5.9-8.136l2.4,1.8C147.2,1835.617,145.235,1838.328,143.381,1840.976Zm11.923-15.941-2.35-1.865c2.009-2.53,4.14-5.149,6.336-7.783l2.3,1.921C159.415,1819.923,157.3,1822.523,155.3,1825.035Zm12.752-15.322-2.267-1.965c2.092-2.412,4.258-4.872,6.624-7.52l2.237,2C172.3,1804.863,170.138,1807.312,168.056,1809.713Zm13.289-14.9-2.217-2.021c2.32-2.545,4.62-5.049,6.76-7.376l2.208,2.031C185.959,1789.774,183.662,1792.275,181.346,1794.816Zm13.522-14.732-2.212-2.027c2.641-2.881,4.775-5.229,6.717-7.387l2.23,2.007C199.654,1774.842,197.514,1777.2,194.867,1780.084Zm13.381-14.917-2.266-1.966c2.358-2.719,4.457-5.208,6.418-7.611l2.324,1.9C212.744,1759.913,210.626,1762.425,208.248,1765.166Zm12.674-15.61-2.408-1.79c2.084-2.8,3.987-5.538,5.655-8.126l2.522,1.625C224.987,1743.909,223.046,1746.7,220.922,1749.556Zm10.87-17.052-2.666-1.375a72.06,72.06,0,0,0,3.917-8.97l2.829,1A75.07,75.07,0,0,1,231.792,1732.5Zm6.629-19.286-2.964-.463a43.564,43.564,0,0,0,.442-9.635l2.993-.2A46.565,46.565,0,0,1,238.421,1713.217Zm-4.26-19.581a50.916,50.916,0,0,0-3.7-8.962l2.656-1.394a53.929,53.929,0,0,1,3.916,9.493Zm-8.895-17.238a90.345,90.345,0,0,0-6.24-7.592l2.215-2.023a93.344,93.344,0,0,1,6.448,7.846Zm-13.212-14.6c-2.3-2.141-4.817-4.327-7.469-6.5l1.9-2.322c2.7,2.211,5.261,4.438,7.611,6.622Zm-15.311-12.589c-2.556-1.89-5.281-3.821-8.1-5.74l1.688-2.48c2.852,1.941,5.61,3.895,8.2,5.808Zm-16.432-11.207c-2.706-1.716-5.557-3.469-8.474-5.212l1.538-2.576c2.94,1.756,5.814,3.524,8.543,5.254Zm-17.086-10.22c-2.806-1.591-5.74-3.216-8.722-4.831l1.429-2.638c3,1.624,5.95,3.258,8.773,4.859Zm-17.535-9.506c-2.876-1.5-5.868-3.023-8.894-4.54l1.345-2.682c3.039,1.524,6.044,3.058,8.933,4.56Zm-17.842-8.953c-2.92-1.417-5.948-2.865-9-4.3l1.279-2.714c3.061,1.442,6.1,2.895,9.029,4.317Zm-18.063-8.516c-2.957-1.356-6.014-2.741-9.086-4.116l1.225-2.738c3.081,1.379,6.146,2.767,9.111,4.127Zm-18.229-8.16c-2.986-1.306-6.066-2.64-9.156-3.963l1.181-2.758c3.1,1.327,6.184,2.663,9.177,3.972Zm-18.367-7.87c-3.009-1.264-6.108-2.554-9.211-3.835l1.144-2.773c3.109,1.283,6.214,2.576,9.229,3.842Zm-18.455-7.617c-3.035-1.231-6.157-2.488-9.279-3.735l1.113-2.786c3.127,1.249,6.254,2.507,9.294,3.741Z" transform="translate(696.709 -1158.586) rotate(22)" fill="#2e3540"/>
    <g id="Group_31063" data-name="Group 31063" transform="translate(-1579.093 -161.332)">
      <g id="Group_31053" data-name="Group 31053" transform="translate(1601.093 1073.878)">
        <path id="Path_7977" data-name="Path 7977" d="M19.648,4.376a2.026,2.026,0,0,0,.2-4.026L1.638-2.5A2.032,2.032,0,0,0-.678-.813,2.028,2.028,0,0,0,1.01,1.5L19.228,4.355a1.986,1.986,0,0,0,.421.022" transform="translate(0.703 2.528)" fill="#2e3540"/>
      </g>
      <g id="Group_31054" data-name="Group 31054" transform="translate(1608.862 1066.185)">
        <path id="Path_7978" data-name="Path 7978" d="M.479,14.13A2.029,2.029,0,0,0,2.358,12.4L5.035-5.84a2.026,2.026,0,0,0-1.71-2.3,2.033,2.033,0,0,0-2.3,1.71L-1.655,11.813a2.03,2.03,0,0,0,1.71,2.3,2.214,2.214,0,0,0,.423.016" transform="translate(1.676 8.161)" fill="#2e3540"/>
      </g>
    </g>
    <g id="Group_31062" data-name="Group 31062" transform="translate(82.781 566.178)">
      <path id="Path_7979" data-name="Path 7979" d="M-10.04,12.62c2.234.527,4.777-.107,7.039-.24.748-.044,2.45-.333,3.062.309.5.519.147,2.417.161,3.119.022,1.2.074,2.406.1,3.611.019.858-.295,3.193.516,3.679.89.533,1.655-1.12,2.059-1.734.686-1.046,1.4-2.079,2.027-3.163a25.329,25.329,0,0,1,1.841-2.953c.787-1.005.994-.978,2.095-.6,2.212.746,4.49,1.549,6.738,2.152.9.24,2.292.538,3.13-.063.994-.71-.194-2.158-.615-2.9a61.081,61.081,0,0,0-3.646-6.32c-.2-.268-.751-.822-.765-1.2-.019-.426.5-1.024.71-1.344.713-1.1,1.439-2.163,2.234-3.2.5-.653,1.011-1.3,1.5-1.958.287-.382.839-.88.918-1.382.254-1.622-2.057-.89-2.786-.759a18.674,18.674,0,0,0-2.256.645c-.852.322-1.685.7-2.551.981-.62.2-1.723.628-2.349.281a9.046,9.046,0,0,1-1.71-1.855C6.118-3.725,4.887-5.243,3.5-6.6c-.718-.7-1.418-1.136-1.915.046a12.9,12.9,0,0,0-.576,2.969A52.719,52.719,0,0,1-.4,2.588,4.434,4.434,0,0,1-.729,3.716,6.106,6.106,0,0,1-2,4.628c-.765.563-1.516,1.139-2.267,1.721C-5.61,7.387-7.006,8.269-8.391,9.23c-.519.358-3.584,2.934-1.65,3.39h0M-6.5,9.973c1.259-.787,2.417-1.7,3.6-2.608q.951-.733,1.915-1.445C-.478,5.551.6,5.065.891,4.491c.142-.281.049-.453.071-.729a6.008,6.008,0,0,1,.246-1.109c.221-.792.432-1.59.625-2.39.415-1.743.65-3.5.967-5.258C3.89-3.883,4.895-2.684,5.927-1.512c.789.9,1.8,2.483,2.972,2.794A6.758,6.758,0,0,0,12.745.624c.675-.257,1.336-.549,2.013-.795.339-.123.677-.24,1.024-.333.115-.033,1.093-.227.492-.126.533-.1-.188.508-.35.718-.235.3-.47.606-.7.912-.505.661-1,1.33-1.464,2.027-.768,1.161-1.991,2.54-1.456,4.059a9.171,9.171,0,0,0,1.235,1.882c.41.617.754,1.295,1.109,1.953.808,1.491,1.669,2.947,2.486,4.433-1.6-.052-3.215-.92-4.728-1.409-.8-.257-1.6-.462-2.406-.694a7.154,7.154,0,0,0-2.349-.623c-1.429.1-2.477,2.032-3.168,3.174-.855,1.407-1.7,2.8-2.584,4.182-.044-1.592-.115-3.193-.112-4.785,0-1.415.259-3.291-1.1-4.07-1.251-.718-2.955-.5-4.318-.407-1.5.109-3,.309-4.5.366A18.218,18.218,0,0,1-6.5,9.973c.317-.2-.56.35,0,0" transform="translate(10.674 7.289)" fill="#2e3540"/>
      <path id="Path_7979_-_Outline" data-name="Path 7979 - Outline" d="M1.19,23.7a1.178,1.178,0,0,1-.611-.175c-.9-.539-.832-2.149-.777-3.443.011-.265.021-.494.017-.654-.012-.573-.03-1.155-.047-1.719-.019-.621-.039-1.262-.051-1.894,0-.211.019-.491.045-.815a12.086,12.086,0,0,0,.059-1.292c-.018-.553-.125-.674-.126-.675-.092-.1-.362-.257-1.144-.257-.374,0-.77.036-1.088.066-.161.015-.312.029-.44.036-.648.038-1.313.118-2.017.2a26.142,26.142,0,0,1-3.078.245A9.649,9.649,0,0,1-9.71,13.2a.452.452,0,0,1-.12-.015h0l-.113-.027-.1-.023-.072-.017-.022-.005h0l-.117-.027v0a1.135,1.135,0,0,1-.9-.872c-.105-.56.236-1.251,1.044-2.111A10.828,10.828,0,0,1-8.674,8.819c.434-.3.875-.6,1.3-.887.928-.626,1.888-1.274,2.8-1.978C-3.863,5.4-3.1,4.814-2.3,4.225c.135-.1.293-.194.461-.295a2.852,2.852,0,0,0,.7-.509,2.634,2.634,0,0,0,.163-.593c.028-.136.054-.265.086-.377A52.157,52.157,0,0,0,.52-3.662c.039-.248.071-.5.1-.769a8.649,8.649,0,0,1,.505-2.314c.291-.693.708-1.044,1.239-1.044a2.348,2.348,0,0,1,1.486.833c.984.965,1.9,2.021,2.788,3.042.373.43.76.874,1.144,1.3.157.176.317.382.487.6A4.768,4.768,0,0,0,9.365-.86a.742.742,0,0,0,.353.068,5.008,5.008,0,0,0,1.4-.321l.2-.067c.534-.172,1.073-.39,1.594-.6.3-.124.619-.251.934-.37a19.077,19.077,0,0,1,2.347-.67c.077-.014.185-.038.31-.066a7.3,7.3,0,0,1,1.522-.22,1.6,1.6,0,0,1,1.274.469,1.363,1.363,0,0,1,.259,1.145,2.865,2.865,0,0,1-.771,1.314c-.091.106-.177.206-.241.291-.32.431-.654.861-.977,1.278q-.265.342-.528.685c-.7.9-1.378,1.88-2.212,3.164-.051.079-.114.166-.181.258a2.536,2.536,0,0,0-.449.791,2.792,2.792,0,0,0,.466.675c.079.094.147.176.2.251a35.507,35.507,0,0,1,2.655,4.475c.333.629.678,1.28,1.024,1.9.06.107.144.24.233.38a6.15,6.15,0,0,1,.741,1.446,1.453,1.453,0,0,1-.5,1.73,2.721,2.721,0,0,1-1.614.446,7.78,7.78,0,0,1-1.936-.307c-1.912-.513-3.851-1.172-5.726-1.808L8.7,15.118a3.2,3.2,0,0,0-.807-.213c-.128,0-.263.048-.735.651A18.673,18.673,0,0,0,5.7,17.844q-.174.3-.348.607c-.494.849-1.041,1.674-1.57,2.472q-.236.356-.471.713c-.056.085-.122.2-.2.323C2.679,22.7,2.081,23.7,1.19,23.7ZM-1.445,11.777a2.459,2.459,0,0,1,1.867.566c.481.5.442,1.495.341,2.74-.023.285-.045.553-.042.715.011.626.031,1.264.051,1.882.018.566.036,1.151.048,1.729,0,.191-.006.435-.018.718A12.253,12.253,0,0,0,.808,21.8c.073.708.25.848.285.869a.181.181,0,0,0,.1.033c.322,0,.863-.91,1.066-1.252.079-.133.153-.258.221-.361q.235-.358.473-.717c.521-.786,1.059-1.6,1.539-2.423q.173-.3.344-.6A19.418,19.418,0,0,1,6.37,14.939c.458-.585.861-1.034,1.522-1.034a3.642,3.642,0,0,1,1.128.265l1.043.353c1.86.632,3.784,1.285,5.664,1.79a6.851,6.851,0,0,0,1.677.273,1.763,1.763,0,0,0,1.032-.259c.381-.272.118-.852-.5-1.828-.1-.151-.186-.294-.259-.424-.353-.627-.7-1.284-1.037-1.919a34.772,34.772,0,0,0-2.576-4.35c-.037-.05-.1-.124-.164-.2a2.415,2.415,0,0,1-.7-1.276,2.5,2.5,0,0,1,.638-1.418c.059-.082.115-.159.152-.216.837-1.29,1.555-2.316,2.257-3.228.176-.229.353-.459.531-.688.32-.413.65-.839.966-1.264.085-.114.182-.226.285-.345a2.27,2.27,0,0,0,.54-.816.475.475,0,0,0-.031-.34c-.024-.028-.132-.12-.514-.12a6.534,6.534,0,0,0-1.306.2c-.136.03-.253.056-.352.074a18.425,18.425,0,0,0-2.168.62c-.3.115-.612.24-.911.361-.538.218-1.094.444-1.664.627l-.2.064A5.738,5.738,0,0,1,9.718.209,1.71,1.71,0,0,1,8.88.015,5.333,5.333,0,0,1,7.483-1.4c-.158-.2-.308-.4-.442-.546-.389-.435-.778-.882-1.153-1.315C5.013-4.264,4.11-5.3,3.154-6.241c-.488-.477-.7-.548-.787-.548-.068,0-.192.133-.317.431a7.916,7.916,0,0,0-.435,2.049c-.033.265-.067.538-.109.8A53.129,53.129,0,0,1,.076,2.725c-.021.074-.043.185-.067.3a2.627,2.627,0,0,1-.333.981,3.327,3.327,0,0,1-1,.78c-.147.088-.285.171-.382.242C-2.494,5.613-3.255,6.2-3.96,6.744-4.9,7.468-5.871,8.125-6.813,8.76c-.424.286-.863.583-1.293.881a10,10,0,0,0-1.33,1.2c-.7.759-.758,1.13-.736,1.188h0s.044.058.245.106l.015,0a8.072,8.072,0,0,0,1.844.189,25.4,25.4,0,0,0,2.959-.238c.688-.082,1.4-.167,2.077-.207.112-.007.248-.019.407-.034C-2.286,11.815-1.865,11.777-1.445,11.777ZM1.9,20.484A.5.5,0,0,1,1.4,20q-.018-.642-.039-1.285c-.037-1.152-.075-2.343-.073-3.515,0-.193.005-.387.01-.593.03-1.236.062-2.514-.862-3.041a4.257,4.257,0,0,0-2.159-.447c-.5,0-1,.038-1.478.075l-.4.03c-.572.042-1.16.1-1.728.153-.912.088-1.856.178-2.789.214a.5.5,0,0,1-.488-.326.5.5,0,0,1,.159-.565,16.84,16.84,0,0,1,1.5-1.029h0l.056-.035.07-.044.1-.059.03-.019h0c1.082-.681,2.076-1.446,3.128-2.255l.372-.286C-2.468,6.4-1.856,5.94-1.279,5.517c.164-.12.369-.243.585-.372A3.582,3.582,0,0,0,.444,4.266c.031-.061.031-.084.022-.22a2.09,2.09,0,0,1,0-.324A6.177,6.177,0,0,1,.715,2.555l.011-.039C.96,1.681,1.163.9,1.347.145c.283-1.189.487-2.416.684-3.6.088-.532.179-1.082.277-1.626a.5.5,0,0,1,.345-.389.5.5,0,0,1,.5.128c.837.854,1.634,1.769,2.4,2.653.243.279.494.567.742.849.178.2.36.431.554.673C7.485-.383,8.268.6,9.028.8A2.66,2.66,0,0,0,9.71.882,8.69,8.69,0,0,0,12.567.156c.288-.11.582-.229.866-.345.375-.153.763-.31,1.154-.452.332-.12.69-.246,1.063-.345.053-.015.155-.037.366-.082l.029-.006a.5.5,0,0,1,.14-.047l.029,0a1.5,1.5,0,0,1,.251-.032.5.5,0,0,1,.5.444.49.49,0,0,1,0,.085c.031.317-.227.584-.5.864-.053.055-.127.131-.147.158-.232.3-.47.606-.7.91-.445.582-.964,1.274-1.446,2-.111.168-.228.335-.351.512-.7,1-1.424,2.041-1.05,3.1a4.429,4.429,0,0,0,.73,1.162c.151.195.307.4.449.608.351.528.653,1.095.945,1.642l.188.351c.436.8.9,1.614,1.341,2.4.377.664.767,1.35,1.143,2.033a.5.5,0,0,1-.454.741,10.925,10.925,0,0,1-3.528-.941c-.465-.181-.9-.352-1.337-.492-.515-.166-1.048-.314-1.563-.456-.271-.075-.551-.153-.828-.233-.251-.072-.5-.168-.742-.26a3.971,3.971,0,0,0-1.33-.348c-.035,0-.069,0-.1,0-1.067.078-2,1.642-2.622,2.677l-.154.257-.135.222c-.793,1.306-1.614,2.656-2.456,3.97A.5.5,0,0,1,1.9,20.484ZM-1.727,10.115a5.188,5.188,0,0,1,2.656.58c1.441.823,1.4,2.548,1.364,3.934,0,.2-.01.389-.01.57,0,1.038.029,2.1.061,3.133.534-.859,1.059-1.723,1.573-2.569l.135-.222L4.2,15.29c.726-1.213,1.822-3.046,3.408-3.161.057,0,.116-.006.174-.006a4.752,4.752,0,0,1,1.686.414c.233.089.452.172.663.233.272.079.549.155.818.23.525.146,1.068.3,1.6.468.462.149.935.334,1.393.512a15.378,15.378,0,0,0,2.263.751c-.219-.39-.439-.777-.656-1.158-.448-.787-.91-1.6-1.351-2.415l-.19-.355c-.281-.527-.572-1.072-.9-1.559-.121-.181-.26-.36-.406-.549a5.243,5.243,0,0,1-.882-1.441C11.285,5.705,12.238,4.34,13,3.243c.12-.172.233-.334.338-.492.5-.752,1.03-1.46,1.484-2.055.126-.166.253-.332.381-.5l-.277.1c-.373.135-.752.289-1.118.439-.289.118-.588.24-.888.354a9.436,9.436,0,0,1-3.213.791,3.658,3.658,0,0,1-.939-.116,6.043,6.043,0,0,1-2.7-2.31C5.889-.778,5.713-1,5.551-1.183c-.249-.283-.5-.572-.745-.852C4.259-2.663,3.7-3.307,3.123-3.929c-.036.214-.071.426-.106.635-.2,1.2-.406,2.448-.7,3.673-.187.773-.393,1.56-.63,2.409l-.012.042A5.377,5.377,0,0,0,1.46,3.8a1.2,1.2,0,0,0,0,.174,1.293,1.293,0,0,1-.127.739A3.878,3.878,0,0,1-.179,6c-.2.118-.382.229-.509.322-.57.418-1.175.874-1.9,1.437l-.372.286c-1.044.8-2.123,1.634-3.272,2.351h0l-.1.065c.307-.028.613-.057.915-.086.574-.055,1.167-.112,1.752-.155l.394-.029C-2.779,10.155-2.261,10.115-1.727,10.115Z" transform="translate(10.674 7.289)" fill="#2e3540"/>
    </g>
    <g id="Group_31065" data-name="Group 31065" transform="translate(84.194 1047.51)">
      <path id="Path_7979-2" data-name="Path 7979" d="M18.48,12.62c-2.234.527-4.777-.107-7.039-.24-.748-.044-2.45-.333-3.062.309-.5.519-.147,2.417-.161,3.119-.022,1.2-.074,2.406-.1,3.611-.019.858.295,3.193-.516,3.679-.89.533-1.655-1.12-2.059-1.734-.686-1.046-1.4-2.079-2.027-3.163a25.329,25.329,0,0,0-1.841-2.953c-.787-1.005-.994-.978-2.095-.6-2.212.746-4.49,1.549-6.738,2.152-.9.24-2.292.538-3.13-.063-.994-.71.194-2.158.615-2.9a61.081,61.081,0,0,1,3.646-6.32c.2-.268.751-.822.765-1.2.019-.426-.5-1.024-.71-1.344-.713-1.1-1.439-2.163-2.234-3.2-.5-.653-1.011-1.3-1.5-1.958-.287-.382-.839-.88-.918-1.382-.254-1.622,2.057-.89,2.786-.759a18.674,18.674,0,0,1,2.256.645c.852.322,1.685.7,2.551.981.62.2,1.724.628,2.349.281a9.046,9.046,0,0,0,1.71-1.855C2.321-3.725,3.553-5.243,4.935-6.6c.718-.7,1.418-1.136,1.915.046a12.9,12.9,0,0,1,.576,2.969,52.719,52.719,0,0,0,1.418,6.17,4.434,4.434,0,0,0,.325,1.128,6.106,6.106,0,0,0,1.27.912c.765.563,1.516,1.139,2.267,1.721,1.344,1.038,2.74,1.92,4.124,2.882.519.358,3.584,2.933,1.65,3.39h0M14.94,9.973c-1.259-.787-2.417-1.7-3.6-2.608q-.951-.733-1.915-1.445c-.505-.369-1.584-.855-1.874-1.429-.142-.281-.049-.453-.071-.729a6.008,6.008,0,0,0-.246-1.109c-.221-.792-.432-1.59-.625-2.39-.415-1.743-.65-3.5-.967-5.258C4.55-3.883,3.545-2.684,2.512-1.512,1.723-.611.71.971-.459,1.282A6.758,6.758,0,0,1-4.305.624C-4.98.367-5.641.075-6.318-.171-6.657-.294-7-.412-7.343-.5c-.115-.033-1.093-.227-.492-.126-.533-.1.188.508.35.718.235.3.47.606.7.912.505.661,1,1.33,1.464,2.027.768,1.161,1.991,2.54,1.456,4.059A9.171,9.171,0,0,1-5.1,8.968c-.41.617-.754,1.295-1.109,1.953-.808,1.491-1.669,2.947-2.486,4.433,1.6-.052,3.215-.92,4.728-1.409.8-.257,1.6-.462,2.406-.694a7.154,7.154,0,0,1,2.349-.623c1.429.1,2.477,2.032,3.168,3.174.855,1.407,1.7,2.8,2.584,4.182.044-1.592.115-3.193.112-4.785,0-1.415-.259-3.291,1.1-4.07,1.251-.718,2.955-.5,4.318-.407,1.5.109,3,.309,4.5.366A18.218,18.218,0,0,0,14.94,9.973c-.317-.2.56.35,0,0" transform="translate(10.674 7.289)" fill="#2e3540"/>
      <path id="Path_7979_-_Outline-2" data-name="Path 7979 - Outline" d="M7.249,23.7c-.891,0-1.489-1.006-1.926-1.741-.076-.128-.142-.239-.2-.323q-.235-.358-.471-.714c-.529-.8-1.075-1.623-1.57-2.472q-.175-.3-.348-.607a18.672,18.672,0,0,0-1.454-2.288c-.472-.6-.607-.651-.735-.651a3.191,3.191,0,0,0-.806.212l-1.043.353c-1.875.637-3.814,1.3-5.726,1.808a7.78,7.78,0,0,1-1.936.307,2.721,2.721,0,0,1-1.615-.446,1.453,1.453,0,0,1-.5-1.73,6.15,6.15,0,0,1,.741-1.446c.089-.14.173-.273.233-.38.347-.615.691-1.266,1.024-1.9A35.508,35.508,0,0,1-6.428,7.213c.054-.074.122-.155.2-.25a2.8,2.8,0,0,0,.466-.675A2.56,2.56,0,0,0-6.21,5.5c-.067-.092-.13-.18-.181-.258C-7.224,3.955-7.906,2.979-8.6,2.076c-.176-.23-.353-.458-.529-.686C-9.454.974-9.787.543-10.109.111c-.063-.083-.149-.183-.24-.289a2.865,2.865,0,0,1-.771-1.314,1.363,1.363,0,0,1,.259-1.146,1.6,1.6,0,0,1,1.274-.469,7.3,7.3,0,0,1,1.522.22c.125.028.233.052.313.066a19.093,19.093,0,0,1,2.344.669c.315.119.63.247.934.37.521.211,1.06.43,1.594.6l.2.067a5.007,5.007,0,0,0,1.4.321A.742.742,0,0,0-.926-.86,4.769,4.769,0,0,0,.167-2.011c.169-.218.329-.424.487-.6.384-.429.77-.874,1.144-1.3.887-1.021,1.8-2.077,2.788-3.041a2.349,2.349,0,0,1,1.487-.834c.531,0,.948.351,1.239,1.044a8.649,8.649,0,0,1,.505,2.314c.033.268.064.521.1.77a52.144,52.144,0,0,0,1.4,6.111c.032.114.058.243.086.379a2.62,2.62,0,0,0,.164.594,2.857,2.857,0,0,0,.7.508c.168.1.326.2.461.295.8.589,1.567,1.178,2.277,1.728.911.7,1.871,1.351,2.8,1.978.427.288.869.586,1.3.888A10.832,10.832,0,0,1,18.55,10.1c.808.86,1.15,1.55,1.044,2.111a1.135,1.135,0,0,1-.9.872v0l-.1.023h0l-.017,0-.024.006-.072.017-.1.023-.113.027h0a.451.451,0,0,1-.12.015,9.652,9.652,0,0,1-1.643.129,26.138,26.138,0,0,1-3.078-.245c-.7-.084-1.369-.164-2.017-.2-.128-.007-.279-.021-.44-.036-.318-.029-.714-.066-1.088-.066-.782,0-1.052.161-1.143.256,0,0-.11.123-.127.676A12.086,12.086,0,0,0,8.673,15c.026.324.049.6.045.815-.011.631-.032,1.273-.051,1.894-.018.563-.036,1.146-.047,1.717,0,.161.006.39.017.655.055,1.294.123,2.9-.776,3.443A1.179,1.179,0,0,1,7.249,23.7Zm-6.7-9.8c.66,0,1.063.448,1.522,1.034a19.417,19.417,0,0,1,1.536,2.41q.171.3.344.6c.48.824,1.018,1.637,1.539,2.423q.238.359.474.718c.067.1.142.228.221.361.2.342.744,1.252,1.066,1.252a.182.182,0,0,0,.1-.033c.034-.021.212-.161.285-.869a12.253,12.253,0,0,0,.006-1.674c-.012-.282-.022-.526-.018-.719.012-.576.03-1.161.048-1.727.019-.618.039-1.256.051-1.882,0-.162-.019-.431-.042-.716-.1-1.245-.14-2.237.342-2.74a2.459,2.459,0,0,1,1.866-.566c.42,0,.841.039,1.179.07.159.015.3.027.407.034.678.04,1.389.125,2.077.207a25.4,25.4,0,0,0,2.959.238,8.075,8.075,0,0,0,1.844-.189l.015,0h0c.2-.047.243-.105.243-.106.022-.057-.037-.428-.736-1.187a10,10,0,0,0-1.328-1.2c-.431-.3-.87-.6-1.294-.882-.941-.635-1.915-1.292-2.852-2.016-.705-.546-1.466-1.132-2.258-1.714-.1-.071-.235-.154-.382-.242a3.327,3.327,0,0,1-1-.779,2.626,2.626,0,0,1-.334-.982c-.024-.117-.046-.228-.068-.3A53.118,53.118,0,0,1,6.932-3.5c-.042-.267-.076-.541-.109-.805a7.916,7.916,0,0,0-.435-2.05c-.125-.3-.249-.431-.317-.431-.084,0-.3.071-.787.548C4.33-5.3,3.426-4.264,2.552-3.258c-.376.433-.764.88-1.153,1.315-.134.15-.284.343-.442.546A5.333,5.333,0,0,1-.441.015a1.711,1.711,0,0,1-.838.194A5.737,5.737,0,0,1-2.99-.164l-.195-.064c-.569-.183-1.126-.409-1.664-.627-.3-.121-.608-.247-.911-.362a18.444,18.444,0,0,0-2.165-.62c-.1-.018-.219-.044-.355-.074a6.534,6.534,0,0,0-1.306-.2c-.382,0-.49.092-.514.12a.475.475,0,0,0-.031.34,2.271,2.271,0,0,0,.54.816c.1.119.2.231.284.344.317.426.647.853.967,1.265q.267.344.532.689c.7.912,1.419,1.938,2.257,3.227.037.057.093.134.152.216a2.5,2.5,0,0,1,.638,1.422A2.417,2.417,0,0,1-5.46,7.6c-.065.078-.127.152-.163.2A34.774,34.774,0,0,0-8.2,12.156c-.336.635-.684,1.292-1.037,1.919-.073.129-.164.272-.259.424-.618.976-.88,1.556-.5,1.827a1.763,1.763,0,0,0,1.033.26,6.851,6.851,0,0,0,1.677-.273c1.88-.5,3.8-1.158,5.664-1.79l1.044-.354A3.637,3.637,0,0,1,.548,13.9Zm6,6.579a.5.5,0,0,1-.421-.23c-.842-1.315-1.663-2.666-2.456-3.972l-.134-.22L3.378,15.8c-.619-1.035-1.555-2.6-2.622-2.677-.033,0-.067,0-.1,0a3.971,3.971,0,0,0-1.33.348c-.241.092-.491.187-.742.26-.277.08-.557.158-.828.233-.515.143-1.048.291-1.564.457-.433.14-.872.311-1.337.492a10.926,10.926,0,0,1-3.528.941.5.5,0,0,1-.442-.238.5.5,0,0,1-.012-.5c.375-.683.765-1.369,1.143-2.033.445-.783.905-1.593,1.342-2.4l.187-.35c.292-.548.595-1.114.945-1.641.142-.213.3-.414.449-.609a4.428,4.428,0,0,0,.731-1.164c.374-1.061-.35-2.1-1.05-3.1-.124-.177-.24-.344-.352-.513-.481-.726-1-1.418-1.444-2C-7.411,1-7.649.693-7.879.4c-.023-.03-.1-.106-.15-.161-.271-.28-.53-.547-.5-.864a.489.489,0,0,1,0-.085.5.5,0,0,1,.5-.444,1.5,1.5,0,0,1,.251.032l.029,0a.5.5,0,0,1,.14.047l.029.006c.213.045.314.068.367.082.372.1.73.225,1.062.345.391.142.779.3,1.154.452.284.116.578.235.867.345A8.688,8.688,0,0,0-1.27.882,2.661,2.661,0,0,0-.588.8C.171.6.954-.383,1.584-1.17c.193-.242.376-.47.553-.672.249-.283.5-.571.743-.85.77-.885,1.566-1.8,2.4-2.653a.5.5,0,0,1,.5-.128.5.5,0,0,1,.345.389c.1.544.189,1.094.277,1.626.2,1.187.4,2.414.684,3.6.184.758.387,1.534.621,2.371l.01.037A6.177,6.177,0,0,1,7.976,3.72a2.1,2.1,0,0,1,0,.326c-.009.136-.009.159.022.22a3.582,3.582,0,0,0,1.138.878c.216.13.42.252.584.372.578.424,1.19.885,1.925,1.453l.37.285c1.051.809,2.046,1.574,3.128,2.255h0l.03.019.1.059.068.043.058.036h0a16.839,16.839,0,0,1,1.5,1.029.5.5,0,0,1-.329.892c-.934-.036-1.877-.126-2.789-.214-.568-.055-1.156-.111-1.729-.153l-.4-.03c-.483-.037-.982-.075-1.478-.075a4.257,4.257,0,0,0-2.158.447c-.925.528-.893,1.806-.863,3.042.005.206.01.4.01.593,0,1.172-.036,2.364-.073,3.516q-.021.643-.039,1.285a.5.5,0,0,1-.5.486ZM.653,12.123c.058,0,.117,0,.174.006,1.587.115,2.683,1.948,3.409,3.161l.152.253.133.219c.514.846,1.039,1.71,1.574,2.57.033-1.034.063-2.095.061-3.133,0-.181-.005-.37-.01-.57-.034-1.386-.077-3.111,1.365-3.934a5.188,5.188,0,0,1,2.655-.579c.534,0,1.053.04,1.554.078l.392.029c.586.043,1.18.1,1.754.155.3.029.608.058.915.086l-.107-.067h0c-1.148-.717-2.227-1.547-3.27-2.35l-.37-.285C10.3,7.2,9.7,6.741,9.127,6.323,9,6.231,8.815,6.119,8.619,6A3.878,3.878,0,0,1,7.1,4.717a1.293,1.293,0,0,1-.127-.739,1.2,1.2,0,0,0,0-.176,5.378,5.378,0,0,0-.217-.972L6.751,2.79c-.238-.851-.444-1.638-.631-2.409-.292-1.227-.5-2.471-.7-3.675-.035-.21-.07-.422-.106-.635-.576.622-1.136,1.266-1.683,1.895-.244.28-.5.569-.746.853-.161.184-.337.4-.523.636a6.043,6.043,0,0,1-2.7,2.31,3.66,3.66,0,0,1-.939.117,9.433,9.433,0,0,1-3.212-.79c-.3-.114-.6-.236-.889-.354C-5.737.588-6.116.434-6.489.3L-6.766.2c.127.165.255.332.382.5C-5.931,1.291-5.4,2-4.9,2.751c.1.158.218.321.338.492.766,1.1,1.718,2.462,1.173,4.009A5.244,5.244,0,0,1-4.274,8.7c-.147.189-.285.368-.407.55C-5,9.732-5.3,10.277-5.576,10.8l-.19.355c-.442.814-.9,1.629-1.352,2.416-.216.38-.436.768-.656,1.158a15.38,15.38,0,0,0,2.263-.751c.458-.178.931-.363,1.393-.512.536-.172,1.079-.323,1.6-.468.268-.074.546-.151.818-.23.211-.061.431-.145.663-.233A4.752,4.752,0,0,1,.653,12.123Z" transform="translate(10.674 7.289)" fill="#2e3540"/>
    </g>
  </g>
</svg>
