<svg xmlns="http://www.w3.org/2000/svg" xmlns:xlink="http://www.w3.org/1999/xlink" width="211.988" height="125.373" viewBox="0 0 211.988 125.373">
  <defs>
    <clipPath id="clip-path">
      <path id="Path_7951" data-name="Path 7951" d="M0,0H211.988V-114.226H0Z" fill="none"/>
    </clipPath>
  </defs>
  <g id="Group_31126" data-name="Group 31126" transform="translate(-288 -611.113)">
    <g id="Group_31027" data-name="Group 31027" transform="translate(288 725.339)">
      <g id="Group_31026" data-name="Group 31026" clip-path="url(#clip-path)">
        <g id="Group_31017" data-name="Group 31017" transform="translate(45.868 -106.154)">
          <path id="Path_7942" data-name="Path 7942" d="M0,0S10.178,2.831,9.875,3.671s-1.787,8.263-2.336,9.086S2.47,22.09-.581,19.737-17.194,13.465-15.127,12.1,0,0,0,0" fill="#ecf3d0"/>
        </g>
        <g id="Group_31018" data-name="Group 31018" transform="translate(55.105 -73.335)">
          <path id="Path_7943" data-name="Path 7943" d="M0,0A2.259,2.259,0,0,0,1.4-.374a2.256,2.256,0,0,0,.918-2.495C-.659-13.325.12-17.589,6.484-25.685a2.255,2.255,0,0,0,.2-2.5,2.246,2.246,0,0,0-2.225-1.141c-10.366,1.183-14.494-.448-22.068-8.74a2.253,2.253,0,0,0-2.635-.515,2.255,2.255,0,0,0-1.26,2.371c1.9,12.651.043,17.715-9.938,27.092a2.258,2.258,0,0,0-.412,2.769,2.254,2.254,0,0,0,2.6,1.037c12.967-3.873,18.2-2.969,28,4.823A2.257,2.257,0,0,0,0,0M.059-24.483C-3.547-18.9-4.535-14.206-3.42-7.612c-6.386-4.079-11.863-5.194-19.485-3.882,5.023-5.984,6.839-11.346,6.512-19C-11.261-26-6.684-24.338.059-24.483" fill="#2e3540"/>
        </g>
        <g id="Group_31021" data-name="Group 31021" transform="translate(19.583 -26.233)">
          <path id="Path_7946" data-name="Path 7946" d="M0,0S10.178,2.831,9.875,3.671s-1.788,8.263-2.336,9.086-5.069,9.334-8.12,6.98S-17.194,13.465-15.127,12.1,0,0,0,0" fill="#ecf3d0"/>
        </g>
        <g id="Group_31022" data-name="Group 31022" transform="translate(118.218 -17.987)">
          <path id="Path_7947" data-name="Path 7947" d="M0,0C-29.321,31.284-63.776,8.453-63.776,8.453S13.537,6.242-5.4-84.915c0,0,51.368,35.866,5.4,84.915" fill="#4eacd7"/>
        </g>
        <g id="Group_31023" data-name="Group 31023" transform="translate(77.038 -0.127)">
          <path id="Path_7948" data-name="Path 7948" d="M0,0A56.31,56.31,0,0,0,20.491-2.407,56.244,56.244,0,0,0,53.8-30.125a56.25,56.25,0,0,0,3.955-43.153,56.318,56.318,0,0,0-33.371-35.864A56.631,56.631,0,0,0,8.2-112.889l-.031,0a2.256,2.256,0,0,0-2.213,1.337A2.254,2.254,0,0,0,6.474-109,52.068,52.068,0,0,1,20.535-86.54,51.765,51.765,0,0,1,16.9-46.824,51.775,51.775,0,0,1-13.76-21.315a51.79,51.79,0,0,1-19.613,2.156,2.342,2.342,0,0,0-2.242,1.335,2.256,2.256,0,0,0,.519,2.558A56.819,56.819,0,0,0,0,0M14.089-107.506a52.451,52.451,0,0,1,8.65,2.564,51.828,51.828,0,0,1,30.71,33,51.766,51.766,0,0,1-3.641,39.714A51.765,51.765,0,0,1,19.153-6.715a52.223,52.223,0,0,1-46.3-7.8,56.037,56.037,0,0,0,14.72-2.5A56.252,56.252,0,0,0,20.891-44.724,56.248,56.248,0,0,0,24.843-87.88a56.534,56.534,0,0,0-10.754-19.626" fill="#2e3540"/>
        </g>
        <g id="Group_31024" data-name="Group 31024" transform="translate(23.233 -6.24)">
          <path id="Path_7949" data-name="Path 7949" d="M0,0A2.246,2.246,0,0,0,1.575-.5a2.255,2.255,0,0,0,.4-3.078c-6.145-8.4,2.19-20.058,2.277-20.175a2.254,2.254,0,0,0-.375-3.054A2.255,2.255,0,0,0,.8-26.65a10.314,10.314,0,0,1-8.232,3.084l-.029,0a13.088,13.088,0,0,1-9.472-5.256,2.256,2.256,0,0,0-3.022-.556,2.256,2.256,0,0,0-.772,2.975c.231.432,5.615,10.756-1.853,18.271a2.254,2.254,0,0,0-.2,2.943,2.258,2.258,0,0,0,2.887.624c1.336-.729,5.434-2.53,8.376-2.111,5.236.756,9.95,5.891,10,5.944A2.253,2.253,0,0,0,0,0M-3.073-19.446A23.321,23.321,0,0,0-4.734-8.933a17.867,17.867,0,0,0-6.138-2.211,13.743,13.743,0,0,0-4.562.2,19.94,19.94,0,0,0,1.07-9.975,17.075,17.075,0,0,0,6.6,1.849l.038,0a15.644,15.644,0,0,0,4.65-.381" fill="#2e3540"/>
        </g>
        <g id="Group_31025" data-name="Group 31025" transform="translate(49.785 -11.688)">
          <path id="Path_7950" data-name="Path 7950" d="M0,0A2.09,2.09,0,0,0,.754-.088C34.908-10.5,54.622-25.632,59.344-45.072c6.316-26-16.555-49.527-17.531-50.516a2.12,2.12,0,0,0-3.073.048,2.316,2.316,0,0,0,.03,3.189c.221.224,22.072,22.742,16.356,46.218C50.8-28.372,32.1-14.336-.453-4.416a2.283,2.283,0,0,0-1.484,2.8A2.178,2.178,0,0,0,0,0" fill="#2e3540"/>
        </g>
      </g>
    </g>
    <g id="Group_31061" data-name="Group 31061" transform="translate(-1173 -351.993)">
      <g id="Group_31053" data-name="Group 31053" transform="translate(1601.093 1073.878)">
        <path id="Path_7977" data-name="Path 7977" d="M19.648,4.376a2.026,2.026,0,0,0,.2-4.026L1.638-2.5A2.032,2.032,0,0,0-.678-.813,2.028,2.028,0,0,0,1.01,1.5L19.228,4.355a1.986,1.986,0,0,0,.421.022" transform="translate(0.703 2.528)" fill="#2e3540"/>
      </g>
      <g id="Group_31054" data-name="Group 31054" transform="translate(1608.862 1066.185)">
        <path id="Path_7978" data-name="Path 7978" d="M.479,14.13A2.029,2.029,0,0,0,2.358,12.4L5.035-5.84a2.026,2.026,0,0,0-1.71-2.3,2.033,2.033,0,0,0-2.3,1.71L-1.655,11.813a2.03,2.03,0,0,0,1.71,2.3,2.214,2.214,0,0,0,.423.016" transform="translate(1.676 8.161)" fill="#2e3540"/>
      </g>
    </g>
  </g>
</svg>
