<svg xmlns="http://www.w3.org/2000/svg" width="248.673" height="855.686" viewBox="0 0 248.673 855.686">
  <g id="Group_31122" data-name="Group 31122" transform="translate(76.387 -1728.763)">
    <g id="Group_31057" data-name="Group 31057" transform="translate(81.778 2329.312)">
      <path id="Path_7952" data-name="Path 7952" d="M29.621,12.192c-2.2.645-4.777.142-7.044.128-.748-.005-2.464-.2-3.04.47-.467.544-.019,2.423.005,3.122.038,1.2.052,2.406.087,3.611.027.858.464,3.171-.322,3.7-.86.579-1.71-1.03-2.147-1.625-.74-1.005-1.5-2-2.188-3.051A25.832,25.832,0,0,0,12.979,15.7c-.839-.961-1.043-.923-2.125-.494-2.169.86-4.4,1.784-6.615,2.5-.882.287-2.259.658-3.13.1-1.03-.658.082-2.166.462-2.931a61.267,61.267,0,0,1,3.31-6.5c.183-.279.707-.863.7-1.24,0-.429-.554-1-.778-1.3-.77-1.063-1.551-2.087-2.4-3.076C1.87,2.13,1.327,1.512.8.879.5.51-.083.043-.187-.454c-.341-1.606,2-1,2.74-.9a18.515,18.515,0,0,1,2.289.524c.869.279,1.721.615,2.6.847C8.07.18,9.2.548,9.8.169a9.038,9.038,0,0,0,1.609-1.939c1.218-1.516,2.368-3.095,3.679-4.52.677-.74,1.355-1.21,1.915-.052a12.973,12.973,0,0,1,.729,2.931,52.886,52.886,0,0,0,1.737,6.088,4.485,4.485,0,0,0,.385,1.112,6.15,6.15,0,0,0,1.317.844c.792.522,1.573,1.06,2.354,1.6C24.923,7.2,26.362,8,27.8,8.893c.538.333,3.734,2.742,1.825,3.3-.918.268.473-.137,0,0M25.947,9.734c-1.3-.718-2.5-1.571-3.734-2.417-.658-.453-1.319-.9-1.988-1.341-.522-.341-1.625-.77-1.945-1.33-.158-.273-.074-.451-.109-.721a6.288,6.288,0,0,0-.3-1.1c-.265-.778-.516-1.562-.748-2.354-.508-1.715-.833-3.455-1.243-5.2C14.847-3.56,13.9-2.309,12.938-1.085c-.743.94-1.672,2.573-2.824,2.944A6.73,6.73,0,0,1,6.24,1.4C5.552,1.185,4.877.928,4.186.715,3.845.611,3.5.513,3.148.436c-.117-.025-1.1-.169-.5-.1-.535-.066.216.5.388.7.251.29.5.582.748.874.538.634,1.071,1.276,1.568,1.947C6.18,4.976,7.475,6.29,7.019,7.836A9.078,9.078,0,0,1,5.885,9.778c-.377.639-.683,1.336-1.005,2.008-.729,1.532-1.513,3.032-2.251,4.559,1.6-.137,3.163-1.087,4.649-1.655.781-.3,1.576-.544,2.365-.817a7.168,7.168,0,0,1,2.313-.746c1.431.027,2.578,1.9,3.332,3,.926,1.36,1.841,2.7,2.8,4.04-.041-1.592-.052-3.2-.139-4.785-.076-1.412-.429-3.272.89-4.122,1.213-.781,2.925-.658,4.291-.631,1.5.027,3.015.15,4.515.128a18.546,18.546,0,0,0-1.7-1.027c-.328-.18.576.32,0,0" transform="translate(0.22 7.042)" fill="#2e3540"/>
      <path id="Path_7952_-_Outline" data-name="Path 7952 - Outline" d="M18.926,23.848c-.861,0-1.494-.949-1.955-1.641-.082-.124-.154-.23-.213-.312l-.434-.587c-.594-.8-1.209-1.63-1.769-2.486-.136-.207-.274-.421-.406-.627A18.493,18.493,0,0,0,12.6,16.026c-.446-.512-.612-.612-.747-.612a2.934,2.934,0,0,0-.817.253l-1.027.409c-1.838.734-3.738,1.493-5.618,2.1a7.138,7.138,0,0,1-2.134.414,2.6,2.6,0,0,1-1.42-.367,1.454,1.454,0,0,1-.593-1.7,6.142,6.142,0,0,1,.663-1.481c.081-.145.158-.282.213-.392.316-.636.627-1.307.928-1.955A35.462,35.462,0,0,1,4.463,8.1c.05-.076.114-.161.188-.26a2.818,2.818,0,0,0,.432-.7,2.532,2.532,0,0,0-.491-.769c-.07-.086-.136-.168-.19-.242C3.52,4.912,2.766,3.945,2.026,3.08q-.267-.312-.536-.622C1.136,2.049.769,1.625.415,1.2.344,1.113.251,1.015.152.911A2.837,2.837,0,0,1-.676-.352,1.348,1.348,0,0,1-.461-1.531,1.718,1.718,0,0,1,.962-2.048,8.315,8.315,0,0,1,2.3-1.9c.126.021.235.039.315.049a18.954,18.954,0,0,1,2.378.544c.319.1.637.213.944.319.534.185,1.086.377,1.629.521l.2.056A5.545,5.545,0,0,0,9.1-.166a.858.858,0,0,0,.437-.09,4.779,4.779,0,0,0,1.032-1.207c.157-.225.305-.438.453-.621.357-.444.715-.9,1.061-1.346.836-1.071,1.7-2.179,2.64-3.2a2.248,2.248,0,0,1,1.5-.912c.506,0,.922.33,1.237.981a8.629,8.629,0,0,1,.622,2.273c.048.268.092.522.146.771a52.287,52.287,0,0,0,1.721,6.03c.04.114.074.247.11.387a2.583,2.583,0,0,0,.19.572,2.838,2.838,0,0,0,.725.47c.174.092.339.179.48.272.81.533,1.611,1.086,2.363,1.606.946.655,1.938,1.251,2.9,1.827.442.266.9.54,1.351.819.029.018,2.844,1.856,2.653,3.256a1.119,1.119,0,0,1-.8.9l-.063.023v0l-.075.022-.129.038-.161.046-.046.013h0a.463.463,0,0,1-.124.022,10.727,10.727,0,0,1-2.4.234c-.774,0-1.557-.052-2.315-.1-.711-.048-1.382-.092-2.035-.1-.126,0-.275-.007-.432-.013-.214-.008-.456-.018-.7-.018-1.028,0-1.4.177-1.523.326,0,0-.1.129-.09.685a12.173,12.173,0,0,0,.128,1.289c.043.319.08.6.088.8.02.641.034,1.291.047,1.92.012.556.024,1.13.04,1.694.005.158.027.384.052.646.124,1.29.278,2.9-.595,3.484A1.168,1.168,0,0,1,18.926,23.848Zm-7.071-9.434c.619,0,1.029.414,1.5.954a19.238,19.238,0,0,1,1.633,2.286c.131.2.267.415.4.619.544.833,1.15,1.649,1.736,2.439l.437.59c.074.1.154.221.24.349.239.358.8,1.2,1.123,1.2a.173.173,0,0,0,.1-.039c.034-.023.205-.173.24-.886a12.222,12.222,0,0,0-.083-1.673c-.027-.279-.05-.52-.056-.711-.017-.569-.029-1.146-.041-1.7-.013-.626-.027-1.273-.047-1.907-.006-.158-.041-.424-.079-.7-.167-1.24-.259-2.231.194-2.759a3.011,3.011,0,0,1,2.282-.675c.266,0,.519.01.742.019.156.006.29.011.4.012.682,0,1.4.052,2.095.1.741.05,1.508.1,2.248.1a9.016,9.016,0,0,0,2.549-.305l.008,0h0c.2-.058.24-.119.241-.12.019-.058-.059-.425-.8-1.146a10.163,10.163,0,0,0-1.391-1.129c-.445-.276-.9-.549-1.339-.812-.973-.584-1.979-1.188-2.952-1.862C22.5,6.126,21.7,5.577,20.9,5.049c-.1-.067-.244-.143-.4-.223A3.319,3.319,0,0,1,19.468,4.1a2.53,2.53,0,0,1-.382-.952c-.031-.12-.06-.233-.087-.309a53.279,53.279,0,0,1-1.754-6.148c-.057-.267-.106-.541-.153-.806a7.9,7.9,0,0,0-.538-2.013c-.138-.286-.271-.416-.336-.416s-.273.057-.759.588c-.912.991-1.764,2.083-2.588,3.139-.348.446-.709.908-1.07,1.357-.126.157-.265.356-.411.567A5.34,5.34,0,0,1,10.067.593,1.8,1.8,0,0,1,9.1.834,6.3,6.3,0,0,1,7.507.55L7.312.5c-.58-.154-1.15-.351-1.7-.543-.3-.1-.614-.213-.921-.311a18.3,18.3,0,0,0-2.2-.5c-.1-.013-.221-.033-.358-.056A7.526,7.526,0,0,0,.962-1.048c-.388,0-.588.076-.645.147A.465.465,0,0,0,.3-.558,2.239,2.239,0,0,0,.876.221c.112.118.218.229.31.341C1.532.978,1.9,1.4,2.247,1.8q.27.312.539.625c.758.886,1.528,1.873,2.423,3.107.038.052.1.124.159.2A2.5,2.5,0,0,1,6.082,7.13,2.432,2.432,0,0,1,5.45,8.439c-.061.082-.119.158-.152.21a34.724,34.724,0,0,0-2.341,4.47c-.3.655-.618,1.332-.94,1.979-.066.133-.149.281-.237.437-.565,1.006-.8,1.6-.4,1.85a1.627,1.627,0,0,0,.881.21,6.347,6.347,0,0,0,1.825-.365c1.849-.6,3.733-1.353,5.556-2.081l1.029-.41A3.305,3.305,0,0,1,11.855,14.414Zm6.773,7.373-.948-1.325c-.964-1.347-1.9-2.721-2.8-4.049l-.18-.266c-.671-1-1.686-2.5-2.748-2.52h-.023a3.708,3.708,0,0,0-1.4.423c-.234.1-.475.21-.719.295-.273.094-.548.186-.814.275-.508.169-1.033.344-1.538.537-.424.162-.853.355-1.307.56a10.967,10.967,0,0,1-3.478,1.126l-.875.075.382-.791c.34-.7.694-1.41,1.037-2.095.4-.8.82-1.636,1.213-2.461.072-.149.142-.3.212-.448.25-.532.509-1.081.814-1.6.131-.22.275-.428.416-.629a4.407,4.407,0,0,0,.67-1.2c.319-1.082-.46-2.081-1.213-3.047-.132-.169-.256-.329-.376-.49-.5-.679-1.04-1.325-1.547-1.921-.219-.26-.455-.536-.745-.87-.025-.03-.1-.1-.159-.154C2.214.946,1.942.693,1.958.374a.5.5,0,0,1,0-.1L2-.181h.463A2.085,2.085,0,0,1,2.7-.16h.012l0,.016.212.034c.2.031.286.046.331.055.406.089.79.2,1.081.29.38.117.755.247,1.117.373.309.107.629.218.943.317a9.4,9.4,0,0,0,2.7.581,2.806,2.806,0,0,0,.863-.124c.747-.241,1.477-1.256,2.063-2.072.183-.254.355-.494.523-.707q.333-.421.664-.846c.733-.937,1.49-1.907,2.293-2.816l.64-.725.221.942c.127.541.248,1.089.364,1.618.258,1.171.525,2.383.871,3.552.219.749.462,1.512.742,2.335l.035.106a6,6,0,0,1,.29,1.086,2.054,2.054,0,0,1,.013.323c0,.134,0,.157.033.215a3.554,3.554,0,0,0,1.183.821c.223.118.433.23.6.341.708.462,1.407.941,2,1.348l.35.241c1.126.778,2.19,1.512,3.342,2.15l.024.013.025.014.105.058.013.007.025.014a17.531,17.531,0,0,1,1.55.949l1.26.886-1.54.022c-.917.013-1.849-.027-2.749-.066-.586-.025-1.192-.052-1.783-.062l-.375-.009c-.279-.007-.567-.015-.856-.015a5.208,5.208,0,0,0-2.78.575c-.9.576-.8,1.852-.7,3.086.016.2.03.4.041.589.063,1.148.087,2.318.11,3.449.009.443.018.9.03,1.35Zm-6.7-9.16h.041c1.583.03,2.772,1.794,3.559,2.96l.177.262c.6.886,1.22,1.792,1.848,2.695-.021-1.034-.046-2.095-.1-3.131-.01-.181-.024-.368-.039-.567-.106-1.383-.238-3.1,1.158-4a6.076,6.076,0,0,1,3.322-.734c.3,0,.6.008.882.015l.368.009c.6.011,1.215.037,1.807.063.286.012.576.025.868.036l-.065-.036-.082-.045-.019-.011-.009,0h0c-1.171-.654-2.283-1.422-3.36-2.165l-.349-.241c-.586-.4-1.279-.878-1.978-1.334-.132-.086-.323-.188-.525-.3a3.869,3.869,0,0,1-1.581-1.206,1.277,1.277,0,0,1-.166-.732,1.164,1.164,0,0,0,0-.171,5.2,5.2,0,0,0-.247-.9l-.035-.1c-.284-.834-.531-1.611-.754-2.372-.356-1.2-.627-2.431-.888-3.619-.046-.211-.093-.424-.141-.639C15.057-2.982,14.52-2.3,14-1.625q-.333.426-.667.85c-.154.195-.32.426-.5.67a6.026,6.026,0,0,1-2.567,2.44A3.8,3.8,0,0,1,9.1,2.508a10.146,10.146,0,0,1-3.009-.628c-.325-.1-.65-.216-.966-.325-.355-.123-.721-.25-1.083-.361L3.76,1.11c.146.171.28.328.408.48.517.608,1.068,1.27,1.587,1.972.112.151.233.306.36.47C6.939,5.087,7.963,6.4,7.5,7.977a5.224,5.224,0,0,1-.808,1.489c-.136.2-.264.38-.376.567-.281.476-.529,1-.769,1.515q-.107.228-.215.453c-.4.833-.816,1.67-1.221,2.478-.2.392-.4.793-.6,1.195a15.439,15.439,0,0,0,2.225-.87c.447-.2.909-.41,1.361-.583.526-.2,1.061-.379,1.578-.551.263-.088.536-.179.8-.271.2-.071.417-.165.643-.265A4.548,4.548,0,0,1,11.925,12.626Z" transform="translate(0.22 7.042)" fill="#2e3540"/>
    </g>
    <g id="Group_31060" data-name="Group 31060" transform="translate(-1577.136 942.551)">
      <g id="Group_31053" data-name="Group 31053" transform="translate(1601.093 1073.878)">
        <path id="Path_7977" data-name="Path 7977" d="M19.648,4.376a2.026,2.026,0,0,0,.2-4.026L1.638-2.5A2.032,2.032,0,0,0-.678-.813,2.028,2.028,0,0,0,1.01,1.5L19.228,4.355a1.986,1.986,0,0,0,.421.022" transform="translate(0.703 2.528)" fill="#2e3540"/>
      </g>
      <g id="Group_31054" data-name="Group 31054" transform="translate(1608.862 1066.185)">
        <path id="Path_7978" data-name="Path 7978" d="M.479,14.13A2.029,2.029,0,0,0,2.358,12.4L5.035-5.84a2.026,2.026,0,0,0-1.71-2.3,2.033,2.033,0,0,0-2.3,1.71L-1.655,11.813a2.03,2.03,0,0,0,1.71,2.3,2.214,2.214,0,0,0,.423.016" transform="translate(1.676 8.161)" fill="#2e3540"/>
      </g>
    </g>
    <g id="Group_31058" data-name="Group 31058" transform="translate(142 1899.322)">
      <path id="Path_7979" data-name="Path 7979" d="M-10.04,12.62c2.234.527,4.777-.107,7.039-.24.748-.044,2.45-.333,3.062.309.5.519.147,2.417.161,3.119.022,1.2.074,2.406.1,3.611.019.858-.295,3.193.516,3.679.89.533,1.655-1.12,2.059-1.734.686-1.046,1.4-2.079,2.027-3.163a25.329,25.329,0,0,1,1.841-2.953c.787-1.005.994-.978,2.095-.6,2.212.746,4.49,1.549,6.738,2.152.9.24,2.292.538,3.13-.063.994-.71-.194-2.158-.615-2.9a61.081,61.081,0,0,0-3.646-6.32c-.2-.268-.751-.822-.765-1.2-.019-.426.5-1.024.71-1.344.713-1.1,1.439-2.163,2.234-3.2.5-.653,1.011-1.3,1.5-1.958.287-.382.839-.88.918-1.382.254-1.622-2.057-.89-2.786-.759a18.674,18.674,0,0,0-2.256.645c-.852.322-1.685.7-2.551.981-.62.2-1.723.628-2.349.281a9.046,9.046,0,0,1-1.71-1.855C6.118-3.725,4.887-5.243,3.5-6.6c-.718-.7-1.418-1.136-1.915.046a12.9,12.9,0,0,0-.576,2.969A52.719,52.719,0,0,1-.4,2.588,4.434,4.434,0,0,1-.729,3.716,6.106,6.106,0,0,1-2,4.628c-.765.563-1.516,1.139-2.267,1.721C-5.61,7.387-7.006,8.269-8.391,9.23c-.519.358-3.584,2.934-1.65,3.39h0M-6.5,9.973c1.259-.787,2.417-1.7,3.6-2.608q.951-.733,1.915-1.445C-.478,5.551.6,5.065.891,4.491c.142-.281.049-.453.071-.729a6.008,6.008,0,0,1,.246-1.109c.221-.792.432-1.59.625-2.39.415-1.743.65-3.5.967-5.258C3.89-3.883,4.895-2.684,5.927-1.512c.789.9,1.8,2.483,2.972,2.794A6.758,6.758,0,0,0,12.745.624c.675-.257,1.336-.549,2.013-.795.339-.123.677-.24,1.024-.333.115-.033,1.093-.227.492-.126.533-.1-.188.508-.35.718-.235.3-.47.606-.7.912-.505.661-1,1.33-1.464,2.027-.768,1.161-1.991,2.54-1.456,4.059a9.171,9.171,0,0,0,1.235,1.882c.41.617.754,1.295,1.109,1.953.808,1.491,1.669,2.947,2.486,4.433-1.6-.052-3.215-.92-4.728-1.409-.8-.257-1.6-.462-2.406-.694a7.154,7.154,0,0,0-2.349-.623c-1.429.1-2.477,2.032-3.168,3.174-.855,1.407-1.7,2.8-2.584,4.182-.044-1.592-.115-3.193-.112-4.785,0-1.415.259-3.291-1.1-4.07-1.251-.718-2.955-.5-4.318-.407-1.5.109-3,.309-4.5.366A18.218,18.218,0,0,1-6.5,9.973c.317-.2-.56.35,0,0" transform="translate(10.674 7.289)" fill="#2e3540"/>
      <path id="Path_7979_-_Outline" data-name="Path 7979 - Outline" d="M1.19,23.7a1.178,1.178,0,0,1-.611-.175c-.9-.539-.832-2.149-.777-3.443.011-.265.021-.494.017-.654-.012-.573-.03-1.155-.047-1.719-.019-.621-.039-1.262-.051-1.894,0-.211.019-.491.045-.815a12.086,12.086,0,0,0,.059-1.292c-.018-.553-.125-.674-.126-.675-.092-.1-.362-.257-1.144-.257-.374,0-.77.036-1.088.066-.161.015-.312.029-.44.036-.648.038-1.313.118-2.017.2a26.142,26.142,0,0,1-3.078.245A9.649,9.649,0,0,1-9.71,13.2a.452.452,0,0,1-.12-.015h0l-.113-.027-.1-.023-.072-.017-.022-.005h0l-.117-.027v0a1.135,1.135,0,0,1-.9-.872c-.105-.56.236-1.251,1.044-2.111A10.828,10.828,0,0,1-8.674,8.819c.434-.3.875-.6,1.3-.887.928-.626,1.888-1.274,2.8-1.978C-3.863,5.4-3.1,4.814-2.3,4.225c.135-.1.293-.194.461-.295a2.852,2.852,0,0,0,.7-.509,2.634,2.634,0,0,0,.163-.593c.028-.136.054-.265.086-.377A52.157,52.157,0,0,0,.52-3.662c.039-.248.071-.5.1-.769a8.649,8.649,0,0,1,.505-2.314c.291-.693.708-1.044,1.239-1.044a2.348,2.348,0,0,1,1.486.833c.984.965,1.9,2.021,2.788,3.042.373.43.76.874,1.144,1.3.157.176.317.382.487.6A4.768,4.768,0,0,0,9.365-.86a.742.742,0,0,0,.353.068,5.008,5.008,0,0,0,1.4-.321l.2-.067c.534-.172,1.073-.39,1.594-.6.3-.124.619-.251.934-.37a19.077,19.077,0,0,1,2.347-.67c.077-.014.185-.038.31-.066a7.3,7.3,0,0,1,1.522-.22,1.6,1.6,0,0,1,1.274.469,1.363,1.363,0,0,1,.259,1.145,2.865,2.865,0,0,1-.771,1.314c-.091.106-.177.206-.241.291-.32.431-.654.861-.977,1.278q-.265.342-.528.685c-.7.9-1.378,1.88-2.212,3.164-.051.079-.114.166-.181.258a2.536,2.536,0,0,0-.449.791,2.792,2.792,0,0,0,.466.675c.079.094.147.176.2.251a35.507,35.507,0,0,1,2.655,4.475c.333.629.678,1.28,1.024,1.9.06.107.144.24.233.38a6.15,6.15,0,0,1,.741,1.446,1.453,1.453,0,0,1-.5,1.73,2.721,2.721,0,0,1-1.614.446,7.78,7.78,0,0,1-1.936-.307c-1.912-.513-3.851-1.172-5.726-1.808L8.7,15.118a3.2,3.2,0,0,0-.807-.213c-.128,0-.263.048-.735.651A18.673,18.673,0,0,0,5.7,17.844q-.174.3-.348.607c-.494.849-1.041,1.674-1.57,2.472q-.236.356-.471.713c-.056.085-.122.2-.2.323C2.679,22.7,2.081,23.7,1.19,23.7ZM-1.445,11.777a2.459,2.459,0,0,1,1.867.566c.481.5.442,1.495.341,2.74-.023.285-.045.553-.042.715.011.626.031,1.264.051,1.882.018.566.036,1.151.048,1.729,0,.191-.006.435-.018.718A12.253,12.253,0,0,0,.808,21.8c.073.708.25.848.285.869a.181.181,0,0,0,.1.033c.322,0,.863-.91,1.066-1.252.079-.133.153-.258.221-.361q.235-.358.473-.717c.521-.786,1.059-1.6,1.539-2.423q.173-.3.344-.6A19.418,19.418,0,0,1,6.37,14.939c.458-.585.861-1.034,1.522-1.034a3.642,3.642,0,0,1,1.128.265l1.043.353c1.86.632,3.784,1.285,5.664,1.79a6.851,6.851,0,0,0,1.677.273,1.763,1.763,0,0,0,1.032-.259c.381-.272.118-.852-.5-1.828-.1-.151-.186-.294-.259-.424-.353-.627-.7-1.284-1.037-1.919a34.772,34.772,0,0,0-2.576-4.35c-.037-.05-.1-.124-.164-.2a2.415,2.415,0,0,1-.7-1.276,2.5,2.5,0,0,1,.638-1.418c.059-.082.115-.159.152-.216.837-1.29,1.555-2.316,2.257-3.228.176-.229.353-.459.531-.688.32-.413.65-.839.966-1.264.085-.114.182-.226.285-.345a2.27,2.27,0,0,0,.54-.816.475.475,0,0,0-.031-.34c-.024-.028-.132-.12-.514-.12a6.534,6.534,0,0,0-1.306.2c-.136.03-.253.056-.352.074a18.425,18.425,0,0,0-2.168.62c-.3.115-.612.24-.911.361-.538.218-1.094.444-1.664.627l-.2.064A5.738,5.738,0,0,1,9.718.209,1.71,1.71,0,0,1,8.88.015,5.333,5.333,0,0,1,7.483-1.4c-.158-.2-.308-.4-.442-.546-.389-.435-.778-.882-1.153-1.315C5.013-4.264,4.11-5.3,3.154-6.241c-.488-.477-.7-.548-.787-.548-.068,0-.192.133-.317.431a7.916,7.916,0,0,0-.435,2.049c-.033.265-.067.538-.109.8A53.129,53.129,0,0,1,.076,2.725c-.021.074-.043.185-.067.3a2.627,2.627,0,0,1-.333.981,3.327,3.327,0,0,1-1,.78c-.147.088-.285.171-.382.242C-2.494,5.613-3.255,6.2-3.96,6.744-4.9,7.468-5.871,8.125-6.813,8.76c-.424.286-.863.583-1.293.881a10,10,0,0,0-1.33,1.2c-.7.759-.758,1.13-.736,1.188h0s.044.058.245.106l.015,0a8.072,8.072,0,0,0,1.844.189,25.4,25.4,0,0,0,2.959-.238c.688-.082,1.4-.167,2.077-.207.112-.007.248-.019.407-.034C-2.286,11.815-1.865,11.777-1.445,11.777ZM1.9,20.484A.5.5,0,0,1,1.4,20q-.018-.642-.039-1.285c-.037-1.152-.075-2.343-.073-3.515,0-.193.005-.387.01-.593.03-1.236.062-2.514-.862-3.041a4.257,4.257,0,0,0-2.159-.447c-.5,0-1,.038-1.478.075l-.4.03c-.572.042-1.16.1-1.728.153-.912.088-1.856.178-2.789.214a.5.5,0,0,1-.488-.326.5.5,0,0,1,.159-.565,16.84,16.84,0,0,1,1.5-1.029h0l.056-.035.07-.044.1-.059.03-.019h0c1.082-.681,2.076-1.446,3.128-2.255l.372-.286C-2.468,6.4-1.856,5.94-1.279,5.517c.164-.12.369-.243.585-.372A3.582,3.582,0,0,0,.444,4.266c.031-.061.031-.084.022-.22a2.09,2.09,0,0,1,0-.324A6.177,6.177,0,0,1,.715,2.555l.011-.039C.96,1.681,1.163.9,1.347.145c.283-1.189.487-2.416.684-3.6.088-.532.179-1.082.277-1.626a.5.5,0,0,1,.345-.389.5.5,0,0,1,.5.128c.837.854,1.634,1.769,2.4,2.653.243.279.494.567.742.849.178.2.36.431.554.673C7.485-.383,8.268.6,9.028.8A2.66,2.66,0,0,0,9.71.882,8.69,8.69,0,0,0,12.567.156c.288-.11.582-.229.866-.345.375-.153.763-.31,1.154-.452.332-.12.69-.246,1.063-.345.053-.015.155-.037.366-.082l.029-.006a.5.5,0,0,1,.14-.047l.029,0a1.5,1.5,0,0,1,.251-.032.5.5,0,0,1,.5.444.49.49,0,0,1,0,.085c.031.317-.227.584-.5.864-.053.055-.127.131-.147.158-.232.3-.47.606-.7.91-.445.582-.964,1.274-1.446,2-.111.168-.228.335-.351.512-.7,1-1.424,2.041-1.05,3.1a4.429,4.429,0,0,0,.73,1.162c.151.195.307.4.449.608.351.528.653,1.095.945,1.642l.188.351c.436.8.9,1.614,1.341,2.4.377.664.767,1.35,1.143,2.033a.5.5,0,0,1-.454.741,10.925,10.925,0,0,1-3.528-.941c-.465-.181-.9-.352-1.337-.492-.515-.166-1.048-.314-1.563-.456-.271-.075-.551-.153-.828-.233-.251-.072-.5-.168-.742-.26a3.971,3.971,0,0,0-1.33-.348c-.035,0-.069,0-.1,0-1.067.078-2,1.642-2.622,2.677l-.154.257-.135.222c-.793,1.306-1.614,2.656-2.456,3.97A.5.5,0,0,1,1.9,20.484ZM-1.727,10.115a5.188,5.188,0,0,1,2.656.58c1.441.823,1.4,2.548,1.364,3.934,0,.2-.01.389-.01.57,0,1.038.029,2.1.061,3.133.534-.859,1.059-1.723,1.573-2.569l.135-.222L4.2,15.29c.726-1.213,1.822-3.046,3.408-3.161.057,0,.116-.006.174-.006a4.752,4.752,0,0,1,1.686.414c.233.089.452.172.663.233.272.079.549.155.818.23.525.146,1.068.3,1.6.468.462.149.935.334,1.393.512a15.378,15.378,0,0,0,2.263.751c-.219-.39-.439-.777-.656-1.158-.448-.787-.91-1.6-1.351-2.415l-.19-.355c-.281-.527-.572-1.072-.9-1.559-.121-.181-.26-.36-.406-.549a5.243,5.243,0,0,1-.882-1.441C11.285,5.705,12.238,4.34,13,3.243c.12-.172.233-.334.338-.492.5-.752,1.03-1.46,1.484-2.055.126-.166.253-.332.381-.5l-.277.1c-.373.135-.752.289-1.118.439-.289.118-.588.24-.888.354a9.436,9.436,0,0,1-3.213.791,3.658,3.658,0,0,1-.939-.116,6.043,6.043,0,0,1-2.7-2.31C5.889-.778,5.713-1,5.551-1.183c-.249-.283-.5-.572-.745-.852C4.259-2.663,3.7-3.307,3.123-3.929c-.036.214-.071.426-.106.635-.2,1.2-.406,2.448-.7,3.673-.187.773-.393,1.56-.63,2.409l-.012.042A5.377,5.377,0,0,0,1.46,3.8a1.2,1.2,0,0,0,0,.174,1.293,1.293,0,0,1-.127.739A3.878,3.878,0,0,1-.179,6c-.2.118-.382.229-.509.322-.57.418-1.175.874-1.9,1.437l-.372.286c-1.044.8-2.123,1.634-3.272,2.351h0l-.1.065c.307-.028.613-.057.915-.086.574-.055,1.167-.112,1.752-.155l.394-.029C-2.779,10.155-2.261,10.115-1.727,10.115Z" transform="translate(10.674 7.289)" fill="#2e3540"/>
    </g>
    <path id="Path_7981" data-name="Path 7981" d="M26.766,2423.137h-.1l.026-3h0a80.558,80.558,0,0,0,9.758-.743l.382,2.976A84.274,84.274,0,0,1,26.766,2423.137Zm20.045-2.489-.635-2.932c3.219-.7,6.433-1.536,9.551-2.494l.881,2.868C53.409,2419.072,50.113,2419.933,46.811,2420.648Zm19.342-5.956-1.132-2.778c3.065-1.249,6.073-2.642,8.941-4.14l1.389,2.659C72.4,2411.975,69.305,2413.408,66.153,2414.692Zm17.946-9.4-1.65-2.505a92.756,92.756,0,0,0,7.917-5.838l1.907,2.316A95.767,95.767,0,0,1,84.1,2405.289Zm15.65-12.906-2.15-2.092a89.156,89.156,0,0,0,6.453-7.413l2.368,1.842A92.175,92.175,0,0,1,99.749,2392.383Zm12.461-16.009-2.553-1.575a96.185,96.185,0,0,0,4.725-8.634l2.7,1.3A99.105,99.105,0,0,1,112.21,2376.374Zm8.836-18.237-2.814-1.042c1.118-3.02,2.132-6.181,3.013-9.395l2.893.793C123.234,2351.792,122.193,2355.036,121.046,2358.137Zm5.38-19.5-2.946-.566c.607-3.16,1.118-6.447,1.52-9.77l2.978.36C127.567,2332.054,127.045,2335.411,126.425,2338.638Zm2.447-20.031-2.995-.176c.189-3.221.291-6.557.3-9.915l3,.011C129.168,2311.941,129.064,2315.332,128.872,2318.608Zm-2.9-20.013c-.145-3.229-.369-6.562-.665-9.906l2.988-.265c.3,3.387.527,6.764.674,10.036Zm-1.738-19.787c-.261-2.038-.552-4.125-.865-6.2-.185-1.228-.367-2.471-.542-3.7l2.97-.424c.174,1.217.355,2.453.539,3.672.316,2.1.61,4.209.874,6.269Zm-2.714-19.836c-.4-3.326-.766-6.685-1.088-9.984l2.986-.292c.32,3.277.683,6.614,1.081,9.917ZM119.574,2239c-.248-3.343-.457-6.716-.623-10.025l3-.15c.164,3.286.372,6.635.618,9.953Zm-1-20.047c-.084-3.353-.126-6.733-.123-10.045l3,0c0,3.287.039,6.64.122,9.968Zm3.017-20-3-.083c.092-3.352.232-6.726.416-10.027l3,.167C121.822,2192.281,121.683,2195.626,121.591,2198.951Zm1.11-19.882-2.989-.254c.285-3.348.622-6.711,1-10l2.98.345C123.318,2172.419,122.983,2175.751,122.7,2179.069ZM125,2159.3l-2.967-.441c.495-3.328,1.048-6.662,1.645-9.91l2.951.542C126.036,2152.708,125.488,2156.008,125,2159.3Zm3.6-19.56-2.929-.648c.729-3.294,1.522-6.584,2.358-9.778l2.9.76C130.1,2133.233,129.317,2136.486,128.6,2139.743Zm5.042-19.227-2.869-.878c.99-3.234,2.052-6.449,3.155-9.556l2.827,1C135.664,2114.151,134.616,2117.324,133.639,2120.516Zm67.562-2.24a56.736,56.736,0,0,1-8.891-.678l.471-2.963a54.633,54.633,0,0,0,9.7.627l.064,3Q201.87,2118.275,201.2,2118.275Zm11.5-.969-.469-2.963a95.5,95.5,0,0,0,9.629-2.032l.772,2.9A98.559,98.559,0,0,1,212.7,2117.306Zm-30.339-2.4a43.285,43.285,0,0,1-9.088-4.917l1.734-2.448a40.282,40.282,0,0,0,8.457,4.576Zm49.933-2.846-1.09-2.795a81.5,81.5,0,0,0,8.913-4.1l1.42,2.643A84.491,84.491,0,0,1,232.292,2112.057Zm-66.695-8.965a54.2,54.2,0,0,1-6.044-8.3l2.577-1.536a51.2,51.2,0,0,0,5.707,7.844Zm84.582-.688-1.757-2.432a66.18,66.18,0,0,0,7.484-6.279l2.1,2.146A69.145,69.145,0,0,1,250.179,2102.4ZM140.3,2101.81l-2.776-1.138c1.289-3.143,2.656-6.247,4.064-9.227l2.712,1.281C142.91,2095.66,141.564,2098.716,140.3,2101.81Zm124.413-13.716-2.431-1.757a47.3,47.3,0,0,0,4.864-8.364l2.739,1.224A50.3,50.3,0,0,1,264.708,2088.094Zm-109.683-2.463c-1.007-2.469-1.928-5.1-2.746-7.839-1.2,1.981-2.367,4.022-3.5,6.095l-2.634-1.435c1.63-2.992,3.346-5.92,5.1-8.7l2.538,1.6-.07.11.938-.26a84.655,84.655,0,0,0,3.149,9.3ZM272.911,2069.3l-2.959-.491a30.027,30.027,0,0,0,.106-9.484l2.965-.456A33.019,33.019,0,0,1,272.911,2069.3Zm-113.557-2.13-2.417-1.776c2.029-2.761,4.15-5.422,6.3-7.908l2.267,1.964C163.406,2061.871,161.336,2064.469,159.354,2067.165Zm-9.832-1.049c-.577-3.19-1.054-6.559-1.419-10.012l2.983-.315c.357,3.38.824,6.675,1.387,9.793Zm22.768-13.829-2.08-2.162a98.447,98.447,0,0,1,7.665-6.658l1.845,2.366A95.4,95.4,0,0,0,172.29,2052.288Zm94.73-1.884a29.4,29.4,0,0,0-5.9-7.409l2.027-2.212a32.392,32.392,0,0,1,6.5,8.167Zm-119.662-4.359c-.145-3.247-.209-6.635-.188-10.069l3,.018c-.02,3.384.042,6.72.185,9.917Zm40.44-5.792-1.554-2.566a77.28,77.28,0,0,1,9.041-4.7l1.2,2.749A74.273,74.273,0,0,0,187.8,2040.252Zm65.452-2.755a53.583,53.583,0,0,0-8.965-3.738l.912-2.858a56.588,56.588,0,0,1,9.468,3.951Zm-47.552-5.023-.79-2.894a66.362,66.362,0,0,1,10.039-1.925l.334,2.981A63.353,63.353,0,0,0,205.7,2032.474Zm29.072-1.029c-1.616-.286-3.3-.535-5.009-.74-1.571-.189-3.163-.32-4.731-.391l.135-3c1.642.074,3.309.212,4.953.41,1.762.212,3.5.469,5.173.764Zm-84.321-5.382-3-.148c.161-3.259.392-6.635.688-10.034l2.989.26C150.836,2019.5,150.607,2022.84,150.449,2026.062Zm1.71-19.818-2.978-.359c.391-3.247.845-6.595,1.35-9.949l2.967.446C153,1999.708,152.546,2003.026,152.158,2006.244Zm2.953-19.691-2.954-.525c.574-3.23,1.205-6.548,1.877-9.862l2.94.6C156.308,1980.052,155.681,1983.346,155.111,1986.552Zm3.952-19.538-2.926-.661c.723-3.2,1.5-6.489,2.309-9.761l2.912.72C160.555,1960.565,159.782,1963.829,159.063,1967.014Zm4.781-19.357-2.9-.775c.85-3.178,1.75-6.428,2.676-9.661l2.884.826C165.585,1941.263,164.689,1944.5,163.844,1947.657Zm5.488-19.174-2.87-.874c.959-3.151,1.967-6.37,2.995-9.565l2.856.918C171.289,1922.144,170.286,1925.347,169.332,1928.483Zm6.076-19.041-2.854-.925c1.111-3.428,2.11-6.539,3.055-9.513l2.859.909C177.521,1902.892,176.52,1906.009,175.407,1909.442Zm6.054-19.083-2.867-.885c1.021-3.31,1.995-6.524,2.893-9.555l2.876.853C183.463,1883.813,182.487,1887.039,181.462,1890.359Zm5.684-19.215-2.888-.811c.926-3.3,1.8-6.535,2.612-9.624l2.9.759C188.96,1864.574,188.076,1867.83,187.146,1871.144Zm5.059-19.408-2.919-.695c.787-3.306,1.521-6.575,2.181-9.716l2.936.617C193.737,1845.109,193,1848.4,192.2,1851.736Zm4.118-19.657-2.954-.526c.592-3.325,1.121-6.629,1.572-9.82l2.971.42C197.455,1825.379,196.921,1828.719,196.322,1832.079Zm2.8-19.912-2.985-.3c.333-3.339.589-6.67.761-9.9l3,.16C199.715,1805.4,199.455,1808.783,199.118,1812.167Zm1.057-20.11-3-.008c.009-3.328-.073-6.664-.243-9.913l3-.157C200.1,1785.283,200.184,1788.673,200.175,1792.057Zm-4.046-19.8c-.364-3.282-.83-6.583-1.385-9.812l2.957-.509c.566,3.288,1.04,6.649,1.411,9.991Zm-3.361-19.517c-.751-3.19-1.613-6.41-2.562-9.57l2.873-.862c.966,3.218,1.843,6.5,2.609,9.745Zm-5.691-18.978c-1.118-3.061-2.35-6.16-3.661-9.211l2.756-1.185c1.333,3.1,2.586,6.253,3.723,9.367Zm-7.817-18.215c-1.438-2.914-2.989-5.871-4.61-8.789l2.623-1.457c1.644,2.96,3.218,5.96,4.678,8.918Zm-9.629-17.358c-1.7-2.765-3.515-5.575-5.386-8.352l2.488-1.676c1.894,2.811,3.728,5.656,5.452,8.456Zm-11.1-16.495c-1.915-2.625-3.935-5.3-6-7.939l2.362-1.849c2.09,2.669,4.13,5.368,6.065,8.02Zm-12.254-15.67c-2.081-2.5-4.263-5.039-6.484-7.557l2.25-1.985c2.24,2.539,4.44,5.1,6.539,7.62ZM133.1,1651.077c-2.212-2.382-4.518-4.809-6.856-7.214l2.151-2.091c2.354,2.421,4.677,4.865,6.9,7.264Zm-13.892-14.3c-2.317-2.285-4.725-4.613-7.157-6.921l2.065-2.176c2.446,2.321,4.868,4.663,7.2,6.961Zm-14.456-13.724c-2.407-2.205-4.9-4.453-7.416-6.682l1.99-2.245c2.525,2.239,5.032,4.5,7.452,6.714ZM89.832,1609.82c-2.476-2.131-5.037-4.3-7.61-6.459l1.926-2.3c2.584,2.163,5.155,4.345,7.642,6.485Zm-15.314-12.825c-2.533-2.066-5.147-4.173-7.769-6.263l1.869-2.346c2.632,2.1,5.255,4.211,7.8,6.285Zm-15.6-12.434c-2.581-2.011-5.24-4.061-7.9-6.094l1.82-2.385c2.672,2.039,5.34,4.1,7.928,6.112Zm-15.871-12.113c-1.144-.856-2.312-1.727-3.471-2.587l1.788-2.409c1.162.863,2.333,1.736,3.481,2.594Z" transform="translate(-103.054 161.312)" fill="#2e3540"/>
  </g>
</svg>
