<svg xmlns="http://www.w3.org/2000/svg" width="91.058" height="66.379" viewBox="0 0 91.058 66.379">
  <g id="Group_30993" data-name="Group 30993" transform="translate(225.025 -485.98)">
    <path id="Path_7914" data-name="Path 7914" d="M-149.881,506.169s-20.873-13.915-34.789,6.958-13.915,13.915-13.915,13.915H-219.46s6.959-28.437,40.9-28.068C-156.839,499.211-149.881,506.169-149.881,506.169Z" transform="translate(1.749 4.193)" fill="#fff" fill-rule="evenodd"/>
    <g id="Group_30992" data-name="Group 30992" transform="translate(-224.776 486.23)">
      <path id="Path_7915" data-name="Path 7915" d="M-136.186,521.312c-.49,1.611-.926,3.04-2.382,3.723-.408,1.729-.8,3.385-1.19,5.041a7.225,7.225,0,0,1-.213.825,1.62,1.62,0,0,1-1.215,1.091,12.9,12.9,0,0,0-1.909.5c-.36.145-.888-.128-1.45-.233-.181.112-.453.3-.743.455a3.918,3.918,0,0,1-1.906.518c-.522,0-1.047.028-1.567-.007a2.867,2.867,0,0,0-2.24.666,2.933,2.933,0,0,1-2.269.658c-.28-.028-.562-.033-.847-.049a4.359,4.359,0,0,0-.439.395,3.959,3.959,0,0,1-3.606,1.272c-.509-.042-1.078-.416-1.507-.035a4.494,4.494,0,0,0-.666,1.224,12.356,12.356,0,0,1-.728,1.219,3.385,3.385,0,0,1-3.289,1.58c-.564-.06-1.132-.07-1.732-.1-.233.31-.452.617-.686.91a2.89,2.89,0,0,1-2.447,1.227c-.75-.024-1.5-.005-2.338-.005a11.293,11.293,0,0,0-.128,1.158c-.009,2.091,0,4.183,0,6.273a9.852,9.852,0,0,1-.033,1.139,1.325,1.325,0,0,1-1.263,1.312c-1.041.064-2.089.051-3.134.02a1.128,1.128,0,0,1-1.126-.926,8.106,8.106,0,0,1-.19-1.689c-.019-2.851-.005-5.7-.009-8.554a1.855,1.855,0,0,0-.242-1.332,11.841,11.841,0,0,0-1.831-.447c-2.172-.2-4.31-.622-6.493-.791-2.511-.194-5.031-.181-7.536-.443a16.646,16.646,0,0,0-1.708-.056c-5.276-.011-10.55-.029-15.825-.012-2.233.007-4.464.09-6.7.157a4.62,4.62,0,0,0-.877.207c-.02.505-.052.973-.053,1.441-.007,1.522,0,3.042,0,4.563a7.3,7.3,0,0,1-.032,1,1.118,1.118,0,0,1-1.013,1.035,11.655,11.655,0,0,1-1.279.064c-.617.02-1.235.05-1.851.045a4.659,4.659,0,0,1-1.123-.117.948.948,0,0,1-.739-1.194,8.681,8.681,0,0,0,.175-2.687c0-3.945-.02-7.889.008-11.834.008-1.041.166-2.08.249-3.119.052-.663.065-1.33.145-1.988a10.382,10.382,0,0,1,.323-1.665,1.419,1.419,0,0,1,1.374-1.057c.805-.047,1.615-.057,2.422-.037,1.018.024,1.257.231,1.628,1.256.061.17.12.342.185.525h3.487a19.821,19.821,0,0,1,1.809-4.636,16.76,16.76,0,0,1,1.191-2.1c.525-.848,1.09-1.671,1.628-2.511a17.025,17.025,0,0,1,2.767-3.244c.556-.517,1.134-1.015,1.655-1.567a16.455,16.455,0,0,1,3.84-2.927q2.472-1.419,4.955-2.818a21.635,21.635,0,0,1,4.771-1.847c1.233-.347,2.471-.69,3.723-.961a14.047,14.047,0,0,1,3.805-.472,9.334,9.334,0,0,0,1.176-.066,1.956,1.956,0,0,0,.314-1.462c.032-2.851.052-5.7.077-8.553,0-.286-.005-.571.013-.856.066-.944.408-1.425,1.336-1.574a8.391,8.391,0,0,1,2.265-.048,1.737,1.737,0,0,1,1.518,1.324c.065.222.114.448.193.762a4.641,4.641,0,0,0,.841-.007A20.053,20.053,0,0,0-171.348,489a26.729,26.729,0,0,1,6.938-2.52,10.483,10.483,0,0,1,1.972-.229c2.138-.029,4.277-.007,6.415-.017a5.789,5.789,0,0,1,2.095.352,25.1,25.1,0,0,1,4.642,2.15c.6.38,1.265.649,1.9.976,1.1.566,2.206,1.112,3.283,1.717a8.308,8.308,0,0,0,3.966.989,23.481,23.481,0,0,0,2.554-.133,2.913,2.913,0,0,1,3.3,2.913c.027,3.183.173,6.381-.062,9.548-.3,3.99-.274,7.973-.324,11.963-.012.949-.066,1.9-.089,2.848S-134.99,521.29-136.186,521.312Zm-41.467,6.023a9.821,9.821,0,0,1,.21-1.156,1.022,1.022,0,0,1,.912-.8c1.186-.049,2.374-.085,3.558-.036a1.23,1.23,0,0,1,1.2,1.2,10.045,10.045,0,0,1,.041,1.281c.013,3.232.039,6.465.023,9.7a4.278,4.278,0,0,0,.464,1.911,1.558,1.558,0,0,0,1.871.886,1.922,1.922,0,0,0,1.233-.9c.242-.409.444-.844.707-1.237a1.2,1.2,0,0,1,1.61-.488c.307.126.593.3.894.44a1.6,1.6,0,0,0,1.944-.411,5.643,5.643,0,0,0,1.163-1.944c.161-.4.291-.8.445-1.2a1.076,1.076,0,0,1,1.119-.716,9.554,9.554,0,0,1,1.268.165c.327.055.646.17.974.2a1.933,1.933,0,0,0,2.079-.921,1.7,1.7,0,0,1,2.059-.863,2.27,2.27,0,0,0,2.233-.569,2.694,2.694,0,0,1,1.974-.669c.76.023,1.523.039,2.282,0a2.2,2.2,0,0,0,1.082-.27,3.22,3.22,0,0,0,1.738-2.755c-.016-1.664-.021-3.329.05-4.991a8.18,8.18,0,0,0-.958-4.112c-.385-.763-.84-1.5-1.167-2.283a9.137,9.137,0,0,0-2.075-3.038c-.339-.332-.663-.682-.972-1.043a15.178,15.178,0,0,0-4.6-3.538c-1.006-.532-1.948-1.182-2.937-1.745a8.549,8.549,0,0,0-1.66-.791c-2.675-.829-5.351-1.66-8.053-2.4a24.785,24.785,0,0,0-4.325-.829c-1.841-.162-3.7-.149-5.548-.254a81.592,81.592,0,0,0-9.4.229,4.054,4.054,0,0,0-.7.11c-1.338.32-2.686.611-4.012.98a20.708,20.708,0,0,0-5.169,1.992c-1.265.755-2.56,1.457-3.836,2.192-.7.4-1.421.78-2.076,1.247a33.358,33.358,0,0,0-5.865,5.586c-.55.645-.883,1.471-1.41,2.137a27.314,27.314,0,0,0-3.045,5.626,2.7,2.7,0,0,0-.156,1.952,3.4,3.4,0,0,0,2.39-.165c1.1-.541,2.2-1.1,3.2-1.6a24.582,24.582,0,0,1,.758-2.826c.7-1.765,1.506-3.489,2.271-5.227a3.081,3.081,0,0,1,.279-.5,1.033,1.033,0,0,1,1.235-.445.963.963,0,0,1,.472,1.211,8.109,8.109,0,0,1-.42,1.055c-.7,1.661-1.419,3.319-2.109,4.987a5.916,5.916,0,0,0-.218,1c1.049-.027,1.988-.072,2.929-.064a5.245,5.245,0,0,0,1.95-.332,13.87,13.87,0,0,1,6.617-.411,2.528,2.528,0,0,1,.807.259c1.875.92,3.743,1.861,5.618,2.779,1.408.69,2.815,1.378,4.24,2.031A9.1,9.1,0,0,0-177.654,527.336Zm-40.75-.437a17.8,17.8,0,0,1-.088,2.21,39.892,39.892,0,0,0-.193,5.975,3.832,3.832,0,0,0,.2.86c1.373.082,2.7.032,4.026.042,8.312.065,16.627-.3,24.934.246,2.415.159,4.83.314,7.245.477a6.706,6.706,0,0,1,.7.109c1.12.191,2.24.389,3.363.567a3.969,3.969,0,0,0,.723-.029c.023-.311.052-.54.054-.768.012-1.188-.036-2.379.04-3.562a13.059,13.059,0,0,0-.544-3.533c-.731-.015-1.392-.062-2.048-.032a6.606,6.606,0,0,1-2.921-.508c-.918-.385-1.835-.779-2.729-1.22-2.471-1.216-4.926-2.464-7.392-3.687a2.764,2.764,0,0,0-1.066-.367,11.253,11.253,0,0,0-4.783.435,8.172,8.172,0,0,1-3.348.542,7.924,7.924,0,0,0-1.975.179,15.543,15.543,0,0,0-4.245,1.613,6.708,6.708,0,0,1-6.289.282A3.989,3.989,0,0,0-218.4,526.9Zm69.058-16.873a5.186,5.186,0,0,0,2.63-3.755,21.829,21.829,0,0,0,.76-6.477c-.013-.141.008-.284,0-.427a1.608,1.608,0,0,1,.839-1.661.624.624,0,0,0-.049-1.19,9.733,9.733,0,0,0-1.744-.581,1.016,1.016,0,0,0-1.228.472,8.892,8.892,0,0,1-.556.827,1.16,1.16,0,0,1-1.845.249,13.772,13.772,0,0,1-1.107-1.1,7.554,7.554,0,0,0-4.844-2.461,27.748,27.748,0,0,0-6.1.4,17.662,17.662,0,0,0-5.092,1.76,14.568,14.568,0,0,1-1.415.667,1.464,1.464,0,0,1-2.007-.807,4.257,4.257,0,0,0-.371-.762.766.766,0,0,0-.594-.279,1.413,1.413,0,0,0-1.219,1.038c.161.17.284.308.417.437.171.163.365.306.524.482a1.4,1.4,0,0,1,.108,2.044c-.387.54-.8,1.061-1.172,1.611a3.12,3.12,0,0,0-.241.727,6.4,6.4,0,0,0,.918.117,18.757,18.757,0,0,1,4.645.606c3.476.78,6.857,1.893,10.258,2.935a9.061,9.061,0,0,1,1.761.914c.986.566,1.962,1.155,2.941,1.734.53.314,1.074.606,1.587.946C-150.8,508.987-150.074,509.514-149.346,510.026Zm8.549-3.557c.092-1.457.037-2.782.047-4.106s.023-2.659,0-3.99a22.922,22.922,0,0,0-.138-3.993,4.424,4.424,0,0,0-.861-.194,7.283,7.283,0,0,1-3.242-.976c-1.435-.736-2.881-1.454-4.322-2.182a4.219,4.219,0,0,1-.623-.34,21.843,21.843,0,0,0-3.8-1.932,5.415,5.415,0,0,0-2.338-.544c-1.947,0-3.894-.045-5.841-.02a10.51,10.51,0,0,0-3.1.411,27.545,27.545,0,0,0-4.645,1.782,20.746,20.746,0,0,1-7.8,2.5c-.078.008-.149.1-.274.2a2.615,2.615,0,0,0-.093.5q-.02,3.491-.015,6.982a3.119,3.119,0,0,0,.2.73c.591-.016,1.147.153,1.535-.051.663-1.166,1.244-2.184,1.847-3.244-.239-.261-.465-.5-.678-.743a1.892,1.892,0,0,1-.257-2.359,4,4,0,0,1,3.4-2.023,2.017,2.017,0,0,1,2.024,1.067c.106.2.247.381.347.534a1.281,1.281,0,0,0,.364-.005c.352-.138.7-.283,1.046-.447a20.264,20.264,0,0,1,9.1-1.962c.808.009,1.617.037,2.423-.005a6.736,6.736,0,0,1,3.914,1.1c.727.44,1.388.991,2.079,1.492.215.158.432.314.654.474.2-.193.351-.311.472-.453a2.324,2.324,0,0,1,2.453-.726,13.84,13.84,0,0,1,1.393.29,7.035,7.035,0,0,1,1.567.65,2.986,2.986,0,0,1,.558,4.354,1.814,1.814,0,0,0-.593,1.507,16.948,16.948,0,0,1-.322,3.682c-.044.271-.093.541-.144.835A7.243,7.243,0,0,0-140.8,506.469Zm-1.247,23.5a.824.824,0,0,0,.5-.811,8.239,8.239,0,0,1,.594-2.481,4.376,4.376,0,0,0,.167-.832c.069-.372.14-.744.206-1.118a2.041,2.041,0,0,1,1.094-1.574,1.6,1.6,0,0,0,.639-.546,5.041,5.041,0,0,0,.706-4.091c-.566-1.869-.94-3.768-1.34-5.67-.214-1.018-.578-2-.884-3a2.005,2.005,0,0,0-1.485-1.4c-.5-.14-1.009-.265-1.5-.437s-.946-.391-1.493-.619a14.67,14.67,0,0,1-.718,1.588,15.638,15.638,0,0,1-1.1,1.479c-.338.437-.913.661-1.2,1.231.318.352.617.651.877.98a17.535,17.535,0,0,1,1.54,2.04c.662,1.148,1.236,2.352,1.8,3.557a10.406,10.406,0,0,1,1.124,4.947,44.19,44.19,0,0,1-.2,5.688A.846.846,0,0,0-142.044,529.969Zm-33.457-2.6a5.172,5.172,0,0,0-.069.6c.028,3.134.078,6.267.092,9.4.017,3.8,0,7.6.012,11.394a1.517,1.517,0,0,0,.3,1.28,2.011,2.011,0,0,0,1.494-.167c.013-.265.04-.54.037-.815-.007-.9-.032-1.8-.036-2.7q-.036-8.9-.068-17.8a3.379,3.379,0,0,0-.011-.569c-.048-.267-.134-.528-.2-.759A1.7,1.7,0,0,0-175.5,527.37Zm38.515-12.265.259,0c.023-.514.056-1.029.066-1.544.015-.71-.024-1.423.024-2.13.35-5.11.436-10.226.383-15.346,0-.283,0-.569-.032-.851a.875.875,0,0,0-.691-.807,3.746,3.746,0,0,0-.977-.118.768.768,0,0,0-.76.711,9.49,9.49,0,0,0-.043,1.134c0,3.365.009,6.73-.007,10.094a10.593,10.593,0,0,0,.585,3.768,14.513,14.513,0,0,1,.468,1.786C-137.458,512.9-137.226,514.006-136.985,515.106Zm-85.061,9.757a36.665,36.665,0,0,0-.565,6.3c-.016,4.181.06,8.364.106,12.547a2.59,2.59,0,0,0,.129.542,1.583,1.583,0,0,0,1.481.041,2.256,2.256,0,0,0,.2-1.429c.011-3.565,0-7.13.012-10.7a10.565,10.565,0,0,1,.1-1.705,34.282,34.282,0,0,0,.157-5.262,1.2,1.2,0,0,0-.14-.388A1.586,1.586,0,0,0-222.046,524.862Zm42.132-33.947c-.961-.229-1.1-.162-1.2.6a8.484,8.484,0,0,0-.089.989q-.048,3.264-.077,6.528c0,.52-.008,1.041.02,1.56.025.492.238.691.691.716s.675-.17.708-.67c.019-.283,0-.568.013-.852.053-1.7.113-3.4.159-5.1.016-.614.023-1.229-.015-1.842S-179.832,491.625-179.914,490.915Z" transform="translate(224.776 -486.23)" fill="#00558c" fill-rule="evenodd"/>
      <path id="Path_7915_-_Outline" data-name="Path 7915 - Outline" d="M-174.6,552.359c-.441,0-.924-.008-1.519-.026a1.379,1.379,0,0,1-1.363-1.123,8.314,8.314,0,0,1-.2-1.741c-.012-1.849-.011-3.73-.009-5.548q0-1.5,0-3.007c0-.089,0-.177.009-.263a1.294,1.294,0,0,0-.152-.851c-.145-.039-.292-.083-.446-.129a6.559,6.559,0,0,0-1.257-.288c-1.013-.094-2.033-.238-3.02-.376-1.134-.159-2.307-.324-3.469-.414-1.074-.083-2.17-.129-3.23-.173-1.414-.059-2.875-.12-4.312-.27a15.332,15.332,0,0,0-1.544-.055h-.138l-2.871-.006c-2.723-.006-5.538-.013-8.306-.013-1.678,0-3.2,0-4.648.007-1.822.005-3.675.063-5.467.119l-1.222.038a2.071,2.071,0,0,0-.5.109l-.142.042q-.006.141-.013.279c-.016.335-.031.652-.032.969,0,.881,0,1.776,0,2.642q0,.96,0,1.92c0,.06,0,.121,0,.182a5.85,5.85,0,0,1-.035.847,1.364,1.364,0,0,1-1.224,1.248,7.626,7.626,0,0,1-.969.059c-.113,0-.225,0-.338.008l-.42.015c-.472.017-.96.035-1.442.031a4.868,4.868,0,0,1-1.184-.125,1.324,1.324,0,0,1-.829-.621,1.125,1.125,0,0,1-.085-.889,6.1,6.1,0,0,0,.174-2.029c0-.191-.01-.388-.01-.583,0-1.241,0-2.5,0-3.723,0-2.659-.008-5.408.011-8.113.005-.7.079-1.413.15-2.1.035-.341.072-.694.1-1.039.019-.24.033-.487.046-.725.024-.417.048-.849.1-1.274a10.607,10.607,0,0,1,.331-1.705,1.672,1.672,0,0,1,1.6-1.236c.542-.031,1.1-.047,1.667-.047.255,0,.516,0,.775.01,1.114.026,1.444.279,1.857,1.421.034.1.068.191.1.288l.025.072h3.1a13.489,13.489,0,0,1,1.229-3.276c.189-.395.385-.8.559-1.208a13.873,13.873,0,0,1,1.008-1.813l.2-.322c.316-.511.651-1.019.975-1.51.216-.328.44-.668.656-1a17.2,17.2,0,0,1,2.807-3.292c.151-.141.3-.28.457-.419.4-.364.813-.741,1.186-1.136a16.5,16.5,0,0,1,3.9-2.972c1.88-1.079,3.455-1.975,4.957-2.819a22.063,22.063,0,0,1,4.826-1.87c1.313-.369,2.5-.7,3.738-.965l.039-.008a15.949,15.949,0,0,1,3.376-.482c.154,0,.309,0,.458.013.052,0,.108,0,.166,0,.219,0,.436-.021.646-.042l.22-.021a1.432,1.432,0,0,0,.2-.964c0-.085-.005-.172,0-.26.022-1.976.039-3.986.055-5.929q.011-1.311.022-2.623c0-.067,0-.135,0-.2,0-.217,0-.442.014-.667a1.674,1.674,0,0,1,1.546-1.8,8.676,8.676,0,0,1,2.333-.049,1.99,1.99,0,0,1,1.729,1.5c.046.156.084.313.128.495l.022.092.1,0c.087,0,.17.008.248.008a1.28,1.28,0,0,0,.245-.02,19.679,19.679,0,0,0,5.443-1.839,27.128,27.128,0,0,1,7-2.543,10.727,10.727,0,0,1,2.02-.234c1.016-.014,2.009-.016,2.847-.016l2.132,0c.557,0,1.014,0,1.438,0h.03a6,6,0,0,1,2.155.368,25.068,25.068,0,0,1,4.688,2.173,11.451,11.451,0,0,0,1.212.638c.219.1.445.212.666.326q.417.215.835.428c.81.413,1.647.84,2.455,1.294a8.061,8.061,0,0,0,3.85.957q.132,0,.265,0c.7,0,1.42-.062,2.115-.122l.148-.013c.11-.01.221-.014.33-.014a3.275,3.275,0,0,1,2.289.887,3.172,3.172,0,0,1,.952,2.288c.006.759.02,1.531.033,2.279.041,2.393.084,4.867-.1,7.29-.24,3.244-.271,6.544-.3,9.735-.007.725-.014,1.475-.023,2.213-.007.545-.028,1.1-.048,1.632-.015.4-.031.813-.041,1.219-.014.567-.045,1.865-1.487,1.993-.463,1.516-.936,2.931-2.354,3.655l-.382,1.62c-.263,1.116-.521,2.211-.78,3.306-.015.066-.03.132-.045.2a5.121,5.121,0,0,1-.176.655,1.859,1.859,0,0,1-1.393,1.249c-.152.035-.306.068-.455.1a8.721,8.721,0,0,0-1.418.387.871.871,0,0,1-.33.059,2.811,2.811,0,0,1-.749-.149c-.136-.039-.275-.08-.414-.11l-.086.055c-.165.107-.371.239-.588.355a4.167,4.167,0,0,1-1.991.548h-.034c-.177,0-.364,0-.543,0-.15,0-.305.005-.459.005-.222,0-.406-.005-.579-.017-.11-.008-.217-.011-.317-.011a2.468,2.468,0,0,0-1.742.616,3.2,3.2,0,0,1-2.457.718c-.186-.018-.369-.027-.564-.035l-.172-.008-.079.066a2.054,2.054,0,0,0-.257.236,3.985,3.985,0,0,1-3.217,1.385c-.191,0-.393-.009-.6-.026a2.931,2.931,0,0,1-.521-.108,2.038,2.038,0,0,0-.5-.1.421.421,0,0,0-.3.107,1.9,1.9,0,0,0-.395.685,4.715,4.715,0,0,1-.219.473l-.053.1a11.545,11.545,0,0,1-.691,1.147,3.64,3.64,0,0,1-3.519,1.684c-.38-.04-.76-.058-1.162-.076l-.424-.02-.138.186c-.153.206-.31.42-.473.624a3.128,3.128,0,0,1-2.543,1.322l-.107,0c-.258-.008-.537-.012-.876-.012-.227,0-.457,0-.692,0l-.542,0c-.009.067-.018.132-.028.2a5.206,5.206,0,0,0-.071.712c-.006,1.363,0,2.749,0,4.089q0,1.092,0,2.183,0,.092,0,.185a8.153,8.153,0,0,1-.035.983,1.576,1.576,0,0,1-1.5,1.532C-173.463,552.344-174,552.359-174.6,552.359ZM-195.174,537.6h.069a15.724,15.724,0,0,1,1.6.057c1.421.149,2.875.209,4.281.268,1.064.044,2.165.09,3.248.174,1.178.091,2.359.257,3.5.418.981.138,1.995.28,3,.374a7.049,7.049,0,0,1,1.354.307c.181.054.352.105.515.146l.085.021.053.07a1.722,1.722,0,0,1,.3,1.246c0,.083-.008.16-.008.236q0,1.5,0,3.008c0,1.818,0,3.7.009,5.545a7.815,7.815,0,0,0,.184,1.637.878.878,0,0,0,.888.73c.591.017,1.069.025,1.5.025.588,0,1.114-.015,1.607-.045a1.074,1.074,0,0,0,1.03-1.091,7.661,7.661,0,0,0,.032-.923q0-.094,0-.187,0-1.091,0-2.182c0-1.341,0-2.728,0-4.092a5.654,5.654,0,0,1,.076-.781c.019-.13.038-.264.054-.4l.025-.222h.223c.26,0,.512,0,.759,0s.467,0,.7,0c.345,0,.629,0,.892.012h.091a2.657,2.657,0,0,0,2.152-1.134c.157-.2.305-.4.462-.609.072-.1.145-.2.22-.3l.08-.107.134.008c.187.011.37.019.552.027.41.019.8.037,1.192.078a3.13,3.13,0,0,0,3.059-1.476,11.175,11.175,0,0,0,.66-1.1l.053-.1a4.28,4.28,0,0,0,.195-.424,2.271,2.271,0,0,1,.524-.867.923.923,0,0,1,.632-.233,2.423,2.423,0,0,1,.63.113,2.539,2.539,0,0,0,.432.093c.193.016.381.025.558.025a3.469,3.469,0,0,0,2.837-1.21,2.486,2.486,0,0,1,.318-.3c.047-.039.1-.079.145-.123l.077-.068.1.006.267.013c.193.009.392.017.59.037.113.011.227.016.338.016a2.57,2.57,0,0,0,1.742-.614,2.972,2.972,0,0,1,2.07-.739c.111,0,.229,0,.35.012.161.011.334.016.545.016.149,0,.3,0,.451,0,.182,0,.37-.006.556,0h.03a3.684,3.684,0,0,0,1.756-.489c.2-.106.4-.233.553-.334.065-.042.125-.081.177-.113l.082-.051.1.018c.195.036.378.089.556.141a2.509,2.509,0,0,0,.61.129.385.385,0,0,0,.145-.023,9.237,9.237,0,0,1,1.5-.412c.147-.031.3-.064.447-.1a1.369,1.369,0,0,0,1.036-.933,4.674,4.674,0,0,0,.158-.592c.015-.068.03-.137.046-.2.259-1.1.517-2.19.78-3.306l.437-1.853.109-.051c1.356-.636,1.77-2,2.249-3.569l.053-.174.182,0c.957-.018,1.157-.569,1.18-1.514.01-.409.026-.824.041-1.226.02-.531.041-1.081.048-1.62.009-.737.016-1.486.023-2.211.03-3.2.061-6.507.3-9.767.178-2.4.136-4.863.094-7.245-.013-.748-.026-1.522-.033-2.283a2.637,2.637,0,0,0-2.741-2.679c-.095,0-.191,0-.287.013l-.148.013a22.312,22.312,0,0,1-2.435.121,8.546,8.546,0,0,1-4.083-1.021c-.8-.449-1.632-.873-2.437-1.284q-.419-.214-.838-.429c-.213-.11-.436-.217-.651-.319a11.826,11.826,0,0,1-1.265-.667,24.664,24.664,0,0,0-4.6-2.128,5.506,5.506,0,0,0-1.978-.336h-.027c-.425,0-.883,0-1.441,0l-2.132,0c-.836,0-1.828,0-2.84.016a10.227,10.227,0,0,0-1.925.223,26.628,26.628,0,0,0-6.873,2.5,20.17,20.17,0,0,1-5.58,1.887,1.758,1.758,0,0,1-.341.029c-.091,0-.183,0-.273-.009s-.183-.009-.276-.009h-.2l-.047-.189c-.025-.1-.048-.194-.069-.28-.042-.175-.079-.327-.121-.471a1.492,1.492,0,0,0-1.306-1.146,8.174,8.174,0,0,0-2.2.046c-.77.124-1.065.475-1.126,1.344-.013.206-.013.413-.013.632,0,.069,0,.138,0,.208q-.012,1.313-.022,2.624c-.016,1.944-.033,3.954-.055,5.931,0,.077,0,.155,0,.238a1.856,1.856,0,0,1-.375,1.38l-.069.083-.108.007c-.1.006-.2.017-.317.028-.212.021-.452.044-.7.044-.067,0-.132,0-.195-.005-.14-.008-.284-.012-.429-.012a15.572,15.572,0,0,0-3.27.47l-.039.008c-1.224.265-2.4.59-3.708.957a21.607,21.607,0,0,0-4.717,1.825c-1.5.843-3.074,1.738-4.953,2.816a16.015,16.015,0,0,0-3.782,2.881c-.386.409-.807.792-1.213,1.163-.152.138-.3.276-.453.416a16.709,16.709,0,0,0-2.727,3.2c-.217.339-.442.68-.659,1.009-.322.488-.655.993-.967,1.5l-.2.324a13.5,13.5,0,0,0-.973,1.746c-.178.415-.376.827-.568,1.227a12.419,12.419,0,0,0-1.224,3.35l-.034.21H-218.4l-.059-.166-.084-.24c-.034-.1-.066-.19-.1-.284-.343-.947-.5-1.069-1.4-1.091-.82-.02-1.628-.008-2.4.037a1.175,1.175,0,0,0-1.149.877,10.119,10.119,0,0,0-.315,1.625c-.05.409-.074.832-.1,1.242-.014.241-.028.49-.047.736-.028.352-.065.707-.1,1.051-.07.674-.142,1.371-.147,2.05-.019,2.7-.015,5.451-.011,8.108,0,1.221,0,2.483,0,3.724,0,.189,0,.383.01.571a6.575,6.575,0,0,1-.2,2.191.621.621,0,0,0,.045.5.823.823,0,0,0,.519.379,4.427,4.427,0,0,0,1.062.109c.466,0,.952-.013,1.419-.03l.422-.015c.115,0,.23-.006.345-.008a7.157,7.157,0,0,0,.905-.053.867.867,0,0,0,.8-.823,5.4,5.4,0,0,0,.03-.774c0-.062,0-.124,0-.186q0-.96,0-1.919c0-.866,0-1.762,0-2.645,0-.328.016-.65.033-.991.007-.15.014-.3.021-.459l.007-.187.182-.045c.106-.026.205-.056.3-.085a2.451,2.451,0,0,1,.629-.13l1.222-.038c1.8-.056,3.652-.114,5.481-.119,1.45,0,2.971-.007,4.649-.007,2.769,0,5.585.006,8.308.013l2.87.006Zm20.695,12.76h0a3.817,3.817,0,0,1-.508-.043c-.071-.009-.137-.018-.2-.025l-.09-.009-.063-.064a1.491,1.491,0,0,1-.38-1.251c0-.071.006-.139.006-.2,0-1.688,0-3.4,0-5.064,0-2.074,0-4.219-.008-6.329-.008-1.948-.031-3.93-.054-5.846-.014-1.164-.028-2.368-.038-3.552a2.593,2.593,0,0,1,.041-.418c.01-.067.021-.137.03-.209l.014-.121.1-.063a1.9,1.9,0,0,1,1.009-.305,2.494,2.494,0,0,1,.754.133l.132.041.035.133c.018.067.037.136.058.207a5.829,5.829,0,0,1,.142.572,2.218,2.218,0,0,1,.018.457c0,.052,0,.1,0,.156l.022,5.965q.022,5.917.045,11.836c0,.479.01.967.018,1.439.007.415.014.843.017,1.265,0,.2-.011.4-.023.591-.005.08-.01.159-.014.238l-.006.128-.107.07A1.685,1.685,0,0,1-174.479,550.356Zm-.563-.555.121.016a3.389,3.389,0,0,0,.442.039h0a1.173,1.173,0,0,0,.567-.132q0-.055.007-.11c.012-.183.024-.372.022-.555,0-.42-.01-.847-.017-1.261-.008-.474-.016-.963-.019-1.445q-.024-5.918-.045-11.836l-.022-5.966c0-.058,0-.115,0-.172a1.817,1.817,0,0,0-.011-.355,5.366,5.366,0,0,0-.13-.521l-.023-.08a1.812,1.812,0,0,0-.475-.072,1.335,1.335,0,0,0-.647.174c0,.034-.01.067-.015.1a2.2,2.2,0,0,0-.036.338c.011,1.183.025,2.386.038,3.55.022,1.917.045,3.9.054,5.85.01,2.111.009,4.256.008,6.331,0,1.659,0,3.375,0,5.063,0,.077,0,.153-.007.227A1.076,1.076,0,0,0-175.042,549.8Zm-46.547-5.094h0a1.962,1.962,0,0,1-.9-.233l-.1-.052-.027-.111c-.012-.051-.029-.1-.047-.161a1.54,1.54,0,0,1-.089-.436q-.017-1.518-.037-3.034c-.04-3.119-.081-6.345-.069-9.517a36.7,36.7,0,0,1,.569-6.344l.022-.125.114-.056a1.821,1.821,0,0,1,1.694-.052l.093.043.036.1c.011.029.028.063.045.1a.85.85,0,0,1,.111.38c-.007.509,0,1.027.01,1.529a20.5,20.5,0,0,1-.17,3.772,10.415,10.415,0,0,0-.095,1.664c0,1.717,0,3.463-.005,5.152,0,1.817,0,3.7-.007,5.545,0,.091.005.185.01.284a1.925,1.925,0,0,1-.254,1.284l-.038.057-.062.029A1.866,1.866,0,0,1-221.589,544.708Zm-.576-.631a1.393,1.393,0,0,0,.576.131h0a1.32,1.32,0,0,0,.523-.111,1.543,1.543,0,0,0,.133-.92c-.005-.1-.011-.207-.011-.312.006-1.848.006-3.727.007-5.544,0-1.689,0-3.435.005-5.153a10.8,10.8,0,0,1,.1-1.746,20.126,20.126,0,0,0,.163-3.681c-.009-.505-.017-1.028-.01-1.543a.582.582,0,0,0-.061-.156l-.018-.038a1.3,1.3,0,0,0-.487-.1,1.472,1.472,0,0,0-.579.131,36.2,36.2,0,0,0-.538,6.13c-.012,3.168.029,6.392.069,9.509q.019,1.517.037,3.034a1.142,1.142,0,0,0,.067.294Zm52.344-3.446a1.818,1.818,0,0,1-1.648-1.088,4.5,4.5,0,0,1-.488-2.02c.012-2.5,0-5.048-.012-7.51q-.005-1.093-.01-2.185c0-.084,0-.167,0-.251a7.471,7.471,0,0,0-.04-1,.992.992,0,0,0-.965-.98c-.377-.016-.766-.023-1.188-.023-.815,0-1.645.03-2.349.059a.8.8,0,0,0-.684.621,4.26,4.26,0,0,0-.13.663c-.02.136-.042.289-.072.461l-.033.188-.378.036c-.7.067-1.367.13-2.038.13h0a6.33,6.33,0,0,1-2.715-.528c-1.471-.674-2.945-1.4-4.246-2.034-.963-.472-1.94-.957-2.885-1.427-.9-.445-1.821-.905-2.733-1.352a2.274,2.274,0,0,0-.724-.235,26.249,26.249,0,0,0-2.9-.2,9.891,9.891,0,0,0-3.606.6,5.516,5.516,0,0,1-2.041.349c-.658-.006-1.32.015-2.023.037-.292.009-.59.019-.9.026l-.315.008.064-.309c.025-.123.045-.241.063-.354a3.075,3.075,0,0,1,.169-.695c.488-1.18,1-2.375,1.49-3.53q.311-.729.62-1.458c.039-.093.081-.186.123-.28a4.953,4.953,0,0,0,.286-.742.728.728,0,0,0-.315-.912.791.791,0,0,0-.267-.048.831.831,0,0,0-.678.4,2.821,2.821,0,0,0-.256.454c-.21.476-.425.958-.634,1.424-.554,1.237-1.127,2.517-1.634,3.8a12.638,12.638,0,0,0-.52,1.847c-.07.307-.143.625-.228.949l-.029.11-.1.051-.889.447c-.752.379-1.529.77-2.315,1.156a3.193,3.193,0,0,1-1.442.329,4.742,4.742,0,0,1-1.117-.145l-.143-.034-.039-.142a2.952,2.952,0,0,1,.17-2.125c.155-.331.31-.671.46-1a21.975,21.975,0,0,1,2.616-4.676,8.458,8.458,0,0,0,.64-.984,7.964,7.964,0,0,1,.776-1.16,33,33,0,0,1,5.91-5.627,17.779,17.779,0,0,1,1.59-.972c.169-.1.338-.191.506-.288.493-.284,1-.567,1.483-.841.774-.436,1.574-.886,2.349-1.348a20.9,20.9,0,0,1,5.23-2.018c.964-.268,1.953-.5,2.91-.721.365-.085.742-.173,1.112-.261a4.286,4.286,0,0,1,.747-.117l.841-.05c2.012-.12,4.092-.244,6.142-.244.868,0,1.668.021,2.444.066.741.042,1.5.066,2.23.088,1.091.034,2.219.069,3.326.166a24.627,24.627,0,0,1,4.369.837c2.671.729,5.357,1.562,7.955,2.367l.106.033a8.752,8.752,0,0,1,1.71.812c.421.24.839.5,1.243.749.547.339,1.113.689,1.687.992a15.23,15.23,0,0,1,4.678,3.6c.309.362.63.707.956,1.027a9.342,9.342,0,0,1,2.13,3.121,15.787,15.787,0,0,0,.732,1.461c.143.262.29.533.428.805a8.415,8.415,0,0,1,.985,4.236c-.074,1.713-.065,3.467-.05,4.978a3.5,3.5,0,0,1-1.849,2.965,2.454,2.454,0,0,1-1.209.312c-.305.014-.626.021-.981.021-.453,0-.9-.011-1.321-.024l-.114,0a2.388,2.388,0,0,0-1.684.606,2.523,2.523,0,0,1-1.742.72,2.96,2.96,0,0,1-.72-.094,2.058,2.058,0,0,0-.5-.067,1.414,1.414,0,0,0-1.281.811,2.073,2.073,0,0,1-1.929,1.067,3.736,3.736,0,0,1-.393-.022,4.265,4.265,0,0,1-.589-.118c-.138-.035-.269-.067-.4-.089l-.163-.028a7.977,7.977,0,0,0-1.071-.134h-.043a.822.822,0,0,0-.835.557c-.067.173-.131.352-.193.526-.08.223-.162.453-.254.679a5.92,5.92,0,0,1-1.218,2.027,1.977,1.977,0,0,1-1.4.654,1.971,1.971,0,0,1-.823-.193c-.133-.062-.262-.129-.387-.194-.17-.089-.331-.173-.5-.242a1.337,1.337,0,0,0-.5-.11.96.96,0,0,0-.809.505c-.154.23-.285.473-.424.73-.088.163-.179.332-.276.5a2.169,2.169,0,0,1-1.386,1.013A2.02,2.02,0,0,1-169.821,540.63Zm-4.352-15.556c.429,0,.825.008,1.209.024a1.483,1.483,0,0,1,1.44,1.414,7.843,7.843,0,0,1,.044,1.067c0,.082,0,.165,0,.247q0,1.092.01,2.185c.012,2.463.025,5.009.012,7.514a4.017,4.017,0,0,0,.439,1.8,1.313,1.313,0,0,0,1.2.8,1.521,1.521,0,0,0,.385-.051,1.665,1.665,0,0,0,1.081-.783c.092-.157.181-.321.267-.48.138-.256.281-.521.448-.77a1.442,1.442,0,0,1,1.225-.728,1.831,1.831,0,0,1,.687.147c.189.078.368.171.54.261.125.065.243.127.365.183a1.476,1.476,0,0,0,.614.147,1.48,1.48,0,0,0,1.049-.507,5.347,5.347,0,0,0,1.108-1.862c.088-.216.168-.441.246-.659.063-.177.128-.359.2-.539a1.324,1.324,0,0,1,1.36-.876,8.361,8.361,0,0,1,1.14.141l.162.027c.15.025.3.062.439.1a3.828,3.828,0,0,0,.52.106,3.237,3.237,0,0,0,.341.019,1.565,1.565,0,0,0,1.5-.816,1.923,1.923,0,0,1,1.715-1.062,2.558,2.558,0,0,1,.622.082,2.459,2.459,0,0,0,.6.079,2.045,2.045,0,0,0,1.406-.591,2.9,2.9,0,0,1,2.02-.735l.13,0c.414.012.859.024,1.305.024.347,0,.66-.007.957-.021a2.016,2.016,0,0,0,.954-.227c1.447-.976,1.635-1.834,1.628-2.546-.015-1.516-.024-3.279.051-5a7.929,7.929,0,0,0-.932-3.989c-.134-.265-.28-.533-.421-.792a16.164,16.164,0,0,1-.754-1.508,8.851,8.851,0,0,0-2.019-2.956c-.336-.329-.668-.686-.987-1.059a14.75,14.75,0,0,0-4.53-3.479c-.589-.311-1.163-.666-1.717-1.01-.4-.248-.814-.5-1.227-.74a8.368,8.368,0,0,0-1.61-.769l-.106-.033c-2.594-.8-5.277-1.636-7.939-2.362a24.148,24.148,0,0,0-4.281-.821c-1.093-.1-2.214-.131-3.3-.165-.735-.023-1.494-.046-2.242-.089-.767-.044-1.558-.065-2.416-.065-2.035,0-4.108.124-6.113.243l-.842.05a3.8,3.8,0,0,0-.66.1c-.371.089-.749.177-1.114.262-.951.221-1.935.451-2.889.715a20.482,20.482,0,0,0-5.107,1.966c-.78.466-1.584.918-2.36,1.355-.486.273-.988.556-1.479.839-.169.1-.34.194-.51.29a17.409,17.409,0,0,0-1.546.944,32.526,32.526,0,0,0-5.82,5.545,7.479,7.479,0,0,0-.725,1.088,8.96,8.96,0,0,1-.679,1.042,21.6,21.6,0,0,0-2.552,4.573c-.15.329-.306.67-.462,1a2.415,2.415,0,0,0-.177,1.637,4.069,4.069,0,0,0,.853.1,2.7,2.7,0,0,0,1.221-.277c.784-.385,1.56-.775,2.311-1.153l.788-.4c.071-.28.135-.557.2-.826a13,13,0,0,1,.543-1.92c.511-1.288,1.086-2.573,1.642-3.815.208-.465.424-.947.633-1.421a3.327,3.327,0,0,1,.3-.536,1.317,1.317,0,0,1,1.09-.617,1.288,1.288,0,0,1,.435.077,1.213,1.213,0,0,1,.629,1.51,5.4,5.4,0,0,1-.313.818c-.04.09-.08.18-.119.271q-.31.73-.621,1.459c-.492,1.154-1,2.347-1.488,3.526a2.681,2.681,0,0,0-.137.584l-.011.066.587-.018c.708-.022,1.373-.043,2.043-.038h.062a4.968,4.968,0,0,0,1.8-.316,10.515,10.515,0,0,1,3.783-.629,26.7,26.7,0,0,1,2.951.2,2.725,2.725,0,0,1,.889.283c.914.448,1.84.909,2.736,1.354.944.469,1.92.954,2.882,1.425,1.3.636,2.768,1.357,4.234,2.028a5.85,5.85,0,0,0,2.507.483h0c.646,0,1.3-.062,1.986-.127.015-.093.027-.18.039-.26a4.669,4.669,0,0,1,.148-.741,1.263,1.263,0,0,1,1.14-.97C-175.832,525.1-175,525.074-174.172,525.074Zm-3.878,12.574a1.281,1.281,0,0,1-.2-.014c-.844-.134-1.7-.281-2.525-.424l-.841-.144-.191-.035a4.028,4.028,0,0,0-.485-.071c-1.538-.1-3.1-.206-4.611-.3l-2.635-.173c-3.205-.212-6.62-.307-11.072-.307-1.946,0-3.925.018-5.839.035s-3.9.035-5.844.035c-.766,0-1.473,0-2.163-.008-.416,0-.832,0-1.249,0-.282,0-.565,0-.849,0-.526,0-1.221-.005-1.941-.049l-.184-.011-.044-.179c-.025-.1-.056-.2-.086-.3a1.994,1.994,0,0,1-.125-.627c.008-.559,0-1.13-.006-1.681a24.553,24.553,0,0,1,.2-4.331,8.9,8.9,0,0,0,.075-1.422c0-.243,0-.5.009-.755l0-.144.127-.068a4.353,4.353,0,0,1,2.1-.564,4.56,4.56,0,0,1,1.789.388,7.452,7.452,0,0,0,2.88.626,6.26,6.26,0,0,0,3.187-.894,15.628,15.628,0,0,1,4.313-1.641,7.743,7.743,0,0,1,1.814-.188l.224,0,.248,0a7.624,7.624,0,0,0,3-.526,7.839,7.839,0,0,1,3.033-.506c.42,0,.845.016,1.256.032.2.008.4.015.6.021a2.836,2.836,0,0,1,1.128.372l.041.021c1.084.537,2.183,1.088,3.246,1.621,1.357.68,2.761,1.384,4.146,2.065.925.457,1.886.866,2.715,1.214a6.4,6.4,0,0,0,2.813.489c.149-.007.3-.01.474-.01.3,0,.606.011.926.022.215.008.438.015.665.02l.2,0,.041.195c.058.277.123.553.185.819a9.269,9.269,0,0,1,.363,2.781c-.05.788-.045,1.6-.04,2.381,0,.382,0,.778,0,1.167,0,.16-.015.314-.031.493-.008.09-.016.185-.024.291l-.016.221-.221.01c-.088,0-.172.012-.254.02C-177.84,537.638-177.944,537.648-178.05,537.648Zm-22.559-1.972c4.464,0,7.888.095,11.1.308l2.634.173c1.511.1,3.074.2,4.611.3a4.473,4.473,0,0,1,.545.079l.183.033.842.145c.825.142,1.678.289,2.518.422a1.786,1.786,0,0,0,.394-.01l.058-.005.007-.083c.015-.169.028-.314.029-.455,0-.385,0-.778,0-1.159-.005-.792-.01-1.61.041-2.416a8.893,8.893,0,0,0-.351-2.634c-.049-.208-.1-.421-.146-.637l-.474-.016c-.315-.011-.613-.022-.908-.022-.162,0-.31,0-.451.01a6.9,6.9,0,0,1-3.03-.527c-.835-.35-1.805-.763-2.742-1.226-1.386-.682-2.79-1.386-4.148-2.067-1.063-.533-2.161-1.083-3.244-1.62l-.041-.021a2.447,2.447,0,0,0-.921-.32c-.2-.006-.4-.013-.6-.021-.407-.015-.827-.031-1.237-.031a7.374,7.374,0,0,0-2.841.468,8.1,8.1,0,0,1-3.191.564l-.257,0-.215,0a7.256,7.256,0,0,0-1.7.175,15.146,15.146,0,0,0-4.178,1.586,6.753,6.753,0,0,1-3.439.962,7.947,7.947,0,0,1-3.073-.665,4.072,4.072,0,0,0-1.6-.349,3.8,3.8,0,0,0-1.732.438c0,.2,0,.4,0,.594a9.261,9.261,0,0,1-.082,1.5,24.175,24.175,0,0,0-.2,4.243c.007.555.014,1.129.006,1.7a1.624,1.624,0,0,0,.1.471c.015.048.03.1.045.146.642.033,1.257.038,1.732.038.283,0,.565,0,.846,0,.42,0,.838-.005,1.256,0,.689.005,1.395.008,2.159.008,1.946,0,3.926-.018,5.84-.035S-202.557,535.675-200.609,535.675Zm58.58-5.444-.078-.02a1.088,1.088,0,0,1-.856-1.355,18.908,18.908,0,0,0,.179-3.572c-.009-.682-.019-1.388.016-2.085a10.068,10.068,0,0,0-1.1-4.829c-.537-1.153-1.117-2.375-1.787-3.537a11.463,11.463,0,0,0-1.109-1.5c-.136-.165-.276-.335-.411-.5-.171-.216-.363-.422-.566-.641-.1-.1-.2-.213-.3-.327l-.115-.128.078-.153a2.609,2.609,0,0,1,.767-.84,2.709,2.709,0,0,0,.462-.429c.093-.12.188-.24.283-.359a10.4,10.4,0,0,0,.8-1.1,7.463,7.463,0,0,0,.476-1.02c.072-.175.145-.356.228-.541l.1-.224.226.095c.178.075.348.148.511.22.334.146.65.283.968.394.365.129.75.233,1.123.334l.361.1a2.249,2.249,0,0,1,1.657,1.567c.084.275.175.556.263.827a21.6,21.6,0,0,1,.626,2.2q.069.33.138.659c.344,1.646.7,3.347,1.2,4.989a5.225,5.225,0,0,1-.73,4.292,1.866,1.866,0,0,1-.74.64,1.79,1.79,0,0,0-.961,1.4c-.05.283-.1.57-.156.848l-.051.271c-.015.079-.026.16-.038.246a2.651,2.651,0,0,1-.143.634,7.971,7.971,0,0,0-.577,2.406,1.067,1.067,0,0,1-.657,1.026Zm-5.52-18.575.172.185c.21.226.408.439.592.67.132.167.271.335.4.5a11.84,11.84,0,0,1,1.156,1.573c.68,1.179,1.265,2.413,1.807,3.576a10.544,10.544,0,0,1,1.147,5.065c-.033.681-.024,1.379-.015,2.054a19.287,19.287,0,0,1-.187,3.667.588.588,0,0,0,.409.76c.168-.092.244-.258.266-.562a8.464,8.464,0,0,1,.611-2.556,2.248,2.248,0,0,0,.112-.518c.012-.087.025-.178.042-.268l.051-.272c.052-.277.1-.563.155-.844a2.283,2.283,0,0,1,1.225-1.752,1.342,1.342,0,0,0,.539-.452,4.749,4.749,0,0,0,.681-3.891c-.5-1.663-.861-3.376-1.207-5.032q-.069-.329-.138-.659a21.229,21.229,0,0,0-.613-2.144c-.088-.273-.18-.555-.266-.835a1.755,1.755,0,0,0-1.313-1.232l-.357-.1c-.381-.1-.775-.21-1.158-.345-.335-.117-.659-.258-1-.408l-.277-.12c-.043.1-.084.2-.124.3a7.823,7.823,0,0,1-.51,1.088,10.766,10.766,0,0,1-.835,1.15c-.093.117-.187.235-.278.353a3.122,3.122,0,0,1-.545.514A2.61,2.61,0,0,0-147.549,511.656Zm11.062,3.708-.7-.011-.042-.193q-.11-.5-.219-1.007c-.163-.751-.331-1.528-.505-2.29q-.034-.148-.066-.3a11.544,11.544,0,0,0-.392-1.46,10.73,10.73,0,0,1-.6-3.855c.01-2.207.009-4.452.007-6.622q0-1.735,0-3.471V496.1a9.189,9.189,0,0,1,.044-1.1,1.022,1.022,0,0,1,1-.931,3.99,3.99,0,0,1,1.042.126,1.123,1.123,0,0,1,.88,1.022,7.782,7.782,0,0,1,.033.782v.094c.059,5.7-.066,10.728-.383,15.365-.029.428-.025.871-.022,1.3,0,.268,0,.545,0,.819-.007.355-.025.713-.043,1.059-.008.164-.017.327-.024.491Zm-1.395-20.8h-.065a.52.52,0,0,0-.518.49,8.813,8.813,0,0,0-.041,1.045v.06q0,1.735,0,3.47c0,2.172,0,4.417-.007,6.625a10.25,10.25,0,0,0,.569,3.68,11.917,11.917,0,0,1,.411,1.524q.033.147.066.293c.175.764.343,1.543.506,2.3l.028.131c.009-.206.017-.413.022-.618.005-.267,0-.54,0-.805,0-.437-.007-.89.023-1.337.316-4.624.441-9.637.382-15.326V496c0-.242,0-.493-.03-.731a.624.624,0,0,0-.5-.591A3.563,3.563,0,0,0-137.882,494.563Zm-11.479,15.758-.128-.09q-.323-.227-.646-.457c-.5-.357-1.022-.727-1.543-1.073-.349-.232-.723-.446-1.084-.654-.161-.093-.328-.189-.491-.285l-.842-.5c-.686-.408-1.395-.83-2.1-1.233-.136-.078-.272-.16-.4-.239a6.034,6.034,0,0,0-1.306-.653c-.6-.182-1.2-.37-1.784-.551-2.752-.854-5.6-1.737-8.455-2.378a19.614,19.614,0,0,0-4.285-.6c-.1,0-.2,0-.3,0h-.048a3.325,3.325,0,0,1-.564-.065c-.109-.019-.221-.038-.347-.055l-.295-.04.09-.284c.032-.1.055-.192.078-.281a1.546,1.546,0,0,1,.194-.511c.23-.339.477-.671.717-.992.152-.2.309-.414.459-.624a1.159,1.159,0,0,0-.09-1.731,3.18,3.18,0,0,0-.3-.279c-.07-.061-.143-.123-.213-.19-.1-.1-.19-.193-.294-.305l-.132-.141-.094-.1.033-.133a1.645,1.645,0,0,1,1.407-1.222.517.517,0,0,1,.111-.012,1.076,1.076,0,0,1,.729.375,1.8,1.8,0,0,1,.279.529,2.564,2.564,0,0,0,.119.274,1.242,1.242,0,0,0,1.1.809,1.849,1.849,0,0,0,.608-.119,8.116,8.116,0,0,0,.968-.445c.138-.07.28-.143.422-.212a18.038,18.038,0,0,1,5.164-1.782,33.8,33.8,0,0,1,4.879-.451c.436,0,.865.016,1.273.047a7.768,7.768,0,0,1,5,2.535c.117.118.231.241.342.359a7.267,7.267,0,0,0,.744.726,1.134,1.134,0,0,0,.684.3,1.083,1.083,0,0,0,.809-.5,7.736,7.736,0,0,0,.486-.718l.053-.085a1.25,1.25,0,0,1,1.086-.641,1.577,1.577,0,0,1,.421.061l.228.062a8.491,8.491,0,0,1,1.56.535.962.962,0,0,1,.6.8.952.952,0,0,1-.535.831,1.361,1.361,0,0,0-.716,1.429,2.2,2.2,0,0,1,0,.226,1.552,1.552,0,0,0,0,.194,19.08,19.08,0,0,1-.6,5.765c-.055.262-.11.523-.163.785a5.434,5.434,0,0,1-2.754,3.923Zm-23.065-9.218a20.036,20.036,0,0,1,4.394.616c2.877.646,5.733,1.532,8.494,2.389.584.181,1.188.369,1.782.551a6.5,6.5,0,0,1,1.418.7c.13.078.263.159.394.234.706.405,1.416.828,2.1,1.237l.841.5c.161.1.326.19.486.282.368.212.749.43,1.112.671.528.351,1.051.722,1.557,1.082l.513.364a4.9,4.9,0,0,0,2.371-3.508q.08-.395.163-.788a18.7,18.7,0,0,0,.593-5.615,1.946,1.946,0,0,1,0-.259c0-.062,0-.121,0-.176a1.848,1.848,0,0,1,.962-1.893c.188-.111.293-.25.288-.382s-.122-.269-.322-.368a8.122,8.122,0,0,0-1.469-.5l-.23-.063a.769.769,0,0,0-.95.364l-.053.084a8.116,8.116,0,0,1-.519.765,1.559,1.559,0,0,1-1.2.693,1.61,1.61,0,0,1-1-.405,7.749,7.749,0,0,1-.8-.775c-.108-.116-.22-.236-.332-.349a7.292,7.292,0,0,0-4.686-2.388c-.4-.03-.811-.045-1.235-.045a33.384,33.384,0,0,0-4.808.446,17.175,17.175,0,0,0-5.019,1.737c-.137.066-.277.138-.412.207a8.619,8.619,0,0,1-1.029.471,2.31,2.31,0,0,1-.775.148,1.711,1.711,0,0,1-1.536-1.072,2.971,2.971,0,0,1-.145-.329,1.417,1.417,0,0,0-.2-.39.611.611,0,0,0-.346-.2,1.182,1.182,0,0,0-1,.727l.036.038c.1.107.186.2.275.286.06.057.124.113.193.172a3.6,3.6,0,0,1,.343.323,1.632,1.632,0,0,1,.125,2.356c-.153.213-.312.426-.465.632-.236.316-.48.644-.7.974a1.207,1.207,0,0,0-.124.354l-.007.029.082.014a2.632,2.632,0,0,0,.513.057C-172.636,501.1-172.531,501.1-172.426,501.1Zm31.519,5.618a6.742,6.742,0,0,1-3.264-1.035c-.132-.07-.265-.14-.4-.209l-.163-.084.031-.181c.017-.1.034-.2.051-.293.033-.186.063-.362.092-.539l.017-.1a16.356,16.356,0,0,0,.3-3.523,2.07,2.07,0,0,1,.665-1.7,2.475,2.475,0,0,0,.61-2.036,2.6,2.6,0,0,0-1.123-1.928,6.825,6.825,0,0,0-1.512-.624,6.593,6.593,0,0,0-.889-.195c-.157-.027-.319-.055-.479-.088a3.32,3.32,0,0,0-.672-.075,1.908,1.908,0,0,0-1.539.717,3.283,3.283,0,0,1-.3.3c-.057.052-.119.108-.187.173l-.151.144-.353-.255c-.159-.115-.315-.228-.471-.342-.217-.157-.435-.322-.645-.482a16.732,16.732,0,0,0-1.415-1,6.463,6.463,0,0,0-3.771-1.059c-.3.016-.618.023-1,.023-.313,0-.63-.005-.936-.01l-.506-.007h-.258a20.069,20.069,0,0,0-8.733,1.939c-.3.144-.629.284-1.063.454a.528.528,0,0,1-.2.033c-.037,0-.073,0-.112,0s-.093-.006-.148-.006h-.135l-.074-.113c-.03-.045-.063-.094-.1-.144a4.117,4.117,0,0,1-.26-.409,1.726,1.726,0,0,0-1.672-.937l-.122,0a3.742,3.742,0,0,0-3.2,1.9,1.651,1.651,0,0,0,.232,2.065c.148.172.3.338.467.515l.206.223.123.134-.09.158-.918,1.611-.93,1.633-.036.064-.065.034a1.317,1.317,0,0,1-.628.13c-.146,0-.295-.012-.452-.025a5.175,5.175,0,0,0-.564-.026l-.193.005-.054-.185c-.026-.091-.057-.175-.086-.257a1.627,1.627,0,0,1-.127-.541c-.006-2.041,0-4.194.015-6.985a1.789,1.789,0,0,1,.069-.428c.011-.044.022-.086.028-.12l.019-.1.079-.058c.035-.026.067-.054.1-.081a.533.533,0,0,1,.3-.162,20.426,20.426,0,0,0,7.712-2.469,26.383,26.383,0,0,1,4.442-1.722l.245-.078a10.806,10.806,0,0,1,3.168-.423c.415-.005.851-.008,1.331-.008.785,0,1.582.007,2.353.014.708.006,1.44.013,2.16.014a5.7,5.7,0,0,1,2.445.568c.339.161.691.315,1.031.463a14.2,14.2,0,0,1,2.812,1.494,2.779,2.779,0,0,0,.441.246l.146.072q.772.39,1.545.778c.912.458,1.855.932,2.779,1.406a7.088,7.088,0,0,0,3.131.948,2.361,2.361,0,0,1,.627.122c.093.027.189.055.288.078l.158.037.03.159a13.761,13.761,0,0,1,.15,2.882c-.007.379-.015.771-.008,1.153.024,1.288.014,2.6,0,3.86v.136c0,.4,0,.806,0,1.2.007.931.014,1.893-.05,2.918l-.014.229-.229.005Zm-3.271-1.6.24.127a6.433,6.433,0,0,0,2.905.975c.049-.921.042-1.8.036-2.648,0-.4-.006-.806,0-1.208v-.137c.01-1.261.021-2.565,0-3.847-.007-.391,0-.788.008-1.172a14.146,14.146,0,0,0-.114-2.624l-.152-.043a1.981,1.981,0,0,0-.495-.1,7.533,7.533,0,0,1-3.352-1c-.922-.473-1.864-.946-2.775-1.4q-.773-.388-1.546-.778l-.139-.068a3.193,3.193,0,0,1-.52-.294,13.818,13.818,0,0,0-2.715-1.438c-.343-.15-.7-.306-1.044-.469a5.131,5.131,0,0,0-2.231-.52c-.722,0-1.455-.008-2.164-.014-.77-.007-1.566-.014-2.349-.014-.479,0-.912,0-1.325.008a10.35,10.35,0,0,0-3.023.4l-.245.078a26,26,0,0,0-4.359,1.687,20.93,20.93,0,0,1-7.866,2.522l-.049.042-.056.049-.013.054a1.359,1.359,0,0,0-.054.308c-.016,2.788-.02,4.941-.015,6.979a1.275,1.275,0,0,0,.1.374l.038.106c.149,0,.291.016.43.027s.285.023.411.023a.992.992,0,0,0,.335-.046l.889-1.562.827-1.452-.081-.087c-.167-.18-.325-.35-.478-.528a2.143,2.143,0,0,1-.281-2.653,4.269,4.269,0,0,1,3.6-2.142l.141,0a2.214,2.214,0,0,1,2.114,1.2,3.672,3.672,0,0,0,.229.358l.033.047.043,0c.03,0,.057,0,.082,0h.018c.419-.165.735-.3,1.024-.437a20.632,20.632,0,0,1,9.212-1.986l.509.007c.3,0,.62.01.928.01.37,0,.678-.007.97-.023.11-.006.222-.009.333-.009a7.076,7.076,0,0,1,3.725,1.14,17.114,17.114,0,0,1,1.458,1.027c.208.158.424.322.638.477.156.115.311.227.469.341l.018.013.043-.039a2.894,2.894,0,0,0,.258-.253,2.411,2.411,0,0,1,1.921-.894,3.816,3.816,0,0,1,.774.086c.152.032.31.059.462.085a7.065,7.065,0,0,1,.956.211,7.229,7.229,0,0,1,1.622.675,3.1,3.1,0,0,1,1.357,2.3,2.936,2.936,0,0,1-.753,2.448,1.568,1.568,0,0,0-.52,1.316,16.733,16.733,0,0,1-.308,3.631l-.017.1c-.029.181-.06.359-.093.547Zm-36.312-3.559h0l-.089,0a.884.884,0,0,1-.927-.953c-.028-.527-.024-1.06-.02-1.575.026-2.632.049-4.646.077-6.53a8.8,8.8,0,0,1,.091-1.018c.052-.392.124-.929.751-.929a3.512,3.512,0,0,1,.751.123l.17.04.02.174c.026.221.053.432.079.636.058.45.112.874.138,1.3.039.642.03,1.275.015,1.863-.031,1.134-.069,2.287-.1,3.4q-.028.852-.055,1.7c0,.115,0,.234,0,.349,0,.167,0,.339-.011.512C-179.648,501.253-179.945,501.558-180.49,501.558Zm-.117-10.509c-.138,0-.19,0-.255.5a8.369,8.369,0,0,0-.087.96c-.028,1.883-.051,3.9-.077,6.527,0,.507-.008,1.032.02,1.545.018.354.12.461.455.48l.062,0h0c.24,0,.358-.066.383-.439.01-.156.01-.312.009-.478,0-.119,0-.242,0-.366q.027-.852.055-1.7c.036-1.114.074-2.266.1-3.4.015-.577.024-1.2-.014-1.82-.024-.41-.078-.826-.134-1.267-.019-.151-.039-.307-.059-.467A2.433,2.433,0,0,0-180.607,491.049Z" transform="translate(224.776 -486.23)" fill="#005789"/>
      <path id="Path_7916" data-name="Path 7916" d="M-219.908,517.639a3.989,3.989,0,0,1,3.67-.166,6.708,6.708,0,0,0,6.289-.282,15.543,15.543,0,0,1,4.245-1.613,7.924,7.924,0,0,1,1.975-.179,8.172,8.172,0,0,0,3.348-.542,11.253,11.253,0,0,1,4.783-.435,2.764,2.764,0,0,1,1.066.367c2.467,1.223,4.922,2.471,7.392,3.687.893.441,1.81.835,2.729,1.22a6.606,6.606,0,0,0,2.921.508c.657-.031,1.317.017,2.048.032a13.059,13.059,0,0,1,.544,3.533c-.076,1.183-.028,2.374-.04,3.562,0,.229-.032.457-.054.768a3.969,3.969,0,0,1-.723.029c-1.123-.178-2.242-.376-3.363-.567a6.706,6.706,0,0,0-.7-.109c-2.415-.163-4.83-.318-7.245-.477-8.307-.55-16.621-.181-24.934-.246-1.325-.011-2.653.04-4.026-.042a3.832,3.832,0,0,1-.2-.86,39.892,39.892,0,0,1,.193-5.975A17.8,17.8,0,0,0-219.908,517.639Z" transform="translate(226.28 -476.97)" fill="#fff" fill-rule="evenodd"/>
      <path id="Path_7916_-_Outline" data-name="Path 7916 - Outline" d="M-197.444,514.119c.42,0,.845.016,1.256.032.2.008.4.015.6.021a2.836,2.836,0,0,1,1.128.372l.042.021c1.084.537,2.183,1.088,3.246,1.621,1.357.68,2.761,1.384,4.146,2.066.925.457,1.886.866,2.715,1.214a6.4,6.4,0,0,0,2.813.489c.149-.007.3-.01.474-.01.3,0,.606.011.926.022.215.008.438.015.665.02l.2,0,.041.195c.058.277.123.553.185.819a9.269,9.269,0,0,1,.363,2.781c-.05.788-.045,1.6-.04,2.381,0,.382,0,.778,0,1.167,0,.16-.015.314-.031.493-.008.089-.016.185-.024.291l-.016.221-.221.01c-.088,0-.172.012-.254.02-.111.011-.215.021-.321.021a1.281,1.281,0,0,1-.2-.014c-.844-.134-1.7-.281-2.525-.423l-.841-.145-.191-.035a4.039,4.039,0,0,0-.485-.071c-1.536-.1-3.1-.206-4.606-.3l-2.64-.173c-3.205-.212-6.62-.307-11.072-.307-1.946,0-3.925.018-5.839.035s-3.9.035-5.844.035c-.766,0-1.474,0-2.164-.008-.416,0-.832,0-1.249,0-.282,0-.565,0-.849,0-.526,0-1.221-.005-1.941-.049l-.184-.011-.044-.179c-.025-.1-.056-.2-.086-.3a1.994,1.994,0,0,1-.125-.627c.008-.559,0-1.13-.006-1.682a24.554,24.554,0,0,1,.2-4.331,8.9,8.9,0,0,0,.075-1.423c0-.243,0-.5.009-.755l0-.144.127-.068a4.353,4.353,0,0,1,2.1-.564,4.56,4.56,0,0,1,1.789.388,7.452,7.452,0,0,0,2.88.626,6.259,6.259,0,0,0,3.187-.894,15.627,15.627,0,0,1,4.313-1.641,7.744,7.744,0,0,1,1.814-.188l.224,0,.248,0a7.624,7.624,0,0,0,3-.526A7.839,7.839,0,0,1-197.444,514.119Zm15.607,6.342a6.847,6.847,0,0,1-2.671-.536c-.835-.35-1.805-.763-2.742-1.226-1.386-.682-2.791-1.386-4.149-2.067-1.062-.533-2.161-1.083-3.243-1.62l-.042-.021a2.447,2.447,0,0,0-.921-.32c-.2-.006-.4-.013-.6-.021-.407-.015-.827-.031-1.237-.031a7.374,7.374,0,0,0-2.841.468,8.1,8.1,0,0,1-3.191.564l-.257,0-.215,0a7.256,7.256,0,0,0-1.7.175,15.149,15.149,0,0,0-4.177,1.586,6.753,6.753,0,0,1-3.439.962,7.947,7.947,0,0,1-3.073-.665,4.071,4.071,0,0,0-1.6-.349,3.8,3.8,0,0,0-1.732.438c0,.2,0,.4,0,.594a9.262,9.262,0,0,1-.082,1.5,24.173,24.173,0,0,0-.2,4.243c.007.555.014,1.129.006,1.7a1.625,1.625,0,0,0,.1.471c.015.048.03.1.045.146.642.033,1.257.038,1.732.038.283,0,.565,0,.846,0,.42,0,.838-.005,1.256,0,.689.005,1.4.008,2.16.008,1.946,0,3.926-.018,5.84-.035s3.9-.035,5.844-.035c4.464,0,7.888.095,11.1.308l2.639.173c1.51.1,3.071.2,4.606.3a4.473,4.473,0,0,1,.545.079l.183.033.842.145c.825.142,1.677.289,2.518.422a1.791,1.791,0,0,0,.394-.01l.058-.005.007-.083c.015-.169.028-.314.029-.455,0-.385,0-.778,0-1.159-.005-.792-.01-1.61.041-2.416a8.894,8.894,0,0,0-.351-2.634c-.049-.208-.1-.421-.146-.637l-.474-.016c-.315-.011-.613-.022-.908-.022-.162,0-.31,0-.451.01C-181.6,520.458-181.718,520.461-181.837,520.461Z" transform="translate(226.28 -476.97)" fill="#005789"/>
      <path id="Path_7917" data-name="Path 7917" d="M-162,508.134c-.728-.512-1.45-1.039-2.194-1.534-.513-.34-1.057-.633-1.587-.946-.98-.58-1.955-1.168-2.941-1.734a9.061,9.061,0,0,0-1.761-.914c-3.4-1.042-6.782-2.154-10.258-2.935a18.757,18.757,0,0,0-4.645-.606,6.4,6.4,0,0,1-.918-.117,3.12,3.12,0,0,1,.241-.727c.372-.55.785-1.071,1.172-1.611a1.4,1.4,0,0,0-.108-2.044c-.158-.177-.352-.319-.524-.482-.133-.129-.257-.267-.417-.437a1.413,1.413,0,0,1,1.219-1.038.766.766,0,0,1,.594.279,4.257,4.257,0,0,1,.371.762,1.464,1.464,0,0,0,2.007.807,14.568,14.568,0,0,0,1.415-.667,17.662,17.662,0,0,1,5.092-1.76,27.748,27.748,0,0,1,6.1-.4,7.554,7.554,0,0,1,4.844,2.461,13.772,13.772,0,0,0,1.107,1.1,1.16,1.16,0,0,0,1.845-.249,8.892,8.892,0,0,0,.556-.827,1.016,1.016,0,0,1,1.228-.472,9.733,9.733,0,0,1,1.744.581.624.624,0,0,1,.049,1.19,1.608,1.608,0,0,0-.839,1.661c.009.142-.012.286,0,.427a21.829,21.829,0,0,1-.76,6.477A5.186,5.186,0,0,1-162,508.134Zm1.47-8.243a2.063,2.063,0,0,0-.116-.687,1.4,1.4,0,0,0-.564-.577.8.8,0,0,0-1.083.611,11.029,11.029,0,0,1-1.287,3.72,1.482,1.482,0,0,0-.1.824.841.841,0,0,0,1.3.574,2.836,2.836,0,0,0,.654-.73A7.4,7.4,0,0,0-160.534,499.891Z" transform="translate(237.434 -484.338)" fill="#fff" fill-rule="evenodd"/>
      <path id="Path_7917_-_Outline" data-name="Path 7917 - Outline" d="M-162.02,508.428l-.128-.09q-.323-.227-.645-.457c-.5-.357-1.022-.727-1.544-1.073-.349-.232-.723-.446-1.084-.654-.161-.093-.328-.189-.492-.285l-.842-.5c-.686-.408-1.395-.83-2.1-1.233-.136-.078-.272-.16-.4-.239a6.034,6.034,0,0,0-1.306-.653c-.6-.182-1.2-.37-1.784-.551-2.752-.854-5.6-1.737-8.455-2.378a19.614,19.614,0,0,0-4.285-.6c-.1,0-.2,0-.3,0h-.048a3.327,3.327,0,0,1-.564-.065c-.109-.019-.221-.038-.347-.055l-.295-.04.09-.284c.032-.1.055-.192.078-.281a1.546,1.546,0,0,1,.194-.511c.23-.339.477-.671.717-.992.152-.2.309-.414.459-.624a1.159,1.159,0,0,0-.09-1.731,3.18,3.18,0,0,0-.3-.279c-.07-.061-.143-.123-.213-.19-.1-.1-.19-.193-.294-.305l-.132-.141-.094-.1.033-.133a1.645,1.645,0,0,1,1.407-1.222.519.519,0,0,1,.111-.012,1.076,1.076,0,0,1,.729.375,1.8,1.8,0,0,1,.279.529,2.562,2.562,0,0,0,.119.274,1.242,1.242,0,0,0,1.1.809,1.849,1.849,0,0,0,.608-.119,8.117,8.117,0,0,0,.968-.445c.138-.07.28-.143.422-.212a18.039,18.039,0,0,1,5.164-1.782,33.8,33.8,0,0,1,4.879-.451c.436,0,.865.016,1.273.047a7.768,7.768,0,0,1,5,2.535c.117.118.231.241.342.359a7.266,7.266,0,0,0,.744.726,1.134,1.134,0,0,0,.684.3,1.083,1.083,0,0,0,.809-.5,7.732,7.732,0,0,0,.486-.718l.053-.085a1.25,1.25,0,0,1,1.086-.641,1.575,1.575,0,0,1,.421.061l.228.062a8.5,8.5,0,0,1,1.56.535.962.962,0,0,1,.6.8.952.952,0,0,1-.535.831,1.361,1.361,0,0,0-.716,1.429,2.2,2.2,0,0,1,0,.226,1.557,1.557,0,0,0,0,.193,19.079,19.079,0,0,1-.6,5.765c-.055.262-.11.523-.163.785a5.434,5.434,0,0,1-2.754,3.923Zm-23.065-9.218a20.036,20.036,0,0,1,4.394.616c2.877.646,5.733,1.532,8.494,2.389.584.181,1.188.369,1.782.551a6.5,6.5,0,0,1,1.418.7c.13.078.263.159.394.234.706.405,1.416.828,2.1,1.237l.841.5c.161.1.326.19.486.282.368.212.749.43,1.112.671.528.351,1.051.723,1.557,1.082l.513.364a4.9,4.9,0,0,0,2.371-3.508q.08-.395.163-.788a18.7,18.7,0,0,0,.593-5.615,1.951,1.951,0,0,1,0-.259c0-.062,0-.121,0-.176a1.848,1.848,0,0,1,.962-1.893c.188-.111.293-.25.288-.382s-.122-.269-.322-.368a8.122,8.122,0,0,0-1.469-.5l-.23-.063a.769.769,0,0,0-.95.364l-.053.084a8.116,8.116,0,0,1-.519.765,1.559,1.559,0,0,1-1.2.693,1.61,1.61,0,0,1-1-.405,7.752,7.752,0,0,1-.8-.775c-.108-.116-.22-.236-.332-.349a7.292,7.292,0,0,0-4.686-2.388c-.4-.03-.811-.045-1.235-.045a33.384,33.384,0,0,0-4.807.446,17.175,17.175,0,0,0-5.019,1.737c-.137.066-.277.138-.412.207a8.618,8.618,0,0,1-1.029.471,2.31,2.31,0,0,1-.775.148,1.711,1.711,0,0,1-1.536-1.072,2.975,2.975,0,0,1-.145-.329,1.416,1.416,0,0,0-.2-.39.611.611,0,0,0-.346-.2,1.182,1.182,0,0,0-1,.727l.036.038c.1.107.186.2.275.286.06.057.124.113.193.172a3.609,3.609,0,0,1,.343.323,1.632,1.632,0,0,1,.125,2.356c-.153.213-.312.426-.465.632-.236.316-.48.644-.7.974a1.207,1.207,0,0,0-.124.354l-.007.029.082.014a2.638,2.638,0,0,0,.513.057C-185.295,499.211-185.189,499.21-185.085,499.21Zm22.249,5.544h0a1.1,1.1,0,0,1-1.1-.946,1.726,1.726,0,0,1,.133-.97,10.772,10.772,0,0,0,1.258-3.636,1.067,1.067,0,0,1,1.047-.887.919.919,0,0,1,.389.084,1.635,1.635,0,0,1,.677.682,1.333,1.333,0,0,1,.127.574c0,.071.009.138.018.2l0,.022v.022a7.6,7.6,0,0,1-1.24,3.861,3.069,3.069,0,0,1-.714.8A.973.973,0,0,1-162.836,504.754Zm1.339-5.938a.567.567,0,0,0-.552.458,11.262,11.262,0,0,1-1.314,3.8,1.224,1.224,0,0,0-.075.678.608.608,0,0,0,.6.5.48.48,0,0,0,.294-.1,2.6,2.6,0,0,0,.595-.665,7.114,7.114,0,0,0,1.162-3.59c-.009-.073-.014-.145-.019-.214a.962.962,0,0,0-.065-.364,1.143,1.143,0,0,0-.451-.472A.422.422,0,0,0-161.5,498.816Z" transform="translate(237.434 -484.338)" fill="#005789"/>
      <path id="Path_7918" data-name="Path 7918" d="M-152.416,505.985a7.243,7.243,0,0,1-3.659-1.215c.051-.294.1-.564.144-.835a16.948,16.948,0,0,0,.322-3.682,1.814,1.814,0,0,1,.593-1.507,2.986,2.986,0,0,0-.558-4.354,7.035,7.035,0,0,0-1.567-.65,13.84,13.84,0,0,0-1.393-.29,2.324,2.324,0,0,0-2.453.726c-.121.142-.27.26-.472.453-.222-.161-.439-.316-.654-.474-.691-.5-1.352-1.053-2.079-1.492a6.736,6.736,0,0,0-3.914-1.1c-.805.043-1.615.015-2.423.005a20.264,20.264,0,0,0-9.1,1.962c-.343.163-.694.308-1.046.447a1.281,1.281,0,0,1-.364.005c-.1-.153-.241-.335-.347-.534a2.017,2.017,0,0,0-2.024-1.067,4,4,0,0,0-3.4,2.023,1.892,1.892,0,0,0,.257,2.359c.213.246.439.482.678.743-.6,1.061-1.184,2.079-1.847,3.244-.388.2-.944.035-1.535.051a3.119,3.119,0,0,1-.2-.73q-.01-3.491.015-6.982a2.615,2.615,0,0,1,.093-.5c.125-.092.2-.187.274-.2a20.746,20.746,0,0,0,7.8-2.5,27.545,27.545,0,0,1,4.645-1.782,10.51,10.51,0,0,1,3.1-.411c1.947-.025,3.894.017,5.841.02a5.415,5.415,0,0,1,2.338.544,21.843,21.843,0,0,1,3.8,1.932,4.219,4.219,0,0,0,.623.34c1.441.728,2.887,1.446,4.322,2.182a7.283,7.283,0,0,0,3.242.976,4.424,4.424,0,0,1,.861.194,22.922,22.922,0,0,1,.138,3.993c.025,1.33.013,2.661,0,3.99S-152.324,504.529-152.416,505.985Z" transform="translate(236.395 -485.746)" fill="#fff" fill-rule="evenodd"/>
      <path id="Path_7918_-_Outline" data-name="Path 7918 - Outline" d="M-152.527,506.236a6.74,6.74,0,0,1-3.264-1.035c-.132-.07-.265-.14-.4-.209l-.163-.084.031-.181c.017-.1.034-.2.051-.293.033-.186.063-.362.092-.54l.017-.1a16.357,16.357,0,0,0,.3-3.523,2.07,2.07,0,0,1,.665-1.7,2.475,2.475,0,0,0,.61-2.036,2.6,2.6,0,0,0-1.123-1.928,6.824,6.824,0,0,0-1.512-.624,6.584,6.584,0,0,0-.889-.195c-.157-.027-.319-.055-.479-.089a3.32,3.32,0,0,0-.672-.075,1.908,1.908,0,0,0-1.539.717,3.282,3.282,0,0,1-.3.3c-.057.052-.119.108-.187.173l-.151.144-.354-.256c-.158-.115-.315-.227-.47-.342-.217-.157-.435-.322-.645-.482a16.735,16.735,0,0,0-1.415-1,6.464,6.464,0,0,0-3.771-1.059c-.3.016-.618.023-1,.023-.313,0-.63-.005-.936-.01l-.506-.007h-.258a20.069,20.069,0,0,0-8.733,1.939c-.3.144-.629.284-1.063.454a.528.528,0,0,1-.2.033c-.037,0-.073,0-.112,0s-.093-.006-.148-.006h-.135l-.074-.113c-.03-.045-.063-.094-.1-.144a4.115,4.115,0,0,1-.26-.409,1.726,1.726,0,0,0-1.672-.937l-.122,0a3.742,3.742,0,0,0-3.2,1.9,1.651,1.651,0,0,0,.232,2.065c.148.171.3.338.467.515l.207.223.123.134-.09.158-.917,1.611-.93,1.633-.036.064-.065.034a1.317,1.317,0,0,1-.628.13c-.146,0-.295-.012-.452-.025a5.213,5.213,0,0,0-.564-.026l-.193.005-.054-.185c-.026-.091-.057-.175-.086-.257a1.626,1.626,0,0,1-.127-.541c-.006-2.041,0-4.2.015-6.985a1.789,1.789,0,0,1,.069-.428c.011-.044.022-.086.028-.12l.019-.1.079-.058c.035-.026.067-.054.1-.081a.533.533,0,0,1,.3-.162,20.426,20.426,0,0,0,7.712-2.469,26.382,26.382,0,0,1,4.442-1.722l.244-.078a10.8,10.8,0,0,1,3.168-.423c.415-.005.851-.008,1.331-.008.785,0,1.582.007,2.353.014.708.006,1.44.013,2.16.014a5.7,5.7,0,0,1,2.445.568c.339.161.691.314,1.031.463A14.2,14.2,0,0,1-161.41,490a2.779,2.779,0,0,0,.441.246l.146.072q.773.391,1.546.778c.912.458,1.855.932,2.778,1.405a7.089,7.089,0,0,0,3.131.948,2.362,2.362,0,0,1,.627.122c.093.027.189.055.288.078l.158.037.03.159a13.76,13.76,0,0,1,.15,2.882c-.007.379-.015.771-.008,1.153.024,1.288.014,2.6,0,3.861v.135c0,.4,0,.806,0,1.2.007.931.014,1.893-.05,2.919l-.014.229-.229.005Zm-3.271-1.6.241.127a6.432,6.432,0,0,0,2.9.975c.049-.921.042-1.8.036-2.649,0-.4-.006-.806,0-1.208v-.136c.01-1.261.021-2.566,0-3.848-.007-.391,0-.788.008-1.172a14.143,14.143,0,0,0-.114-2.623l-.152-.043a1.979,1.979,0,0,0-.495-.1,7.533,7.533,0,0,1-3.352-1c-.921-.473-1.863-.946-2.774-1.4q-.774-.388-1.546-.778l-.139-.068a3.2,3.2,0,0,1-.52-.294,13.818,13.818,0,0,0-2.715-1.438c-.343-.15-.7-.306-1.044-.469a5.131,5.131,0,0,0-2.231-.52c-.722,0-1.455-.008-2.164-.014-.77-.007-1.566-.014-2.349-.014-.479,0-.912,0-1.325.008a10.35,10.35,0,0,0-3.023.4l-.245.078a26,26,0,0,0-4.359,1.687,20.93,20.93,0,0,1-7.866,2.522l-.049.042-.056.049-.013.054a1.36,1.36,0,0,0-.054.308c-.016,2.788-.02,4.94-.015,6.979a1.276,1.276,0,0,0,.1.374l.038.106c.149,0,.291.016.43.027s.285.023.411.023a.992.992,0,0,0,.335-.046l.89-1.562.827-1.452-.081-.088c-.167-.18-.324-.35-.478-.527a2.143,2.143,0,0,1-.281-2.653,4.269,4.269,0,0,1,3.6-2.142l.141,0a2.214,2.214,0,0,1,2.114,1.2,3.67,3.67,0,0,0,.229.358l.032.047.043,0c.03,0,.057,0,.082,0h.018c.419-.165.735-.3,1.024-.437a20.61,20.61,0,0,1,9.212-1.986l.509.007c.3,0,.62.01.928.01.37,0,.678-.007.97-.023.11-.006.222-.009.333-.009a7.076,7.076,0,0,1,3.725,1.14,17.113,17.113,0,0,1,1.458,1.027c.208.158.424.322.638.477.156.115.311.227.468.34l.019.014.043-.039a2.89,2.89,0,0,0,.258-.253,2.412,2.412,0,0,1,1.921-.894,3.816,3.816,0,0,1,.774.086c.152.032.31.059.462.085a7.064,7.064,0,0,1,.956.211,7.229,7.229,0,0,1,1.622.675,3.1,3.1,0,0,1,1.357,2.3,2.936,2.936,0,0,1-.753,2.448,1.568,1.568,0,0,0-.52,1.316,16.734,16.734,0,0,1-.308,3.631l-.017.1c-.029.181-.06.359-.093.547Z" transform="translate(236.395 -485.746)" fill="#005789"/>
      <path id="Path_7919" data-name="Path 7919" d="M-160.052,494.157a9.49,9.49,0,0,1,.043-1.134.768.768,0,0,1,.76-.711,3.746,3.746,0,0,1,.977.118.875.875,0,0,1,.691.807c.031.282.029.568.032.851.053,5.12-.033,10.235-.383,15.346-.048.707-.009,1.421-.024,2.13-.011.516-.044,1.03-.066,1.544l-.259,0c-.241-1.1-.473-2.2-.724-3.3a14.513,14.513,0,0,0-.468-1.786,10.593,10.593,0,0,1-.585-3.768" transform="translate(246.072 -484.229)" fill="#fff" fill-rule="evenodd"/>
      <path id="Path_7919_-_Outline" data-name="Path 7919 - Outline" d="M-157.784,513.362l-.7-.011-.042-.193q-.11-.5-.219-1.007c-.163-.751-.331-1.528-.5-2.289q-.034-.148-.066-.3a11.539,11.539,0,0,0-.392-1.46,10.73,10.73,0,0,1-.6-3.855l.5,0a10.25,10.25,0,0,0,.569,3.68,11.914,11.914,0,0,1,.411,1.524q.033.147.066.293c.175.764.343,1.542.506,2.295l.029.132c.009-.206.017-.413.022-.618.006-.267,0-.54,0-.805,0-.438-.007-.89.023-1.337.316-4.624.441-9.637.382-15.326v-.1c0-.242,0-.493-.03-.731a.624.624,0,0,0-.5-.591,3.49,3.49,0,0,0-.912-.111.52.52,0,0,0-.518.49,8.814,8.814,0,0,0-.041,1.045v.06h-.5V494.1a9.189,9.189,0,0,1,.044-1.1,1.022,1.022,0,0,1,1-.931,3.98,3.98,0,0,1,1.042.125,1.123,1.123,0,0,1,.88,1.022,7.783,7.783,0,0,1,.033.781v.095c.059,5.7-.066,10.728-.383,15.365-.029.428-.025.871-.022,1.3,0,.268,0,.545,0,.819-.007.355-.025.713-.043,1.059-.008.164-.017.327-.024.491Z" transform="translate(246.072 -484.229)" fill="#005789"/>
      <path id="Path_7920" data-name="Path 7920" d="M-190.684,489.784c.082.71.179,1.314.215,1.923s.031,1.228.015,1.842c-.047,1.7-.106,3.4-.159,5.1-.009.284.005.569-.013.852-.033.5-.25.7-.708.67s-.666-.225-.691-.716c-.028-.52-.024-1.041-.02-1.56q.032-3.266.077-6.528a8.481,8.481,0,0,1,.089-.989C-191.779,489.622-191.645,489.555-190.684,489.784Z" transform="translate(235.545 -485.099)" fill="#fff" fill-rule="evenodd"/>
      <path id="Path_7920_-_Outline" data-name="Path 7920 - Outline" d="M-191.377,489.418a3.511,3.511,0,0,1,.751.123l.17.041.02.174c.026.221.053.432.079.636.058.45.112.874.138,1.3.039.642.03,1.275.015,1.863-.031,1.135-.069,2.289-.1,3.4q-.028.85-.055,1.7c0,.115,0,.234,0,.349,0,.167,0,.339-.011.512-.04.6-.337.906-.882.906l-.089,0a.884.884,0,0,1-.927-.953c-.028-.527-.024-1.06-.02-1.575.026-2.633.049-4.646.077-6.53a8.788,8.788,0,0,1,.091-1.018C-192.076,489.955-192,489.418-191.377,489.418Zm.465.57a2.433,2.433,0,0,0-.465-.07c-.138,0-.19,0-.255.5a8.36,8.36,0,0,0-.087.96c-.028,1.883-.051,3.9-.077,6.527,0,.507-.008,1.032.02,1.545.018.354.12.461.455.48l.062,0c.24,0,.359-.066.383-.439.01-.156.01-.312.009-.478,0-.119,0-.242,0-.366q.027-.85.055-1.7c.036-1.115.074-2.268.1-3.4.015-.577.024-1.2-.014-1.82-.024-.41-.078-.826-.134-1.267C-190.872,490.3-190.892,490.148-190.911,489.988Z" transform="translate(235.545 -485.099)" fill="#005789"/>
      <path id="Path_7921" data-name="Path 7921" d="M-166.132,498.26a7.4,7.4,0,0,1-1.2,3.736,2.836,2.836,0,0,1-.654.73.841.841,0,0,1-1.3-.574,1.482,1.482,0,0,1,.1-.824,11.029,11.029,0,0,0,1.287-3.72.8.8,0,0,1,1.083-.611,1.4,1.4,0,0,1,.564.577A2.063,2.063,0,0,1-166.132,498.26Z" transform="translate(243.032 -482.707)" fill="#00558c" fill-rule="evenodd"/>
      <path id="Path_7921_-_Outline" data-name="Path 7921 - Outline" d="M-167.095,496.685a.919.919,0,0,1,.389.084,1.635,1.635,0,0,1,.677.682,1.333,1.333,0,0,1,.127.574c0,.071.009.138.018.2l0,.022v.022a7.6,7.6,0,0,1-1.24,3.861,3.068,3.068,0,0,1-.714.8.973.973,0,0,1-.6.2,1.1,1.1,0,0,1-1.1-.946,1.726,1.726,0,0,1,.133-.97,10.772,10.772,0,0,0,1.258-3.636A1.067,1.067,0,0,1-167.095,496.685Zm.712,1.587c-.009-.073-.014-.145-.019-.214a.962.962,0,0,0-.065-.364,1.143,1.143,0,0,0-.451-.472.422.422,0,0,0-.178-.037.567.567,0,0,0-.552.458,11.261,11.261,0,0,1-1.314,3.8,1.225,1.225,0,0,0-.075.678.608.608,0,0,0,.6.5.48.48,0,0,0,.294-.1,2.6,2.6,0,0,0,.595-.665A7.114,7.114,0,0,0-166.383,498.272Z" transform="translate(243.032 -482.707)" fill="#005789"/>
    </g>
  </g>
</svg>
