<svg xmlns="http://www.w3.org/2000/svg" width="22.966" height="41.583" viewBox="0 0 22.966 41.583">
  <g id="Group_31124" data-name="Group 31124" transform="translate(-666 -757.367)">
    <g id="Group_31066" data-name="Group 31066" transform="matrix(0.719, 0.695, -0.695, 0.719, 272.914, -1124.301)">
      <g id="Group_31053" data-name="Group 31053" transform="translate(1601.093 1069.757)">
        <path id="Path_7977" data-name="Path 7977" d="M8.745.677a.941.941,0,0,0,.88-.794A.942.942,0,0,0,8.84-1.192L.384-2.517a.943.943,0,0,0-1.075.785A.941.941,0,0,0,.092-.657L8.55.667a.922.922,0,0,0,.2.01" transform="translate(0.703 2.528)" fill="#2e3540"/>
      </g>
      <g id="Group_31054" data-name="Group 31054" transform="translate(1604.7 1066.185)">
        <path id="Path_7978" data-name="Path 7978" d="M-.676,2.187a.942.942,0,0,0,.872-.8L1.439-7.083A.941.941,0,0,0,.645-8.151a.944.944,0,0,0-1.068.794L-1.666,1.112A.942.942,0,0,0-.872,2.18a1.028,1.028,0,0,0,.2.008" transform="translate(1.676 8.161)" fill="#2e3540"/>
      </g>
    </g>
    <g id="Group_31067" data-name="Group 31067" transform="translate(489.731 -11.512)">
      <g id="Group_31017" data-name="Group 31017" transform="translate(180.462 792.306)">
        <path id="Path_7942" data-name="Path 7942" d="M-6.855,0s5.63,1.566,5.462,2.03S-2.382,6.6-2.686,7.056s-2.8,5.162-4.491,3.861-9.189-3.469-8.045-4.225S-6.855,0-6.855,0" transform="translate(15.34)" fill="#ecf3d0"/>
      </g>
      <g id="Group_31018" data-name="Group 31018" transform="translate(176.269 789)">
        <path id="Path_7943" data-name="Path 7943" d="M-14.371-17.338a1.249,1.249,0,0,0,.776-.207,1.248,1.248,0,0,0,.508-1.38c-1.648-5.783-1.217-8.142,2.3-12.62a1.247,1.247,0,0,0,.108-1.38,1.242,1.242,0,0,0-1.231-.631c-5.733.654-8.017-.248-12.206-4.834a1.246,1.246,0,0,0-1.457-.285,1.247,1.247,0,0,0-.7,1.311c1.052,7,.024,9.8-5.5,14.985a1.249,1.249,0,0,0-.228,1.532,1.247,1.247,0,0,0,1.44.574c7.172-2.142,10.067-1.642,15.489,2.668a1.248,1.248,0,0,0,.692.268m.033-13.542a11.834,11.834,0,0,0-1.924,9.331A13.737,13.737,0,0,0-27.04-23.7a13.855,13.855,0,0,0,3.6-10.508,12.024,12.024,0,0,0,9.1,3.324" transform="translate(32.158 38.796)" fill="#2e3540"/>
      </g>
    </g>
  </g>
</svg>
